<svg width="40" height="40" viewBox="0 0 40 40" fill="none" xmlns="http://www.w3.org/2000/svg">
<rect width="40" height="40" rx="20" fill="#FF8F3F"/>
<path fill-rule="evenodd" clip-rule="evenodd" d="M18.075 11.5518C20.0525 11.0993 22.1261 11.355 23.9344 12.2746C25.7427 13.1941 27.1709 14.719 27.9701 16.5836C28.7694 18.4482 28.8889 20.5341 28.3079 22.4778C27.9108 23.8062 27.2037 25.0107 26.2558 25.9976H27.5532C27.9212 25.9976 28.2196 26.296 28.2196 26.664C28.2196 27.0321 27.9212 27.3304 27.5532 27.3304H24.4229C24.0549 27.3304 23.7565 27.0321 23.7565 26.664V23.5542C23.7565 23.1861 24.0549 22.8878 24.4229 22.8878C24.7909 22.8878 25.0893 23.1861 25.0893 23.5542V25.2798C25.9948 24.4088 26.6669 23.314 27.031 22.0961C27.5226 20.4514 27.4214 18.6864 26.7451 17.1087C26.0689 15.531 24.8604 14.2406 23.3303 13.4626C21.8002 12.6845 20.0456 12.4681 18.3723 12.851C18.0135 12.9332 17.6561 12.7089 17.574 12.3501C17.4919 11.9913 17.7162 11.634 18.075 11.5518ZM11.7818 13.3503C11.7818 12.9823 12.0802 12.6839 12.4482 12.6839H15.558C15.9261 12.6839 16.2244 12.9823 16.2244 13.3503V16.4459C16.2244 16.814 15.9261 17.1123 15.558 17.1123C15.19 17.1123 14.8917 16.814 14.8917 16.4459V14.7412C13.9929 15.6129 13.3267 16.706 12.9668 17.9207C12.4798 19.5644 12.5843 21.3269 13.2622 22.9015C13.94 24.4762 15.1484 25.7635 16.677 26.5395C18.2057 27.3155 19.958 27.5312 21.6292 27.149C21.988 27.067 22.3453 27.2913 22.4274 27.6501C22.5094 28.0089 22.2851 28.3663 21.9263 28.4483C19.9512 28.8999 17.8803 28.645 16.0737 27.7279C14.2671 26.8108 12.8391 25.2895 12.038 23.4285C11.2369 21.5676 11.1134 19.4847 11.6889 17.5421C12.0829 16.2125 12.7873 15.0061 13.7331 14.0167H12.4482C12.0802 14.0167 11.7818 13.7184 11.7818 13.3503Z" fill="#FAFAFA"/>
</svg>
