<svg width="64" height="64" viewBox="0 0 64 64" fill="none" xmlns="http://www.w3.org/2000/svg">
<g clip-path="url(#clip0_4605_45926)">
<path fill-rule="evenodd" clip-rule="evenodd" d="M0 0H64V64H0V0Z" fill="white"/>
<path fill-rule="evenodd" clip-rule="evenodd" d="M2.74707 20.9433L10.5496 9.24394L12.4995 10.5444L4.69696 22.2437L2.74707 20.9433ZM5.67191 22.8939L13.4744 11.1946L15.4243 12.495L7.6218 24.1943L5.67191 22.8939ZM8.59675 24.8445L16.3992 13.1452L18.3491 14.4456L10.5466 26.145L8.59675 24.8445Z" fill="#000001"/>
<path fill-rule="evenodd" clip-rule="evenodd" d="M45.6445 49.5525L53.447 37.8531L55.3969 39.1535L47.5944 50.8529L45.6445 49.5525ZM48.5694 51.5031L56.3719 39.8037L58.3218 41.1041L50.5193 52.8035L48.5694 51.5031ZM51.4942 53.4537L59.2967 41.7544L61.2466 43.0548L53.4441 54.7541L51.4942 53.4537Z" fill="#000001"/>
<path fill-rule="evenodd" clip-rule="evenodd" d="M48.5713 43.0526L58.3208 49.5547Z" fill="black"/>
<path d="M48.5713 43.0526L58.3208 49.5547" stroke="white" stroke-width="1.17188"/>
<path fill-rule="evenodd" clip-rule="evenodd" d="M20.2979 24.1965C22.3672 21.0937 25.5844 18.9399 29.2417 18.2091C32.899 17.4783 36.6968 18.2303 39.7997 20.2997C42.9026 22.369 45.0563 25.5862 45.7871 29.2435C46.5179 32.9008 45.7659 36.6987 43.6966 39.8015L20.2979 24.1965Z" fill="#CD2E3A"/>
<path fill-rule="evenodd" clip-rule="evenodd" d="M20.2976 24.1965C18.2283 27.2994 17.4763 31.0972 18.2071 34.7545C18.9379 38.4118 21.0916 41.629 24.1945 43.6984C27.2973 45.7677 31.0952 46.5197 34.7525 45.7889C38.4098 45.0581 41.627 42.9044 43.6963 39.8015C44.731 38.2501 45.107 36.3512 44.7416 34.5225C44.3762 32.6939 43.2993 31.0853 41.7479 30.0506C40.1965 29.0159 38.2976 28.6399 36.4689 29.0053C34.6403 29.3707 33.0316 30.4476 31.997 31.999L20.2976 24.1965Z" fill="#0047A0"/>
<path d="M31.9971 31.999C34.1517 28.7683 33.2793 24.4027 30.0487 22.2481C26.818 20.0935 22.4523 20.9658 20.2977 24.1965C18.1431 27.4272 19.0155 31.7929 22.2462 33.9475C25.4768 36.1021 29.8425 35.2297 31.9971 31.999Z" fill="#CD2E3A"/>
<path fill-rule="evenodd" clip-rule="evenodd" d="M10.5557 54.7541L2.75316 43.0548L4.70306 41.7543L12.5056 53.4537L10.5557 54.7541ZM13.4805 52.8035L5.678 41.1041L7.6279 39.8037L15.4304 51.5031L13.4805 52.8035ZM16.4053 50.8529L8.60284 39.1535L10.5527 37.8531L18.3552 49.5525L16.4053 50.8529Z" fill="#000001"/>
<path fill-rule="evenodd" clip-rule="evenodd" d="M53.4531 26.145L45.6506 14.4456L47.6005 13.1452L55.403 24.8445L53.4531 26.145ZM56.378 24.1943L48.5755 12.495L50.5254 11.1946L58.3279 22.8939L56.378 24.1943ZM59.3028 22.2437L51.5003 10.5444L53.4502 9.24394L61.2527 20.9433L59.3028 22.2437Z" fill="#000001"/>
<path fill-rule="evenodd" clip-rule="evenodd" d="M9.0918 47.2789L12.0166 45.3283ZM48.5771 20.9455L51.9894 18.6698ZM54.9143 16.7191L57.8391 14.7685Z" fill="black"/>
<path d="M9.0918 47.2789L12.0166 45.3283M48.5771 20.9455L51.9894 18.6698M54.9143 16.7191L57.8391 14.7685" stroke="white" stroke-width="1.17188"/>
</g>
<defs>
<clipPath id="clip0_4605_45926">
<rect width="64" height="64" fill="white"/>
</clipPath>
</defs>
</svg>
