<svg width="40" height="40" viewBox="0 0 40 40" fill="none" xmlns="http://www.w3.org/2000/svg">
<rect width="40" height="40" rx="20" fill="#59C3D8"/>
<path fill-rule="evenodd" clip-rule="evenodd" d="M12.3212 22.9877C13.0521 22.2568 14.0435 21.8462 15.0771 21.8462H20.0002C21.0339 21.8462 22.0252 22.2568 22.7561 22.9877C23.487 23.7186 23.8976 24.7099 23.8976 25.7436V27.3846C23.8976 27.7245 23.6221 28 23.2823 28C22.9424 28 22.6669 27.7245 22.6669 27.3846V25.7436C22.6669 25.0363 22.3859 24.3581 21.8858 23.858C21.3857 23.3579 20.7074 23.0769 20.0002 23.0769H15.0771C14.3699 23.0769 13.6916 23.3579 13.1915 23.858C12.6914 24.3581 12.4105 25.0363 12.4105 25.7436V27.3846C12.4105 27.7245 12.1349 28 11.7951 28C11.4552 28 11.1797 27.7245 11.1797 27.3846V25.7436C11.1797 24.7099 11.5903 23.7186 12.3212 22.9877Z" fill="white"/>
<path fill-rule="evenodd" clip-rule="evenodd" d="M17.5387 13.2308C16.0659 13.2308 14.872 14.4247 14.872 15.8974C14.872 17.3702 16.0659 18.5641 17.5387 18.5641C19.0114 18.5641 20.2053 17.3702 20.2053 15.8974C20.2053 14.4247 19.0114 13.2308 17.5387 13.2308ZM13.6412 15.8974C13.6412 13.7449 15.3862 12 17.5387 12C19.6912 12 21.4361 13.7449 21.4361 15.8974C21.4361 18.0499 19.6912 19.7949 17.5387 19.7949C15.3862 19.7949 13.6412 18.0499 13.6412 15.8974Z" fill="white"/>
<path fill-rule="evenodd" clip-rule="evenodd" d="M28.6405 17.1033C28.8808 17.3436 28.8808 17.7333 28.6405 17.9736L25.3584 21.2557C25.1181 21.496 24.7285 21.496 24.4881 21.2557L22.8471 19.6146C22.6068 19.3743 22.6068 18.9847 22.8471 18.7443C23.0874 18.504 23.4771 18.504 23.7174 18.7443L24.9233 19.9502L27.7702 17.1033C28.0105 16.863 28.4001 16.863 28.6405 17.1033Z" fill="white"/>
</svg>
