<svg width="72" height="70" viewBox="0 0 72 70" fill="none" xmlns="http://www.w3.org/2000/svg">
<path d="M71.4265 48.0493L60.4093 17.4459C60.2379 16.9562 59.7728 16.6379 59.2586 16.6379H47.6783C48.0455 15.475 48.2414 14.2386 48.2414 12.9655C48.2414 6.22052 42.745 0.724136 36 0.724136C29.255 0.724136 23.7586 6.22052 23.7586 12.9655C23.7586 14.2386 23.9545 15.475 24.3217 16.6379H12.7414C12.2272 16.6379 11.7621 16.9562 11.5907 17.4459L0.573448 48.0493C0.524483 48.184 0.5 48.3186 0.5 48.4655V68.0517C0.5 68.725 1.05086 69.2759 1.72414 69.2759H70.2759C70.9491 69.2759 71.5 68.725 71.5 68.0517V48.4655C71.5 48.3186 71.4755 48.184 71.4265 48.0493ZM11.5172 37.2402L7.91828 47.2414H3.47465L11.5295 24.8764V37.2402H11.5172ZM13.5983 38.6724H58.3895L61.4743 47.2414H45.5116C44.3853 47.2414 43.406 48.0003 43.1367 49.1021L42.6103 51.2198C42.4757 51.7707 41.986 52.1502 41.4229 52.1502H30.5526C29.9895 52.1502 29.4998 51.7707 29.3652 51.2198L28.8388 49.1021C28.5695 48.0126 27.5902 47.2414 26.464 47.2414H10.5012L13.586 38.6724H13.5983ZM64.0817 47.2414L60.4828 37.2402V24.8764L68.5376 47.2414H64.094H64.0817ZM36 3.17241C41.3984 3.17241 45.7931 7.56707 45.7931 12.9655C45.7931 17.4948 42.7205 21.4121 38.3136 22.4893C37.9586 22.575 37.6648 22.8076 37.5057 23.1259L35.9878 26.1495L34.4698 23.1259C34.3107 22.8076 34.0169 22.575 33.6619 22.4893C29.255 21.4121 26.1824 17.5071 26.1824 12.9655C26.1824 7.56707 30.5771 3.17241 35.9755 3.17241H36ZM32.5479 24.7172L34.9105 29.4302C35.1186 29.8464 35.5348 30.1034 36 30.1034C36.4652 30.1034 36.8814 29.8464 37.0895 29.4302L39.4521 24.7172C42.5491 23.8114 45.0586 21.7548 46.601 19.0862H58.0345V36.2241H13.9655V19.0862H25.399C26.9291 21.7548 29.4509 23.8114 32.5479 24.7172ZM2.94828 66.8276V49.6897H26.4762L27.0026 51.8074C27.4066 53.4478 28.8755 54.5862 30.5648 54.5862H41.4352C43.1245 54.5862 44.5934 53.4478 44.9974 51.8074L45.5238 49.6897H69.0517V66.8276H2.94828ZM30.8097 16.4298L34.274 12.9655L30.8097 9.50121C30.3322 9.02379 30.3322 8.25259 30.8097 7.77517C31.2871 7.29776 32.0583 7.29776 32.5357 7.77517L36 11.2395L39.4643 7.77517C39.9417 7.29776 40.7129 7.29776 41.1903 7.77517C41.6678 8.25259 41.6678 9.02379 41.1903 9.50121L37.726 12.9655L41.1903 16.4298C41.6678 16.9072 41.6678 17.6784 41.1903 18.1559C40.9455 18.4007 40.6395 18.5109 40.3212 18.5109C40.0029 18.5109 39.6969 18.3884 39.4521 18.1559L35.9878 14.6916L32.5234 18.1559C32.2786 18.4007 31.9726 18.5109 31.6543 18.5109C31.336 18.5109 31.03 18.3884 30.7852 18.1559C30.3078 17.6784 30.3078 16.9072 30.7852 16.4298H30.8097Z" fill="#E3E3E3"/>
</svg>
