<svg width="40" height="40" viewBox="0 0 40 40" fill="none" xmlns="http://www.w3.org/2000/svg">
<rect width="40" height="40" rx="20" fill="#FFC107"/>
<path fill-rule="evenodd" clip-rule="evenodd" d="M14.7192 11.6399C14.8325 11.4888 15.0104 11.3999 15.1992 11.3999H24.7992C24.9881 11.3999 25.1659 11.4888 25.2792 11.6399L27.6792 14.8399C27.7571 14.9438 27.7992 15.0701 27.7992 15.1999V26.3999C27.7992 26.9834 27.5674 27.543 27.1549 27.9555C26.7423 28.3681 26.1827 28.5999 25.5992 28.5999H14.3992C13.8157 28.5999 13.2562 28.3681 12.8436 27.9555C12.431 27.543 12.1992 26.9834 12.1992 26.3999V15.1999C12.1992 15.0701 12.2413 14.9438 12.3192 14.8399L14.7192 11.6399ZM15.4992 12.5999L13.9992 14.5999H25.9992L24.4992 12.5999H15.4992ZM26.5992 15.7999H13.3992V26.3999C13.3992 26.6651 13.5046 26.9195 13.6921 27.107C13.8796 27.2945 14.134 27.3999 14.3992 27.3999H25.5992C25.8644 27.3999 26.1188 27.2945 26.3063 27.107C26.4939 26.9195 26.5992 26.6651 26.5992 26.3999V15.7999ZM16.7992 17.7999C17.1306 17.7999 17.3992 18.0685 17.3992 18.3999C17.3992 19.0895 17.6731 19.7508 18.1607 20.2384C18.6483 20.726 19.3097 20.9999 19.9992 20.9999C20.6888 20.9999 21.3501 20.726 21.8377 20.2384C22.3253 19.7508 22.5992 19.0895 22.5992 18.3999C22.5992 18.0685 22.8678 17.7999 23.1992 17.7999C23.5306 17.7999 23.7992 18.0685 23.7992 18.3999C23.7992 19.4077 23.3989 20.3743 22.6862 21.0869C21.9736 21.7995 21.007 22.1999 19.9992 22.1999C18.9914 22.1999 18.0249 21.7995 17.3122 21.0869C16.5996 20.3743 16.1992 19.4077 16.1992 18.3999C16.1992 18.0685 16.4678 17.7999 16.7992 17.7999Z" fill="white"/>
</svg>
