<svg width="40" height="40" viewBox="0 0 40 40" fill="none" xmlns="http://www.w3.org/2000/svg">
<rect width="40" height="40" rx="20" fill="#B144DE"/>
<path fill-rule="evenodd" clip-rule="evenodd" d="M20.0005 12C20.3674 12 20.6649 12.2854 20.6649 12.6374V21.3948L22.5974 19.5411C22.8569 19.2922 23.2776 19.2922 23.5371 19.5411C23.7966 19.79 23.7966 20.1936 23.5371 20.4425L20.4703 23.3843C20.2108 23.6332 19.7901 23.6332 19.5306 23.3843L16.4638 20.4425C16.2043 20.1936 16.2043 19.79 16.4638 19.5411C16.7233 19.2922 17.144 19.2922 17.4035 19.5411L19.336 21.3948V12.6374C19.336 12.2854 19.6335 12 20.0005 12Z" fill="white"/>
<path d="M12.6471 21.1359C12.2425 21.1359 11.9273 21.4769 12.0146 21.8559C12.8245 25.3708 16.0922 28 20 28C23.9078 28 27.1755 25.3708 27.9854 21.8559C28.0727 21.4769 27.7575 21.1359 27.3529 21.1359C27.0198 21.1359 26.7404 21.3709 26.6633 21.6817C25.9459 24.5741 23.2348 26.7252 20 26.7252C16.7652 26.7252 14.0541 24.5741 13.3367 21.6817C13.2596 21.3709 12.9802 21.1359 12.6471 21.1359Z" fill="white"/>
</svg>
