<svg width="40" height="40" viewBox="0 0 40 40" fill="none" xmlns="http://www.w3.org/2000/svg">
<rect width="40" height="40" rx="20" fill="#3996E2"/>
<path fill-rule="evenodd" clip-rule="evenodd" d="M27.2118 12.7881L12.9944 17.7638L18.7395 20.3182L21.3069 17.7507C21.5673 17.4904 21.9894 17.4904 22.2498 17.7507C22.5102 18.0111 22.5102 18.4333 22.2498 18.6936L19.6823 21.2611L22.2364 27.0072L27.2118 12.7881ZM18.382 21.6186L12.0106 18.7856C11.802 18.6925 11.6261 18.5389 11.5056 18.3448C11.3852 18.1507 11.3257 17.9249 11.3349 17.6966C11.3441 17.4683 11.4215 17.248 11.5572 17.0642C11.6929 16.8804 11.8806 16.7415 12.096 16.6654L12.0977 16.6648L27.148 11.3977L27.1507 11.3967C27.3533 11.3268 27.5715 11.3153 27.7803 11.3635C27.9892 11.4117 28.1802 11.5177 28.3317 11.6694C28.4831 11.8211 28.5888 12.0123 28.6368 12.2212C28.6847 12.4301 28.6728 12.6483 28.6026 12.8508L28.602 12.8526L23.3358 27.9028C23.2601 28.1189 23.1211 28.3074 22.9371 28.4436C22.753 28.5798 22.5323 28.6575 22.3035 28.6668C22.0747 28.676 21.8485 28.6162 21.6541 28.4952C21.4598 28.3743 21.3062 28.1978 21.2134 27.9886" fill="#FAFAFA"/>
</svg>
