<svg width="554" height="145" viewBox="0 0 554 145" fill="none" xmlns="http://www.w3.org/2000/svg">
<mask id="mask0_1354_10379" style="mask-type:luminance" maskUnits="userSpaceOnUse" x="0" y="0" width="554" height="145">
<path d="M554 0H0V145H554V0Z" fill="white"/>
</mask>
<g mask="url(#mask0_1354_10379)">
<path fill-rule="evenodd" clip-rule="evenodd" d="M181.079 0.75415L90.4223 144.829L-0.0205078 0.96825L181.079 0.75415Z" fill="#195C4E"/>
<path fill-rule="evenodd" clip-rule="evenodd" d="M57.9775 42.4671H70.9805L88.3226 25.0465V11.6367L57.9775 42.4671Z" fill="#57AC71"/>
<path fill-rule="evenodd" clip-rule="evenodd" d="M57.9775 59.3245H70.9805L88.3226 41.9039V28.4941L57.9775 59.3245Z" fill="#57AC71"/>
<path fill-rule="evenodd" clip-rule="evenodd" d="M57.9775 76.1809H70.9805L88.3226 58.7604V45.3506L57.9775 76.1809Z" fill="#57AC71"/>
<path fill-rule="evenodd" clip-rule="evenodd" d="M121.079 42.4671H108.076L90.7339 25.0465V11.6367L121.079 42.4671Z" fill="#8DC5A3"/>
<path fill-rule="evenodd" clip-rule="evenodd" d="M121.079 59.3245H108.076L90.7339 41.9039V28.4941L121.079 59.3245Z" fill="#8DC5A3"/>
<path fill-rule="evenodd" clip-rule="evenodd" d="M121.079 76.1809H108.076L90.7339 58.7604V45.3506L121.079 76.1809Z" fill="#8DC5A3"/>
<path fill-rule="evenodd" clip-rule="evenodd" d="M213.264 56.3843V88.9631C213.264 94.6296 215.79 97.3059 220.865 96.9918C225.211 96.685 228.465 94.0016 230.635 88.9631C233.889 81.4054 234.067 73.5479 231.177 65.355C229.008 59.3817 224.661 56.3843 218.146 56.3843H213.257H213.264ZM213.264 52.609H218.153C226.474 52.609 230.82 46.9425 231.184 35.6095C231.541 26.1677 229.372 20.0301 224.668 17.1969C219.237 15.3057 215.619 16.0978 213.814 19.5591L213.271 23.3344V52.609H213.264ZM191.005 100.767V97.4629C195.708 97.156 198.063 94.4726 198.063 89.4341V21.4503C198.063 17.675 195.708 15.634 191.005 15.3128V12.0085H221.949C230.992 12.0085 237.507 14.2138 241.497 18.6171C244.387 22.0855 246.021 26.1677 246.385 30.8921C247.106 36.8727 245.843 42.0681 242.581 46.4715C239.327 51.1959 233.711 54.022 225.753 54.9712C232.626 55.6064 237.7 57.0194 240.954 59.2175C244.565 61.4228 246.928 65.198 248.012 70.5505C248.733 74.647 248.733 78.7363 248.012 82.8256C246.564 89.4341 244.209 93.6804 240.954 95.5716C236.608 99.0401 231.184 100.767 224.668 100.767H191.005Z" fill="white"/>
<path fill-rule="evenodd" clip-rule="evenodd" d="M272.992 66.6614H292.917C293.674 56.2062 292.532 49.1837 289.499 45.6011C284.946 41.7259 280.578 42.1684 276.403 46.9428C274.883 49.3407 273.934 52.174 273.556 55.4568C273.17 57.5479 272.985 61.2803 272.985 66.6614H272.992ZM303.708 82.3049L307.719 82.3406C303.537 90.405 298.798 95.7861 293.488 98.4766C289.306 100.561 284.567 101.167 279.258 100.268C275.461 99.6684 271.857 98.184 268.439 95.7861C262.744 91.3043 259.132 85.1881 257.619 77.4092C256.478 70.5366 257.234 63.821 259.896 57.241C264.449 45.8937 272.228 40.0631 283.24 39.7633C291.583 39.4707 298.227 42.9035 303.166 50.0687C306.584 54.8502 308.29 61.573 308.29 70.2369H272.992C273.363 79.2005 274.505 85.4736 276.41 89.0562C278.687 92.9386 281.905 95.0367 286.088 95.3293C290.262 95.6291 294.245 93.8378 298.041 89.9483C300.318 87.5647 303.708 82.2907 303.708 82.2907V82.3049Z" fill="white"/>
<path fill-rule="evenodd" clip-rule="evenodd" d="M312.587 43.5524V39.8556C317.904 38.3141 321.979 35.5451 324.819 31.5343C327.296 27.8375 329.073 22.7491 330.136 16.2761H335.453V39.8556H348.748V43.5524H335.453V86.5508C335.453 89.3269 336.159 91.1753 337.579 92.096C341.119 93.9444 343.774 92.5598 345.558 87.9353C346.971 84.5454 347.856 80.3847 348.22 75.4533H351.946C351.589 81.6265 350.697 86.5508 349.284 90.2476C347.157 95.493 343.253 98.8758 337.587 100.417C330.85 101.645 326.061 99.9534 323.228 95.3289C322.164 93.4805 321.629 90.5544 321.629 86.5436V43.5453H312.587V43.5524Z" fill="white"/>
<path fill-rule="evenodd" clip-rule="evenodd" d="M362.136 100.766V97.9329C367.924 96.9909 370.821 94.0006 370.821 88.9621V52.137C370.821 47.4125 367.924 44.7434 362.136 44.1082V41.275L384.937 39.6621V52.608C390.725 43.4802 397.427 39.2339 405.027 39.8619C409.73 40.4971 412.628 42.5382 413.712 45.9995C414.797 52.3011 412.264 55.9123 406.112 56.8543C401.766 57.1683 398.69 55.7553 396.884 52.608C396.156 50.4099 396.156 48.2047 396.884 45.9995C394.715 46.9415 392.895 48.2047 391.453 49.7748C388.556 52.922 386.379 57.9605 384.937 64.8831V88.9621C384.937 92.1094 385.658 94.3146 387.107 95.5707C388.192 97.1479 390.54 97.9329 394.165 97.9329V100.766H362.136Z" fill="white"/>
<path fill-rule="evenodd" clip-rule="evenodd" d="M440.595 39.8193V49.4609C446.746 43.1664 453.262 39.8621 460.142 39.5481C465.573 39.2412 470.091 40.8113 473.716 44.2726C476.606 47.1058 478.062 51.0453 478.062 56.0766V91.4816C478.062 95.2569 480.774 97.4621 486.205 98.0901L485.663 100.923H456.345V98.0901C461.412 97.7832 463.946 95.578 463.946 91.4816V56.0766C463.946 53.2434 463.039 51.0453 461.234 49.4681C459.064 47.5769 456.524 46.956 453.633 47.5769C449.287 48.212 445.305 51.3521 441.687 57.0187V91.9526C441.687 95.421 443.856 97.4621 448.202 98.0901L448.745 100.923H419.97V98.0901C425.037 97.7832 427.57 95.7279 427.57 91.9526V53.7144C427.57 48.9971 425.037 46.3208 419.97 45.6856V42.3814L440.602 39.8193H440.595Z" fill="white"/>
<path fill-rule="evenodd" clip-rule="evenodd" d="M492.714 100.767V97.9338C497.418 97.9338 499.773 95.8927 499.773 91.7963V21.4502C499.773 18.9381 499.23 17.3609 498.145 16.7258C497.418 16.0977 495.612 15.6267 492.714 15.3127V12.4795L513.889 8.23315V71.4925L531.26 52.1379C533.065 50.2467 533.608 48.2056 532.887 46.0003C532.523 44.4303 529.982 43.4882 525.286 43.1671V39.8628H550.257V43.1671C546.268 43.8023 543.199 45.3723 541.03 47.8844L528.54 61.5797L543.742 91.3252C545.547 94.7937 548.445 96.9917 552.427 97.9338V100.767H525.279V97.9338C529.254 96.9917 530.346 94.9435 528.533 91.7963L518.221 72.4416L513.875 76.688V91.7963C513.875 94.0015 514.417 95.5716 515.502 96.5136C516.223 97.1488 518.028 97.6198 520.933 97.9266V100.76H492.7L492.714 100.767Z" fill="white"/>
<path fill-rule="evenodd" clip-rule="evenodd" d="M506.23 125.738H503.204V126.787H506.23V125.738ZM503.204 122.876H506.23V121.862H503.204V122.876ZM502.348 134.851H495.989C496.66 135.372 497.309 135.914 497.93 136.485C498.551 137.056 499.044 137.57 499.408 138.02L498.401 138.662C499.022 138.684 499.665 138.698 500.343 138.698H501.698C502.141 138.698 502.355 138.541 502.355 138.227V134.851H502.348ZM495.097 126.787H497.852V125.738H495.097V126.787ZM495.097 122.876H497.852V121.862H495.097V122.876ZM513.096 134.851H507.7V138.362C507.7 139.354 507.572 140.125 507.315 140.689C507.058 141.253 506.523 141.688 505.724 142.002C504.924 142.295 504.025 142.473 503.026 142.544C502.027 142.609 500.885 142.644 499.593 142.644C499.486 142.059 499.301 141.41 499.029 140.703C498.758 139.997 498.48 139.361 498.194 138.798L495.361 140.618C495.104 140.189 494.719 139.718 494.219 139.197C493.713 138.684 493.17 138.155 492.592 137.613C492.007 137.071 491.45 136.592 490.908 136.164L493.042 134.851H487.768V131.004H502.355V129.855H490.137V118.794H497.859V117.78H488.431V114.033H497.859V110.558H503.211V114.033H506.473C505.674 113.605 504.881 113.213 504.104 112.856L506.509 110.394C507.308 110.686 508.186 111.065 509.128 111.521C510.07 111.985 510.826 112.392 511.397 112.756L510.234 114.041H512.717V117.787H503.211V118.801H511.433V129.863H507.708V131.012H513.103V134.858L513.096 134.851ZM485.627 123.211V142.609H480.117V123.211H476.199V118.794H480.117V110.565H485.627V118.794H489.159V123.211H485.627Z" fill="white"/>
<path fill-rule="evenodd" clip-rule="evenodd" d="M544.984 121.863H535.87V125.338H544.984V121.863ZM547.581 137.984C547.788 137.984 547.945 137.899 548.045 137.735C548.145 137.563 548.224 137.214 548.281 136.671C548.331 136.129 548.373 135.301 548.395 134.173C548.73 134.423 549.18 134.666 549.751 134.901C550.322 135.137 550.921 135.351 551.556 135.544C552.192 135.736 552.741 135.886 553.205 136C553.048 137.685 552.777 138.991 552.391 139.911C552.006 140.832 551.471 141.474 550.8 141.831C550.129 142.188 549.258 142.373 548.202 142.373H545.683C544.313 142.373 543.271 142.195 542.557 141.852C541.843 141.503 541.358 140.925 541.101 140.118C540.844 139.312 540.716 138.227 540.716 136.878V129.863H538.967C538.81 131.776 538.496 133.56 538.018 135.223C537.54 136.885 536.719 138.384 535.556 139.726C534.393 141.06 532.701 142.216 530.475 143.18C530.268 142.773 529.975 142.331 529.604 141.845C529.226 141.36 528.826 140.889 528.398 140.425C527.97 139.961 527.549 139.59 527.135 139.298C528.89 138.62 530.196 137.813 531.053 136.871C531.909 135.929 532.494 134.866 532.816 133.681C533.137 132.503 533.351 131.226 533.458 129.856H530.353V123.276L527.406 124.453C527.306 123.911 527.135 123.297 526.899 122.598C526.664 121.898 526.393 121.178 526.086 120.435V142.595H520.655V120.571C520.555 121.856 520.362 123.119 520.091 124.368C519.82 125.617 519.434 126.709 518.949 127.658L515.338 126.273C515.723 125.552 516.052 124.696 516.309 123.69C516.565 122.691 516.758 121.634 516.887 120.521C517.015 119.408 517.079 118.344 517.079 117.331L520.648 117.738V110.551H526.079V117.06L527.898 116.382C528.362 117.145 528.819 117.966 529.254 118.844C529.697 119.722 530.054 120.55 530.339 121.342V117.359H533.479C533.115 116.574 532.644 115.747 532.066 114.883C531.488 114.02 530.867 113.227 530.225 112.507L534.571 110.722C535.428 111.622 536.241 112.614 537.012 113.706C537.79 114.797 538.332 115.782 538.639 116.66L536.969 117.367H543.799L541.936 116.589C542.529 115.754 543.142 114.762 543.777 113.606C544.413 112.449 544.912 111.386 545.269 110.416L550.857 112.471C550.186 113.327 549.53 114.177 548.894 115.033C548.259 115.889 547.646 116.667 547.053 117.359H550.736V129.842H546.118V136.821C546.118 137.342 546.147 137.656 546.197 137.785C546.247 137.906 546.404 137.97 546.661 137.97H547.553L547.581 137.984Z" fill="white"/>
</g>
</svg>
