<svg width="1111" height="297" viewBox="0 0 1111 297" fill="none" xmlns="http://www.w3.org/2000/svg">
<mask id="mask0_5_4" style="mask-type:luminance" maskUnits="userSpaceOnUse" x="0" y="0" width="1091" height="297">
<path d="M1090.23 0H0V297H1090.23V0Z" fill="white"/>
</mask>
<g mask="url(#mask0_5_4)">
<path fill-rule="evenodd" clip-rule="evenodd" d="M363.38 7.53345L181.454 296.657L-0.0429916 7.96309L363.38 7.53345Z" fill="#195C4E"/>
</g>
<path fill-rule="evenodd" clip-rule="evenodd" d="M116.348 91.2423H142.442L177.243 56.2835V29.3733L116.348 91.2423Z" fill="#57AC71"/>
<path fill-rule="evenodd" clip-rule="evenodd" d="M116.348 125.07H142.442L177.243 90.111V63.2008L116.348 125.07Z" fill="#57AC71"/>
<path fill-rule="evenodd" clip-rule="evenodd" d="M116.348 158.897H142.442L177.243 123.938V97.0283L116.348 158.897Z" fill="#57AC71"/>
<path fill-rule="evenodd" clip-rule="evenodd" d="M242.979 91.2423H216.885L182.084 56.2835V29.3733L242.979 91.2423Z" fill="#8DC5A3"/>
<path fill-rule="evenodd" clip-rule="evenodd" d="M242.979 125.07H216.885L182.084 90.111V63.2008L242.979 125.07Z" fill="#8DC5A3"/>
<path fill-rule="evenodd" clip-rule="evenodd" d="M242.979 158.897H216.885L182.084 123.938V97.0283L242.979 158.897Z" fill="#8DC5A3"/>
<path fill-rule="evenodd" clip-rule="evenodd" d="M427.971 119.17V184.547C427.971 195.919 433.04 201.289 443.223 200.659C451.945 200.043 458.475 194.658 462.829 184.547C469.36 169.381 469.718 153.613 463.918 137.172C459.564 125.185 450.842 119.17 437.766 119.17H427.956H427.971ZM427.971 111.594H437.781C454.48 111.594 463.202 100.222 463.932 77.4796C464.648 58.5322 460.294 46.2157 450.856 40.53C439.958 36.7348 432.697 38.3245 429.073 45.2705L427.985 52.8466V111.594H427.971ZM383.302 208.235V201.604C392.74 200.989 397.466 195.604 397.466 185.493V49.0657C397.466 41.4896 392.74 37.3936 383.302 36.7492V30.1183H445.4C463.545 30.1183 476.621 34.5436 484.627 43.38C490.427 50.3403 493.706 58.5322 494.437 68.0131C495.883 80.0145 493.348 90.4406 486.803 99.277C480.273 108.758 469.002 114.429 453.033 116.334C466.825 117.609 477.007 120.444 483.538 124.855C490.785 129.281 495.525 136.857 497.702 147.598C499.149 155.818 499.149 164.025 497.702 172.231C494.795 185.493 490.069 194.014 483.538 197.809C474.816 204.769 463.932 208.235 450.856 208.235H383.302Z" fill="white"/>
<path fill-rule="evenodd" clip-rule="evenodd" d="M547.827 139.793H587.813C589.331 118.812 587.04 104.719 580.953 97.5298C571.816 89.7532 563.051 90.6411 554.673 100.222C551.623 105.034 549.718 110.72 548.959 117.308C548.186 121.504 547.813 128.994 547.813 139.793H547.827ZM609.467 171.185L617.516 171.257C609.124 187.44 599.614 198.239 588.959 203.638C580.566 207.82 571.057 209.037 560.402 207.233C552.783 206.03 545.55 203.051 538.69 198.239C527.262 189.245 520.015 176.971 516.979 161.361C514.687 147.569 516.206 134.093 521.547 120.888C530.685 98.1169 546.295 86.4162 568.393 85.8147C585.135 85.2276 598.468 92.1162 608.379 106.495C615.239 116.09 618.662 129.581 618.662 146.968H547.827C548.572 164.956 550.864 177.544 554.687 184.734C559.256 192.525 565.715 196.735 574.107 197.322C582.486 197.924 590.477 194.329 598.096 186.524C602.665 181.74 609.467 171.157 609.467 171.157V171.185Z" fill="white"/>
<path fill-rule="evenodd" clip-rule="evenodd" d="M627.283 93.4193V86.0007C637.953 82.9073 646.13 77.3505 651.83 69.3018C656.8 61.8833 660.366 51.672 662.5 38.6824H673.169V86.0007H699.85V93.4193H673.169V179.707C673.169 185.278 674.587 188.987 677.437 190.834C684.541 194.544 689.868 191.765 693.449 182.485C696.284 175.682 698.06 167.333 698.791 157.437H706.266C705.55 169.825 703.76 179.707 700.925 187.125C696.657 197.651 688.823 204.44 677.452 207.533C663.932 209.997 654.322 206.602 648.637 197.322C646.503 193.613 645.429 187.741 645.429 179.692V93.405H627.283V93.4193Z" fill="white"/>
<path fill-rule="evenodd" clip-rule="evenodd" d="M726.718 208.235V202.549C738.332 200.659 744.147 194.658 744.147 184.547V110.648C744.147 101.167 738.332 95.8111 726.718 94.5365V88.8508L772.475 85.6141V111.593C784.09 93.2762 797.538 84.7548 812.79 86.0151C822.228 87.2898 828.043 91.3857 830.219 98.3317C832.396 110.978 827.312 118.224 814.967 120.115C806.245 120.745 800.073 117.909 796.449 111.593C794.988 107.182 794.988 102.757 796.449 98.3317C792.096 100.222 788.444 102.757 785.551 105.908C779.736 112.224 775.368 122.335 772.475 136.226V184.547C772.475 190.863 773.921 195.288 776.829 197.809C779.006 200.974 783.717 202.549 790.993 202.549V208.235H726.718Z" fill="white"/>
<path fill-rule="evenodd" clip-rule="evenodd" d="M884.169 85.929V105.277C896.514 92.6458 909.589 86.015 923.395 85.3848C934.294 84.769 943.36 87.9197 950.635 94.8657C956.435 100.551 959.357 108.457 959.357 118.553V189.603C959.357 197.179 964.799 201.604 975.698 202.864L974.609 208.55H915.776V202.864C925.944 202.249 931.029 197.823 931.029 189.603V118.553C931.029 112.868 929.21 108.457 925.586 105.292C921.233 101.497 916.134 100.251 910.334 101.497C901.612 102.771 893.621 109.073 886.36 120.444V190.548C886.36 197.508 890.714 201.604 899.435 202.864L900.524 208.55H842.779V202.864C852.948 202.249 858.032 198.124 858.032 190.548V113.813C858.032 104.347 852.948 98.976 842.779 97.7013V91.0705L884.183 85.929H884.169Z" fill="white"/>
<path fill-rule="evenodd" clip-rule="evenodd" d="M988.759 208.235V202.549C998.197 202.549 1002.92 198.453 1002.92 190.233V49.0655C1002.92 44.0243 1001.83 40.8592 999.657 39.5846C998.197 38.3243 994.573 37.3791 988.759 36.749V31.0633L1031.25 22.542V149.488L1066.11 110.648C1069.73 106.853 1070.82 102.757 1069.37 98.3316C1068.64 95.1808 1063.55 93.2904 1054.12 92.6459V86.015H1104.23V92.6459C1096.23 93.9205 1090.07 97.0713 1085.72 102.112L1060.65 129.595L1091.16 189.288C1094.78 196.248 1100.6 200.659 1108.59 202.549V208.235H1054.11V202.549C1062.09 200.659 1064.28 196.549 1060.64 190.233L1039.94 151.393L1031.22 159.914V190.233C1031.22 194.658 1032.31 197.809 1034.49 199.699C1035.93 200.974 1039.56 201.919 1045.39 202.535V208.221H988.73L988.759 208.235Z" fill="white"/>
<path fill-rule="evenodd" clip-rule="evenodd" d="M1015.88 258.346H1009.81V260.451H1015.88V258.346ZM1009.81 252.603H1015.88V250.57H1009.81V252.603ZM1008.09 276.635H995.332C996.679 277.68 997.982 278.769 999.228 279.914C1000.47 281.06 1001.46 282.091 1002.19 282.994L1000.17 284.283C1001.42 284.325 1002.71 284.354 1004.07 284.354H1006.79C1007.68 284.354 1008.11 284.039 1008.11 283.409V276.635H1008.09ZM993.542 260.451H999.07V258.346H993.542V260.451ZM993.542 252.603H999.07V250.57H993.542V252.603ZM1029.66 276.635H1018.83V283.681C1018.83 285.672 1018.58 287.218 1018.06 288.35C1017.55 289.481 1016.47 290.355 1014.87 290.985C1013.26 291.572 1011.46 291.93 1009.45 292.073C1007.45 292.202 1005.16 292.274 1002.56 292.274C1002.35 291.1 1001.98 289.796 1001.43 288.378C1000.89 286.961 1000.33 285.686 999.758 284.555L994.072 288.207C993.556 287.347 992.783 286.402 991.781 285.357C990.764 284.325 989.675 283.266 988.515 282.177C987.341 281.089 986.224 280.129 985.135 279.27L989.418 276.635H978.834V268.916H1008.11V266.61H983.589V244.411H999.085V242.378H980.166V234.859H999.085V227.884H1009.83V234.859H1016.37C1014.77 234 1013.18 233.212 1011.62 232.496L1016.44 227.555C1018.05 228.142 1019.81 228.901 1021.7 229.818C1023.59 230.749 1025.11 231.565 1026.25 232.295L1023.92 234.873H1028.9V242.392H1009.83V244.426H1026.32V266.624H1018.85V268.93H1029.68V276.649L1029.66 276.635ZM974.537 253.276V292.202H963.481V253.276H955.619V244.411H963.481V227.899H974.537V244.411H981.627V253.276H974.537Z" fill="white"/>
<path fill-rule="evenodd" clip-rule="evenodd" d="M1093.65 250.57H1075.36V257.544H1093.65V250.57ZM1098.86 282.922C1099.28 282.922 1099.59 282.75 1099.79 282.421C1099.99 282.077 1100.15 281.375 1100.27 280.287C1100.37 279.198 1100.45 277.537 1100.5 275.274C1101.17 275.775 1102.07 276.262 1103.22 276.735C1104.36 277.208 1105.57 277.637 1106.84 278.024C1108.11 278.411 1109.22 278.711 1110.15 278.94C1109.83 282.32 1109.29 284.941 1108.52 286.789C1107.74 288.636 1106.67 289.925 1105.32 290.641C1103.98 291.357 1102.23 291.73 1100.11 291.73H1095.05C1092.3 291.73 1090.21 291.372 1088.78 290.684C1087.35 289.982 1086.37 288.822 1085.86 287.204C1085.34 285.586 1085.09 283.409 1085.09 280.702V266.624H1081.58C1081.26 270.462 1080.63 274.043 1079.67 277.379C1078.71 280.716 1077.07 283.724 1074.73 286.416C1072.4 289.094 1069 291.415 1064.53 293.348C1064.12 292.532 1063.53 291.644 1062.79 290.67C1062.03 289.696 1061.23 288.751 1060.37 287.82C1059.51 286.889 1058.66 286.144 1057.83 285.557C1061.35 284.196 1063.98 282.578 1065.69 280.688C1067.41 278.797 1068.59 276.663 1069.23 274.286C1069.88 271.923 1070.31 269.359 1070.52 266.61H1064.29V253.405L1058.38 255.768C1058.18 254.68 1057.83 253.448 1057.36 252.045C1056.89 250.641 1056.34 249.195 1055.73 247.705V292.174H1044.83V247.977C1044.63 250.555 1044.24 253.09 1043.7 255.596C1043.15 258.103 1042.38 260.294 1041.4 262.199L1034.16 259.42C1034.93 257.974 1035.59 256.255 1036.11 254.236C1036.62 252.231 1037.01 250.111 1037.27 247.877C1037.52 245.643 1037.65 243.509 1037.65 241.475L1044.81 242.292V227.87H1055.71V240.931L1059.36 239.571C1060.29 241.103 1061.21 242.75 1062.08 244.512C1062.97 246.273 1063.69 247.934 1064.26 249.524V241.533H1070.56C1069.83 239.957 1068.89 238.296 1067.73 236.563C1066.57 234.83 1065.32 233.24 1064.03 231.794L1072.75 228.214C1074.47 230.018 1076.11 232.009 1077.65 234.2C1079.21 236.391 1080.3 238.368 1080.92 240.129L1077.57 241.547H1091.27L1087.53 239.986C1088.72 238.31 1089.95 236.32 1091.23 234C1092.5 231.679 1093.51 229.546 1094.22 227.598L1105.44 231.722C1104.09 233.441 1102.77 235.145 1101.5 236.864C1100.22 238.582 1098.99 240.143 1097.8 241.533H1105.19V266.581H1095.93V280.587C1095.93 281.633 1095.98 282.263 1096.08 282.521C1096.18 282.764 1096.5 282.893 1097.02 282.893H1098.81L1098.86 282.922Z" fill="white"/>
</svg>
