<svg width="496" height="539" viewBox="0 0 496 539" fill="none" xmlns="http://www.w3.org/2000/svg">
<path fill-rule="evenodd" clip-rule="evenodd" d="M30.506 478.156V522.66C30.506 530.401 33.9684 534.057 40.9225 533.628C46.8789 533.209 51.3389 529.543 54.3123 522.66C58.7723 512.336 59.0168 501.602 55.0556 490.41C52.0822 482.25 46.1258 478.156 37.196 478.156H30.4962H30.506ZM30.506 472.999H37.2058C48.6101 472.999 54.5666 465.258 55.0654 449.776C55.5544 436.878 52.5811 428.494 46.1356 424.624C38.6925 422.04 33.7336 423.122 31.2591 427.851L30.5158 433.008V472.999H30.506ZM0 538.785V534.272C6.44549 533.852 9.6731 530.187 9.6731 523.304V430.434C9.6731 425.277 6.44549 422.489 0 422.05V417.536H42.4091C54.8013 417.536 63.7311 420.549 69.1985 426.564C73.1597 431.302 75.3994 436.878 75.8983 443.332C76.8861 451.502 75.1549 458.599 70.6852 464.614C66.2252 471.068 58.5277 474.929 47.6222 476.226C57.0411 477.093 63.9952 479.024 68.4552 482.026C73.4042 485.039 76.6416 490.196 78.1283 497.508C79.1161 503.104 79.1161 508.69 78.1283 514.276C76.1428 523.304 72.9152 529.105 68.4552 531.688C62.4987 536.426 55.0654 538.785 46.1356 538.785H0Z" fill="url(#paint0_linear_1361_10395)" fill-opacity="0.34"/>
<path fill-rule="evenodd" clip-rule="evenodd" d="M112.36 492.195H139.668C140.705 477.912 139.14 468.319 134.983 463.425C128.743 458.131 122.757 458.736 117.035 465.258C114.952 468.534 113.651 472.404 113.133 476.889C112.605 479.745 112.35 484.844 112.35 492.195H112.36ZM154.456 513.565L159.953 513.613C154.222 524.63 147.727 531.981 140.45 535.656C134.719 538.503 128.225 539.331 120.948 538.103C115.744 537.284 110.805 535.256 106.12 531.981C98.3152 525.858 93.3661 517.503 91.2926 506.877C89.7277 497.488 90.7645 488.314 94.4127 479.326C100.653 463.825 111.314 455.86 126.405 455.45C137.839 455.051 146.945 459.74 153.713 469.528C158.398 476.06 160.736 485.243 160.736 497.079H112.36C112.869 509.324 114.434 517.893 117.045 522.787C120.165 528.091 124.576 530.957 130.308 531.357C136.03 531.766 141.487 529.319 146.691 524.006C149.811 520.75 154.456 513.545 154.456 513.545V513.565Z" fill="url(#paint1_linear_1361_10395)" fill-opacity="0.34"/>
<path fill-rule="evenodd" clip-rule="evenodd" d="M166.624 460.627V455.577C173.911 453.471 179.495 449.689 183.388 444.21C186.782 439.16 189.217 432.209 190.675 423.366H197.961V455.577H216.183V460.627H197.961V519.365C197.961 523.158 198.93 525.683 200.876 526.94C205.727 529.465 209.366 527.574 211.811 521.257C213.747 516.626 214.96 510.942 215.459 504.206H220.565C220.076 512.639 218.853 519.365 216.916 524.415C214.002 531.581 208.652 536.202 200.886 538.308C191.653 539.985 185.09 537.674 181.207 531.357C179.75 528.832 179.016 524.835 179.016 519.356V460.617H166.624V460.627Z" fill="url(#paint2_linear_1361_10395)" fill-opacity="0.34"/>
<path fill-rule="evenodd" clip-rule="evenodd" d="M234.531 538.786V534.915C242.463 533.628 246.434 529.543 246.434 522.661V472.355C246.434 465.901 242.463 462.255 234.531 461.388V457.517L265.781 455.314V472.999C273.713 460.53 282.897 454.729 293.313 455.587C299.759 456.455 303.73 459.243 305.216 463.971C306.703 472.58 303.231 477.513 294.8 478.799C288.844 479.228 284.628 477.298 282.154 472.999C281.156 469.996 281.156 466.984 282.154 463.971C279.18 465.258 276.686 466.984 274.71 469.128C270.739 473.428 267.756 480.311 265.781 489.767V522.661C265.781 526.96 266.768 529.972 268.754 531.688C270.241 533.843 273.458 534.915 278.427 534.915V538.786H234.531Z" fill="url(#paint3_linear_1361_10395)" fill-opacity="0.34"/>
<path fill-rule="evenodd" clip-rule="evenodd" d="M342.06 455.528V468.699C350.491 460.101 359.421 455.587 368.85 455.158C376.293 454.739 382.484 456.883 387.453 461.612C391.414 465.482 393.409 470.864 393.409 477.737V526.102C393.409 531.259 397.126 534.272 404.569 535.13L403.825 539H363.646V535.13C370.591 534.71 374.063 531.698 374.063 526.102V477.737C374.063 473.866 372.821 470.864 370.346 468.709C367.373 466.126 363.891 465.277 359.93 466.126C353.973 466.993 348.516 471.283 343.557 479.024V526.745C343.557 531.483 346.53 534.272 352.486 535.13L353.23 539H313.794V535.13C320.738 534.71 324.21 531.903 324.21 526.745V474.51C324.21 468.066 320.738 464.41 313.794 463.542V459.028L342.07 455.528H342.06Z" fill="url(#paint4_linear_1361_10395)" fill-opacity="0.34"/>
<path fill-rule="evenodd" clip-rule="evenodd" d="M413.489 538.785V534.915C419.935 534.915 423.162 532.127 423.162 526.531V430.434C423.162 427.003 422.419 424.848 420.932 423.98C419.935 423.122 417.46 422.479 413.489 422.05V418.18L442.509 412.379V498.795L466.315 472.355C468.789 469.772 469.533 466.983 468.545 463.971C468.046 461.826 464.564 460.539 458.128 460.101V455.587H492.351V460.101C486.884 460.968 482.678 463.113 479.705 466.545L462.588 485.253L483.421 525.887C485.896 530.625 489.867 533.628 495.324 534.915V538.785H458.119V534.915C463.567 533.628 465.063 530.83 462.579 526.531L448.446 500.091L442.489 505.892V526.531C442.489 529.543 443.232 531.688 444.719 532.975C445.707 533.843 448.181 534.486 452.162 534.905V538.776H413.47L413.489 538.785Z" fill="url(#paint5_linear_1361_10395)" fill-opacity="0.34"/>
<g style="mix-blend-mode:color-dodge" opacity="0.41">
<path fill-rule="evenodd" clip-rule="evenodd" d="M479.283 0L247.192 367.303L15.6504 0.545824L479.283 0Z" fill="#195C4E"/>
<path fill-rule="evenodd" clip-rule="evenodd" d="M163.668 106.511H197.227L241.984 62.2583V28.1943L163.668 106.511Z" fill="#57AC71"/>
<path fill-rule="evenodd" clip-rule="evenodd" d="M163.668 149.584H197.227L241.984 105.332V71.2676L163.668 149.584Z" fill="#57AC71"/>
<path fill-rule="evenodd" clip-rule="evenodd" d="M163.668 192.658H197.227L241.984 148.405V114.341L163.668 192.658Z" fill="#57AC71"/>
<path fill-rule="evenodd" clip-rule="evenodd" d="M325.783 106.511H292.224L247.467 62.2583V28.1943L325.783 106.511Z" fill="#8DC5A3"/>
<path fill-rule="evenodd" clip-rule="evenodd" d="M325.783 149.584H292.224L247.467 105.332V71.2676L325.783 149.584Z" fill="#8DC5A3"/>
<path fill-rule="evenodd" clip-rule="evenodd" d="M325.783 192.658H292.224L247.467 148.405V114.341L325.783 192.658Z" fill="#8DC5A3"/>
</g>
<defs>
<linearGradient id="paint0_linear_1361_10395" x1="39.4346" y1="417.536" x2="39.4346" y2="538.785" gradientUnits="userSpaceOnUse">
<stop offset="0.36" stop-color="#195C4E"/>
<stop offset="1" stop-color="#27B947"/>
</linearGradient>
<linearGradient id="paint1_linear_1361_10395" x1="125.661" y1="455.427" x2="125.661" y2="538.654" gradientUnits="userSpaceOnUse">
<stop offset="0.36" stop-color="#195C4E"/>
<stop offset="1" stop-color="#27B947"/>
</linearGradient>
<linearGradient id="paint2_linear_1361_10395" x1="193.594" y1="423.366" x2="193.594" y2="538.837" gradientUnits="userSpaceOnUse">
<stop offset="0.36" stop-color="#195C4E"/>
<stop offset="1" stop-color="#27B947"/>
</linearGradient>
<linearGradient id="paint3_linear_1361_10395" x1="270.041" y1="455.314" x2="270.041" y2="538.786" gradientUnits="userSpaceOnUse">
<stop offset="0.36" stop-color="#195C4E"/>
<stop offset="1" stop-color="#27B947"/>
</linearGradient>
<linearGradient id="paint4_linear_1361_10395" x1="359.181" y1="455.106" x2="359.181" y2="539" gradientUnits="userSpaceOnUse">
<stop offset="0.36" stop-color="#195C4E"/>
<stop offset="1" stop-color="#27B947"/>
</linearGradient>
<linearGradient id="paint5_linear_1361_10395" x1="454.397" y1="412.379" x2="454.397" y2="538.785" gradientUnits="userSpaceOnUse">
<stop offset="0.36" stop-color="#195C4E"/>
<stop offset="1" stop-color="#27B947"/>
</linearGradient>
</defs>
</svg>
