<svg width="408" height="360" viewBox="0 0 408 360" fill="none" xmlns="http://www.w3.org/2000/svg">
<path d="M380.089 4.28304C365.366 -2.85601 349.665 -0.874448 345.023 8.70763C340.382 18.2897 348.547 31.8403 363.27 38.974C377.993 46.113 393.694 44.1315 398.336 34.5494C402.977 24.9673 394.812 11.4167 380.089 4.28304Z" fill="#F2F4F9"/>
<path d="M0.480805 333.619C-6.77226 353.375 69.8572 364.645 107.393 358.158C144.929 351.67 191.384 358.635 227.752 358.891C264.121 359.146 407.982 347.066 407.982 336.046C407.982 318.201 7.99989 313.146 0.480805 333.619Z" fill="#DAE7F2"/>
<path d="M11.1055 18.192C16.1544 15.7435 21.7028 16.7696 23.4998 20.483C25.2967 24.1964 22.6637 29.1856 17.6202 31.634C12.5713 34.0825 7.02294 33.0564 5.22596 29.343C3.42898 25.6296 6.06202 20.6404 11.1055 18.192Z" fill="#F2F4F9"/>
<path opacity="0.2" d="M359.052 16.7588L54.7271 17.204C43.8476 17.2202 35.0147 25.722 34.9984 36.1998L34.9767 47.1174L34.6238 226.397L34.6021 237.315C34.5858 247.787 43.3752 256.267 54.2548 256.251L358.579 255.806C369.459 255.79 378.292 247.288 378.308 236.81L378.33 225.892L378.677 46.6125L378.699 35.6949C378.715 25.2225 369.926 16.7425 359.046 16.7642L359.052 16.7588Z" fill="black"/>
<path d="M373.378 25.9011L373.357 36.8187L29.645 37.3236L29.6667 26.406C29.683 15.9281 38.5213 7.42643 49.3955 7.41014L353.72 6.96497C364.6 6.94868 373.395 15.4287 373.373 25.8957L373.378 25.9011Z" fill="#444444"/>
<path d="M373.009 216.099L373.357 36.8187L29.6451 37.3236L29.2976 216.603L29.2759 227.521C29.2596 237.993 38.0491 246.473 48.9287 246.457L353.253 246.012C364.133 245.996 372.966 237.494 372.982 227.016L373.004 216.099H373.009Z" fill="#F2F4F9"/>
<path opacity="0.5" d="M373.357 36.8187L373.004 216.099L372.987 227.016C372.971 237.499 364.138 245.996 353.259 246.012L48.9287 246.457C38.0491 246.479 29.2596 237.999 29.2759 227.526V224.204L325.164 223.797C336.044 223.78 344.876 215.284 344.898 204.801L344.914 193.883L345.224 36.8947L373.357 36.8241V36.8187Z" fill="#E3E3E3"/>
<path opacity="0.25" fill-rule="evenodd" clip-rule="evenodd" d="M55.8832 22.4374C55.9864 24.5819 54.336 26.406 52.1915 26.5091C50.0471 26.6123 48.223 24.9619 48.1198 22.8175C48.0167 20.673 49.6671 18.8489 51.8115 18.7458C53.9559 18.6426 55.7801 20.293 55.8832 22.4374Z" fill="#55AC72"/>
<path fill-rule="evenodd" clip-rule="evenodd" d="M54.9926 21.4439C55.0957 23.5884 53.4453 25.4125 51.3009 25.5156C49.1565 25.6188 47.3323 23.9684 47.2292 21.824C47.126 19.6795 48.7764 17.8554 50.9209 17.7523C53.0653 17.6491 54.8894 19.2995 54.9926 21.4439Z" fill="#55AC72"/>
<path opacity="0.25" fill-rule="evenodd" clip-rule="evenodd" d="M68.7826 22.7197C68.8858 24.8642 67.2354 26.6883 65.0909 26.7914C62.9465 26.8946 61.1224 25.2442 61.0192 23.0998C60.9161 20.9553 62.5665 19.1312 64.7109 19.0281C66.8553 18.9249 68.6795 20.5753 68.7826 22.7197Z" fill="#55AC72"/>
<path fill-rule="evenodd" clip-rule="evenodd" d="M67.8871 21.7208C67.9903 23.8653 66.3399 25.6894 64.1954 25.7925C62.051 25.8957 60.2269 24.2453 60.1237 22.1009C60.0206 19.9564 61.671 18.1323 63.8154 18.0292C65.9598 17.926 67.784 19.5764 67.8871 21.7208Z" fill="#499663"/>
<path opacity="0.25" fill-rule="evenodd" clip-rule="evenodd" d="M81.6815 23.002C81.7847 25.1465 80.1343 26.9706 77.9899 27.0738C75.8454 27.1769 74.0213 25.5265 73.9182 23.3821C73.815 21.2376 75.4654 19.4135 77.6098 19.3104C79.7543 19.2072 81.5784 20.8576 81.6815 23.002Z" fill="#55AC72"/>
<path fill-rule="evenodd" clip-rule="evenodd" d="M80.786 22.0031C80.8892 24.1475 79.2388 25.9717 77.0944 26.0748C74.9499 26.178 73.1258 24.5276 73.0226 22.3831C72.9195 20.2387 74.5699 18.4146 76.7143 18.3114C78.8588 18.2083 80.6829 19.8587 80.786 22.0031Z" fill="#499663"/>
<path opacity="0.2" d="M294.045 254.823H284.637V298.423H294.045V254.823Z" fill="#195C4E"/>
<path opacity="0.2" d="M383.427 254.823H374.019V298.423H383.427V254.823Z" fill="#195C4E"/>
<path d="M289.333 254.823H275.707V334.612H289.333V254.823Z" fill="#DAE7F2"/>
<path d="M378.498 254.823H364.866V334.612H378.498V254.823Z" fill="#DAE7F2"/>
<path d="M289.339 254.823V259.519C283.845 259.345 279.197 259.21 275.701 259.107V254.818H289.339V254.823Z" fill="#0F382F"/>
<path d="M378.504 254.823H364.866V259.438H378.504V254.823Z" fill="#0F382F"/>
<path d="M262.617 250.925L271.428 232.141H262.617V250.925Z" fill="#55AC72"/>
<path d="M271.428 232.141L262.617 250.925V257.288H276.711L288.486 232.141H271.428Z" fill="#195C4E"/>
<path d="M305.468 232.141L293.677 257.288H276.603L288.394 232.141H305.468Z" fill="#55AC72"/>
<path d="M322.532 232.141L310.751 257.288H293.677L305.468 232.141H322.532Z" fill="#195C4E"/>
<path d="M339.507 232.141L327.715 257.288H310.641L322.433 232.141H339.507Z" fill="#55AC72"/>
<path d="M356.569 232.141L344.794 257.288H327.714L339.506 232.141H356.569Z" fill="#195C4E"/>
<path d="M373.547 232.141L361.761 257.288H344.687L356.473 232.141H373.547Z" fill="#55AC72"/>
<path d="M390.61 232.141L378.835 257.288H361.761L373.547 232.141H390.61Z" fill="#195C4E"/>
<path d="M391.587 232.141H390.512L378.726 257.288H391.587V232.141Z" fill="#55AC72"/>
<path d="M50.0527 333.603L51.2796 325.98H96.9479L98.1748 333.603C98.202 333.695 98.2183 333.787 98.2183 333.879C98.2183 336.48 87.4255 338.586 74.1138 338.586C60.802 338.586 50.0093 336.48 50.0093 333.879C50.0093 333.787 50.0256 333.695 50.0527 333.603Z" fill="#144A3F"/>
<path opacity="0.5" d="M50.0142 333.874C50.0142 336.469 60.8069 338.575 74.1132 338.575C87.4195 338.575 98.2231 336.469 98.2231 333.874C98.2231 333.782 98.2123 333.689 98.1743 333.592L98.044 332.821C87.2187 339.031 68.5431 336.61 65.9481 334.504C64.1457 333.043 65.3889 328.972 66.4964 325.969H51.2737L50.0467 333.592C50.025 333.684 50.0142 333.776 50.0142 333.874Z" fill="#195C4E"/>
<path d="M51.2793 325.975C51.2793 328.434 61.502 330.432 74.1134 330.432C86.7248 330.432 96.9475 328.434 96.9475 325.975C96.9475 323.516 86.7248 321.518 74.1134 321.518C61.502 321.518 51.2793 323.516 51.2793 325.975Z" fill="#195C4E"/>
<path d="M71.7188 274.085C72.6363 271.164 75.5516 271.164 76.4691 274.085L92.4736 325.177C86.1978 328.972 63.8414 329.818 55.7197 325.177L71.7242 274.085H71.7188Z" fill="#55AC72"/>
<path d="M92.1703 324.21C87.9249 325.953 80.8781 326.93 73.7988 326.93C67.1537 326.93 60.4816 326.078 56.0244 324.21L57.7834 318.575C65.4708 322.332 84.6186 321.382 90.4005 318.575L92.1703 324.21Z" fill="#F1D157"/>
<path opacity="0.5" d="M65.7637 327.902C63.8201 317.402 70.932 282.652 73.1905 272.131C72.5716 272.435 72.0341 273.091 71.7192 274.085L55.7256 325.182C58.098 326.55 61.7137 327.43 65.7691 327.907L65.7637 327.902Z" fill="#195C4E"/>
<path d="M245.391 128.204L236.992 127.428C236.118 123.242 234.457 119.349 232.188 115.88L237.595 109.376C237.98 108.926 237.942 108.247 237.524 107.829L230.483 100.788C230.065 100.37 229.386 100.332 228.93 100.712L222.437 106.13C218.974 103.85 215.081 102.199 210.89 101.325L210.114 92.9159C210.059 92.3242 209.571 91.8736 208.968 91.8736H199.012C198.42 91.8736 197.931 92.3242 197.871 92.9159L197.095 101.325C192.899 102.199 189.017 103.85 185.542 106.13L179.049 100.712C178.593 100.332 177.915 100.37 177.497 100.788L170.455 107.829C170.026 108.247 169.999 108.926 170.385 109.376L175.803 115.88C173.523 119.349 171.861 123.242 170.987 127.428L162.589 128.204C161.997 128.258 161.541 128.752 161.541 129.355V139.312C161.541 139.909 161.997 140.397 162.589 140.452L170.987 141.228C171.861 145.425 173.523 149.317 175.803 152.786L170.385 159.285C169.999 159.741 170.026 160.419 170.455 160.837L177.497 167.868C177.915 168.291 178.582 168.324 179.049 167.944L185.542 162.537H185.548C189.006 164.811 192.899 166.467 197.095 167.347L197.225 175.729C197.236 176.348 197.757 176.858 198.376 176.858H209.609C210.239 176.858 210.749 176.348 210.76 175.729L210.896 167.347C212.774 166.956 219.598 165.387 222.443 162.537L228.936 167.944C229.392 168.324 230.071 168.291 230.489 167.868L237.53 160.837C237.948 160.419 237.986 159.741 237.6 159.285L232.193 152.786C234.463 149.323 236.124 145.425 236.998 141.228L245.402 140.452C245.994 140.397 246.45 139.909 246.45 139.312V129.355C246.45 128.752 245.994 128.258 245.402 128.204H245.391ZM203.99 157.531C191.194 157.531 180.814 147.156 180.814 134.36C180.814 121.564 191.194 111.195 203.99 111.195C216.786 111.195 227.161 121.564 227.161 134.36C227.161 147.156 216.78 157.531 203.99 157.531Z" fill="#C1D9EA"/>
<path d="M203.99 111.195C191.194 111.195 180.813 121.564 180.813 134.36C180.813 147.156 191.194 157.531 203.99 157.531C216.786 157.531 227.16 147.156 227.16 134.36C227.16 121.564 216.78 111.195 203.99 111.195ZM203.99 151.543C194.5 151.543 186.807 143.85 186.807 134.36C186.807 124.871 194.505 117.183 203.99 117.183C213.474 117.183 221.172 124.871 221.172 134.36C221.172 143.85 213.474 151.543 203.99 151.543Z" fill="#DAE7F2"/>
<path d="M296.173 111.195L298.713 108.079C299.37 107.275 299.169 106.146 298.268 105.56C297.367 104.974 296.107 105.153 295.45 105.956L293.675 108.133L291.9 105.956C291.243 105.153 289.984 104.974 289.082 105.56C288.181 106.146 287.98 107.27 288.637 108.073L291.178 111.195L288.637 114.311C287.98 115.115 288.181 116.244 289.082 116.83C289.984 117.417 291.243 117.238 291.9 116.434L293.675 114.257L295.45 116.434C296.107 117.238 297.367 117.417 298.268 116.83C299.169 116.244 299.365 115.12 298.713 114.311L296.173 111.19V111.195Z" fill="#DAE7F2"/>
<path d="M165.916 61.6887L167.849 59.3162C168.348 58.7027 168.196 57.845 167.512 57.3998C166.828 56.9546 165.867 57.0903 165.368 57.6984L164.016 59.3542L162.664 57.6984C162.165 57.0849 161.204 56.9492 160.52 57.3944C159.836 57.8395 159.684 58.6973 160.183 59.3108L162.116 61.6832L160.183 64.0557C159.684 64.6691 159.836 65.5269 160.52 65.9721C161.204 66.4173 162.165 66.2815 162.664 65.6735L164.016 64.0177L165.368 65.6735C165.867 66.287 166.828 66.4227 167.512 65.9775C168.196 65.5323 168.348 64.6746 167.849 64.0611L165.916 61.6887Z" fill="#DAE7F2"/>
<path d="M52.5006 199.063L55.0414 195.946C55.6983 195.143 55.4974 194.014 54.5962 193.427C53.695 192.841 52.4355 193.02 51.7786 193.824L50.0033 196.001L48.2281 193.824C47.5711 193.02 46.3116 192.841 45.4104 193.427C44.5092 194.014 44.3084 195.137 44.9653 195.946L47.506 199.068L44.9653 202.184C44.3084 202.988 44.5092 204.117 45.4104 204.703C46.3116 205.289 47.5711 205.11 48.2281 204.307L50.0033 202.13L51.7786 204.307C52.4355 205.11 53.695 205.289 54.5962 204.703C55.4974 204.117 55.6928 202.993 55.0414 202.19L52.5006 199.068V199.063Z" fill="#DAE7F2"/>
<path opacity="0.1" d="M374.268 182.613L347.069 135.506C344.099 130.365 336.678 130.365 333.708 135.506L306.509 182.613C303.54 187.754 307.253 194.182 313.192 194.182H367.585C373.524 194.182 377.238 187.754 374.268 182.613Z" fill="#195C4E"/>
<path d="M380.788 178.796L353.589 131.689C350.619 126.548 343.198 126.548 340.228 131.689L313.029 178.796C310.06 183.938 313.773 190.371 319.712 190.371H374.105C380.044 190.371 383.758 183.943 380.788 178.796Z" fill="#55AC72"/>
<path d="M352.042 171.158L362.579 139.735C363.546 136.852 361.863 133.747 358.915 132.982C358.866 132.971 358.817 132.954 358.768 132.944C355.826 132.178 352.861 134.067 352.297 137.053L346.119 169.692L352.042 171.163V171.158Z" fill="#F1D157"/>
<path d="M348.084 174.209C345.625 173.601 343.003 175.083 342.367 177.651C341.759 180.11 343.383 182.645 345.836 183.259C348.404 183.9 351.026 182.412 351.64 179.953C352.281 177.385 350.657 174.844 348.084 174.209Z" fill="#F1D157"/>
<path opacity="0.1" d="M289.132 58.9199L271.309 28.0455C269.36 24.6741 264.495 24.6741 262.552 28.0455L244.728 58.9199C242.785 62.2912 245.217 66.5041 249.11 66.5041H284.761C288.654 66.5041 291.086 62.2912 289.143 58.9199H289.132Z" fill="#195C4E"/>
<path d="M293.632 56.1728L275.809 25.2985C273.86 21.9271 268.996 21.9271 267.052 25.2985L249.229 56.1728C247.28 59.5442 249.717 63.7571 253.61 63.7571H289.262C293.154 63.7571 295.587 59.5442 293.643 56.1728H293.632Z" fill="#55AC72"/>
<path d="M274.795 51.1674L281.7 30.57C282.336 28.6807 281.228 26.6448 279.301 26.1454C279.268 26.1345 279.236 26.1291 279.208 26.1182C277.281 25.6188 275.338 26.8511 274.968 28.811L270.918 50.201L274.8 51.1619L274.795 51.1674Z" fill="#F1D157"/>
<path d="M272.2 53.1652C270.587 52.7635 268.872 53.7353 268.454 55.4237C268.052 57.0361 269.116 58.6973 270.728 59.0991C272.411 59.5171 274.132 58.5453 274.529 56.9329C274.947 55.2499 273.883 53.5832 272.2 53.1652Z" fill="#F1D157"/>
<path d="M189.694 186.554C188.977 185.946 187.05 183.861 186.866 183.856C186.681 183.856 176.447 194.204 176.513 194.975C176.578 195.74 179.004 199.491 180.139 199.025C181.274 198.563 189.694 186.554 189.694 186.554Z" fill="#195C4E"/>
<path d="M189.395 219.817C182.506 208.726 173.679 206.082 171.17 205.545L171.339 205.355C171.339 205.355 186.339 183.237 193.451 178.091C194.835 177.086 199.846 175.658 199.846 175.658C199.846 175.658 200.221 204.589 189.401 219.823L189.395 219.817Z" fill="#444444"/>
<path d="M164.2 236.864C158.407 235.968 107.728 202.483 107.728 202.483C107.728 202.483 104.367 200.485 105.355 198.921C106.284 197.466 107.12 197.238 107.641 197.51C107.044 197.124 105.345 196.125 106.3 194.877C107.234 193.639 107.56 193.525 108.222 193.883C107.484 193.395 106.501 192.77 107.522 191.299C107.923 190.724 108.586 190.751 109.009 191.033C108.651 190.756 103.499 185.794 104.747 184.453C105.518 183.623 112.69 188.693 115.763 190.778C116.338 190.441 115.676 185.365 117.565 186.191C119.536 187.054 120.719 195.387 120.719 195.387L163.543 215.974L173.44 206.196C175.986 206.506 181.518 207.749 189.39 218.167C183.516 227.434 168.809 237.581 164.2 236.87V236.864Z" fill="#D7A28E"/>
<path d="M164.194 236.864C163.114 236.696 160.698 235.485 157.484 233.629C170.448 233.596 180.204 221.316 185.09 213.362C186.534 214.72 187.973 216.305 189.384 218.167C183.51 227.429 168.803 237.581 164.194 236.864Z" fill="#CE9784"/>
<path d="M162.794 215.583C166.561 217.081 166.887 223.004 165.769 223.02C164.645 223.031 162.142 215.328 162.794 215.583Z" fill="#CE9784"/>
<path d="M162.642 216.375C164.536 218.449 162.951 222.239 162.251 221.907C161.551 221.576 162.316 216.017 162.642 216.375Z" fill="#CE9784"/>
<path d="M171.66 203.232C171.66 203.232 169.874 205.366 169.993 206.44C170.112 207.51 179.586 210.018 183.256 214.258C186.926 218.498 187.957 221.799 189.201 221.115C190.444 220.431 192.925 218.091 192.724 217.076C192.523 216.055 183.674 203.579 171.66 203.237V203.232Z" fill="#195C4E"/>
<path d="M237.193 322.223C239.256 322.164 244.886 325.215 246.389 322.316C247.893 319.417 248.789 315.405 250.412 316.626C252.036 317.848 286.026 330.834 288.116 334.422C290.206 338.011 238.425 341.241 237.904 339.672C237.383 338.098 237.193 322.223 237.193 322.223Z" fill="#195C4E"/>
<path d="M251.569 315.535C249.224 314.65 249.126 316.756 249.126 316.756C249.718 317.658 282.367 334.373 285.418 334.938C288.469 335.503 289.186 335.66 289.371 333.874C289.555 332.082 253.909 316.42 251.564 315.535H251.569Z" fill="#0F382F"/>
<path d="M239.142 321.615C236.672 321.615 206.183 316.393 206.183 316.393C206.183 316.393 242.855 300.394 227.616 262.168H181.714C179.961 265.524 181.546 275.149 173.815 282.044C135.758 316.002 138.945 325.155 146.198 334.042C163.218 354.906 242.546 340.345 242.546 340.345C242.546 340.345 241.617 321.615 239.147 321.615H239.142Z" fill="black"/>
<path opacity="0.5" d="M242.54 340.345C242.54 340.345 207.849 346.187 173.609 344.509C154.494 339.183 153.576 334.656 155.335 327.853C160.922 306.241 190.238 283.428 190.52 280.915C190.775 278.618 184.787 276.626 179.668 272.207C180.802 267.945 180.726 264.058 181.714 262.168H227.616C242.855 300.399 206.188 316.393 206.188 316.393C206.188 316.393 236.672 321.615 239.142 321.615C241.612 321.615 242.54 340.345 242.54 340.345Z" fill="#195C4E"/>
<path d="M195.775 269.698C196.242 270.676 197.453 276.398 197.496 278.358C197.545 280.312 179.298 297.158 179.347 296.789C179.396 296.414 195.124 279.894 194.798 278.499C194.472 277.103 192.567 269.704 192.567 269.704H195.781L195.775 269.698Z" fill="#195C4E"/>
<path d="M250.336 324.536C252.339 324.476 257.817 327.446 259.277 324.628C260.738 321.811 261.612 317.907 263.186 319.096C264.761 320.285 297.818 332.913 299.848 336.398C301.884 339.889 251.53 343.027 251.025 341.502C250.521 339.971 250.331 324.536 250.331 324.536H250.336Z" fill="#195C4E"/>
<path d="M264.316 318.032C262.036 317.175 261.943 319.221 261.943 319.221C262.519 320.095 294.267 336.35 297.231 336.898C300.196 337.452 300.896 337.604 301.075 335.861C301.254 334.118 266.596 318.89 264.316 318.032Z" fill="#0F382F"/>
<path d="M252.231 323.944C249.826 323.944 228.186 317.267 228.186 317.267C228.186 317.267 263.843 301.707 249.022 264.536H199.043C197.339 267.798 204.223 277.158 196.703 283.863C159.694 316.881 153.761 328.445 160.807 337.082C177.36 357.37 255.526 342.148 255.526 342.148C255.526 342.148 254.625 323.939 252.22 323.939L252.231 323.944Z" fill="black"/>
<path opacity="0.5" d="M221.091 264.536H249.028C262.394 298.065 234.701 314.009 229.142 316.811L201.454 314.498C241.699 307.43 228.403 277.011 221.096 264.541L221.091 264.536Z" fill="#195C4E"/>
<path opacity="0.5" d="M255.537 342.153C255.537 342.153 177.371 357.376 160.824 337.082C160.579 336.784 160.357 336.485 160.145 336.181C192.74 344.216 238.968 338.679 255.206 337.327C255.434 340.074 255.537 342.148 255.537 342.148V342.153Z" fill="#195C4E"/>
<path d="M181.362 267.929C187.361 273.222 244.479 267.874 247.503 264.536C250.532 261.197 224.755 182.743 222.719 181.598C220.684 180.452 214.989 165.376 198.778 175.468C191.704 178.623 181.362 267.923 181.362 267.923V267.929Z" fill="#444444"/>
<path d="M189.526 138.801C189.526 138.801 186.578 142.097 187.61 145.012C188.641 147.933 205.15 151.543 205.15 151.543L207.724 163.905C207.724 163.905 210.465 166.158 211.464 161.977C211.464 161.977 214.852 161.863 213.717 156.12C213.717 156.12 215.351 153.948 216.307 149.599C215.943 148.248 216.54 146.201 215.015 143.296C213.489 140.397 197.398 136.179 189.531 138.796L189.526 138.801Z" fill="#0F382F"/>
<path d="M201.572 157.862L200.27 176.147C200.27 176.147 209.678 180.316 213.207 172.195L210.004 154.6L201.572 157.862Z" fill="#D7A28E"/>
<path d="M207.637 161.549C207.637 161.549 207.653 173.503 200.265 175.452L201.068 165.881L207.637 161.549Z" fill="#CE9784"/>
<path d="M210.537 145.359C210.493 146.364 210.276 156.701 210.276 156.701C208.501 163.557 204.049 169.008 196.546 168.373C188.886 167.727 186.117 154.214 188.718 141.342C195.205 138.248 205.759 143.21 205.759 143.21C206.78 146.326 208.924 149.784 210.542 145.359H210.537Z" fill="#D7A28E"/>
<path d="M208.099 144.122C208.099 144.122 207.002 155.843 205.553 158.948C204.103 162.053 204.103 159.567 199.445 158.432C194.787 157.292 188.055 158.432 189.195 161.538C190.335 164.643 191.161 169.719 199.657 169.306C208.148 168.894 210.531 154.6 210.531 154.6L210.629 145.653L208.104 144.122H208.099Z" fill="#0F382F"/>
<path d="M213.001 171.19C213.001 171.19 209.744 176.413 204.679 175.87C200.536 175.425 200.482 173.069 200.482 173.069C200.482 173.069 199.575 175.072 199.331 175.637C199.418 176.478 199.869 180.311 205.097 180.11C213.088 179.795 215.678 173.628 215.678 173.628L213.007 171.19H213.001Z" fill="#195C4E"/>
<path d="M217.854 147.45C217.854 147.45 221.345 131.641 211.014 128.307C200.682 124.974 193.196 129.127 193.196 129.127L187.914 136.407C187.914 136.407 209.228 140.37 217.854 147.45Z" fill="#D9B83A"/>
<path opacity="0.5" d="M217.86 147.455C209.222 140.37 187.914 136.407 187.914 136.407L193.201 129.121C193.201 129.121 196.638 127.211 202.078 127.015C197.213 129.914 195.205 135.381 196.92 136.282C199.352 137.58 213.685 142.227 215.623 140.251C217.078 138.801 216.231 134.246 215.742 131.646C220.069 137.406 217.865 147.45 217.865 147.45L217.86 147.455Z" fill="#F1D157"/>
<path d="M203.625 136.847C203.625 136.847 205.726 129.458 210.471 128.139C210.471 128.139 204.113 126.016 198.359 127.151C193.467 128.112 190.764 135.707 190.764 135.707L203.63 136.847H203.625Z" fill="#D9B83A"/>
<path d="M194.108 132.395L203.495 133.416C203.495 133.416 206.725 126.564 210.97 128.334L208.63 125.332L202.311 124.67L197.517 127.135L194.135 131.771L194.103 132.395H194.108Z" fill="#F1D157"/>
<path d="M198.088 127.091C198.088 127.091 203.946 127.683 205.064 127.786C204.939 127.981 203.18 131.114 203.093 132.259L194.749 131.63C194.749 131.63 200.721 131.592 201.524 130.908C202.328 130.224 203.05 129.67 202.165 128.812C201.28 127.949 198.088 127.091 198.088 127.091Z" fill="#D9B83A"/>
<path d="M198.777 126.787C198.777 126.787 205.009 127.498 205.112 127.449C205.216 127.401 208.31 125.517 208.25 125.511C208.191 125.506 202.507 124.849 202.507 124.849L198.777 126.782V126.787Z" fill="#D9B83A"/>
<path d="M205.221 139.111C205.221 139.111 218.321 144.985 218.582 147.004C218.842 149.024 215.688 151.152 215.688 151.152L216.122 149.523C216.122 149.523 209.624 144.599 206.464 143.275C203.305 141.95 205.226 139.116 205.226 139.116L205.221 139.111Z" fill="#F1D157"/>
<path d="M209.282 154.453C208.017 152.705 209.217 147.596 210.563 145.908C211.47 144.773 214.82 144.914 215.764 147.536C216.758 150.289 214.38 153.579 211.725 154.795C210.857 155.191 209.771 155.126 209.282 154.453Z" fill="#D7A28E"/>
<path d="M210.906 150.946C211.112 149.708 214.185 147.732 214.38 148.166C214.38 148.166 212.214 149.648 212.296 150.322C212.372 151 213.067 151.103 212.377 151.5C211.688 151.896 210.738 151.966 210.906 150.946Z" fill="#0F382F"/>
<path d="M182.946 137.824C182.946 137.824 182.724 135.967 183.516 135.37C184.314 134.773 192.517 132.911 200.959 135.262C209.401 137.612 208.419 143.117 208.419 143.117L208.093 144.122L200.113 138.66L182.941 137.819L182.946 137.824Z" fill="#F1D157"/>
<path d="M187.637 141.559C187.637 141.559 197.697 139.474 208.099 144.122C208.099 144.122 209.152 138.269 200.992 136.054C194.858 134.393 184.516 134.317 183.115 136.684C181.714 139.051 187.632 141.554 187.632 141.554L187.637 141.559Z" fill="#55AC72"/>
<path d="M197.224 149.469C196.649 150.153 196.893 152.591 196.323 152.949C195.753 153.307 194.64 152.721 194.678 153.595C194.716 154.469 196.502 155.767 196.698 155.43C196.893 155.094 195.916 154.127 195.916 154.127C195.916 154.127 196.795 154.024 197.154 153.47C197.512 152.917 197.74 148.856 197.224 149.469Z" fill="#0F382F"/>
<path d="M203.255 149.339C203.136 150.017 202.474 150.479 201.784 150.343C201.111 150.213 200.644 149.561 200.78 148.872C200.91 148.21 201.524 147.764 202.191 147.862C202.072 147.971 201.969 148.117 201.942 148.297C201.86 148.698 202.137 149.089 202.539 149.171C202.827 149.214 203.103 149.111 203.255 148.894C203.288 149.029 203.283 149.187 203.255 149.339Z" fill="#0F382F"/>
<path d="M195.623 143.85C195.215 143.579 194.765 143.454 194.303 143.362C193.836 143.269 193.342 143.204 192.87 143.161C191.915 143.079 190.981 143.052 190.02 143.4C189.949 143.427 189.705 143.101 189.77 143.036C190.172 142.623 190.699 142.325 191.258 142.156C191.817 141.983 192.409 141.934 192.979 141.983C193.549 142.032 194.097 142.162 194.635 142.401C195.161 142.64 195.682 143.025 195.975 143.557C196.024 143.649 195.693 143.899 195.628 143.861L195.623 143.85Z" fill="#0F382F"/>
<path d="M193.098 148.237C192.979 148.915 192.311 149.377 191.627 149.241C190.954 149.111 190.487 148.459 190.623 147.77C190.753 147.108 191.366 146.662 192.034 146.76C191.915 146.869 191.812 147.015 191.784 147.194C191.708 147.596 191.98 147.987 192.382 148.069C192.669 148.112 192.946 148.009 193.098 147.792C193.131 147.927 193.125 148.085 193.098 148.237Z" fill="#0F382F"/>
<path d="M204.287 144.757C203.88 144.485 203.43 144.361 202.968 144.268C202.501 144.181 202.007 144.111 201.535 144.067C200.579 143.986 199.646 143.959 198.685 144.306C198.609 144.333 198.37 144.008 198.435 143.943C198.837 143.53 199.363 143.226 199.922 143.063C200.482 142.889 201.073 142.84 201.643 142.889C202.219 142.938 202.762 143.068 203.299 143.307C203.826 143.546 204.347 143.932 204.64 144.464C204.689 144.556 204.358 144.806 204.293 144.768L204.287 144.757Z" fill="#0F382F"/>
<path d="M193.95 162.325C194.433 162.417 194.895 162.357 195.356 162.265C195.818 162.167 196.301 162.037 196.757 161.896C197.669 161.603 198.543 161.261 199.287 160.571C199.347 160.517 199.694 160.723 199.661 160.81C199.45 161.342 199.081 161.825 198.63 162.2C198.179 162.575 197.658 162.852 197.115 163.031C196.567 163.21 196.013 163.302 195.427 163.286C194.846 163.27 194.216 163.118 193.744 162.738C193.663 162.672 193.874 162.309 193.945 162.325H193.95Z" fill="#F2F6F9"/>
<path d="M196.986 175.653C197.089 175.246 199.847 174.839 199.847 174.839C199.847 174.839 197.323 187.211 200.276 190.083C203.23 192.955 214.815 173.753 215.673 173.628C216.536 173.503 218.295 175.153 218.42 175.713C218.545 176.272 203.197 202.456 208.751 217.163C214.305 231.87 228.116 219.823 228.116 219.823L229.565 196.125C229.565 196.125 249.511 251.039 249.718 254.394C249.929 257.744 252.72 255.931 252.302 257.538C251.884 259.145 250.347 260.328 251.466 261.028C252.584 261.729 253.436 266.056 252.345 266.892C251.254 267.728 194.234 278.32 176.183 269.286L187.887 210.04C187.887 210.04 191.921 195.621 196.992 175.658L196.986 175.653Z" fill="#55AC72"/>
<path d="M252.801 264.465C247.725 265.154 240.287 264.807 238.962 263.537C237.008 261.658 240.222 258.993 242.035 256.213C243.854 253.428 240.081 255.507 237.431 254.112C234.777 252.717 239.804 251.175 240.781 248.661C241.753 246.148 235.33 248.802 232.757 239.606C231.508 235.132 229.972 222.201 228.718 209.91L228.11 219.817C228.11 219.817 214.299 231.864 208.745 217.157C207.86 214.812 207.502 212.168 207.534 209.388C206.134 214.475 205.048 218.58 204.722 219.144C203.87 220.637 202.849 224.139 200.243 223.357C197.637 222.581 204.244 228.232 205.737 229.817C207.225 231.397 204.711 230.746 200.802 228.791C196.893 226.837 204.993 234.095 204.081 234.747C203.164 235.398 191.03 241.544 187.491 236.424C186.171 234.513 185.688 228.406 185.666 221.267L176.188 269.28C194.239 278.309 251.259 267.722 252.35 266.886C252.817 266.528 252.92 265.54 252.812 264.465H252.801ZM229.103 264.536C227.513 266.854 182.838 271.696 187.881 266.11C191.503 262.103 192.735 262.163 192.735 262.163C204.136 264.394 230.064 252.624 229.065 256.208C228.072 259.78 221.264 261.012 224.299 262.163C227.328 263.319 230.683 262.212 229.103 264.536Z" fill="#D9B83A"/>
<path d="M196.101 272.711C195.982 272.728 195.738 271.609 195.396 269.563C195.222 268.542 195.027 267.283 194.809 265.828C194.619 264.367 194.478 262.695 194.294 260.849C193.604 253.46 193.322 243.183 194.011 231.88C194.652 220.572 196.134 210.414 197.453 203.123C198.126 199.481 198.762 196.549 199.277 194.535C199.777 192.521 200.151 191.429 200.265 191.457C200.504 191.511 199.69 196.006 198.669 203.319C197.665 210.626 196.384 220.746 195.749 231.978C195.07 243.205 195.157 253.395 195.521 260.757C195.624 262.597 195.673 264.264 195.776 265.73C195.901 267.19 195.998 268.45 196.063 269.481C196.199 271.544 196.215 272.695 196.096 272.711H196.101Z" fill="#F1D157"/>
<path d="M234.728 268.162C234.69 268.2 234.489 268.086 234.169 267.755C233.87 267.413 233.534 266.783 233.431 265.92C233.311 265.057 233.431 264.009 233.642 262.869C233.74 262.304 233.865 261.696 233.903 261.11C233.935 260.811 233.897 260.545 233.843 260.344C233.783 260.187 233.724 260.03 233.664 259.867L233.621 259.763C233.621 259.763 233.61 259.747 233.61 259.742V259.731L233.778 259.633C233.805 259.622 233.838 259.611 233.865 259.601C233.973 259.552 234.077 259.416 234.066 259.432C234.066 259.454 234.066 259.476 234.077 259.492C234.082 259.508 234.093 259.525 234.109 259.541C234.077 259.47 234.495 260.263 234.316 259.926H234.31C234.31 259.926 234.196 260.008 234.136 260.035C233.865 260.176 233.517 260.176 233.23 260.106C233.072 260.073 232.969 260.03 232.85 259.981C232.747 259.948 232.573 259.839 232.437 259.774C231.883 259.443 231.351 259.058 231.411 258.444C231.449 258.151 231.606 257.934 231.834 257.722C232.068 257.521 232.443 257.326 232.692 257.201C232.882 257.103 233.078 257 233.273 256.897L233.469 256.783C233.539 256.74 233.512 256.75 233.539 256.734C233.593 256.702 233.659 256.62 233.566 256.582L233.447 256.522L233.23 256.403L232.926 256.224C232.513 255.974 232.095 255.692 231.704 255.355C231.601 255.274 231.514 255.181 231.416 255.095L231.275 254.959C231.226 254.91 231.156 254.818 231.102 254.742C231.047 254.666 230.988 254.584 230.939 254.508L230.841 254.324C230.781 254.199 230.711 254.069 230.656 253.949C230.244 252.999 229.945 252.054 229.647 251.083C229.348 250.111 229.071 249.117 228.8 248.102C228.257 246.077 227.747 243.971 227.252 241.805C225.287 233.151 223.935 225.23 223.235 219.454C222.882 216.565 222.708 214.209 222.687 212.575C222.66 210.941 222.79 210.029 222.904 210.034C223.029 210.034 223.132 210.925 223.36 212.521C223.588 214.117 223.946 216.43 224.451 219.274C225.455 224.964 226.997 232.814 228.952 241.419C229.44 243.569 229.94 245.665 230.45 247.673C230.711 248.678 230.966 249.66 231.243 250.61C231.514 251.56 231.802 252.494 232.133 253.314C232.171 253.417 232.22 253.493 232.258 253.591L232.318 253.727C232.318 253.727 232.345 253.765 232.356 253.781L232.372 253.808C232.372 253.808 232.383 253.808 232.367 253.83L232.318 253.884L232.22 253.993C232.546 253.672 232.312 253.906 232.388 253.841H232.394L232.508 253.955C232.584 254.025 232.654 254.101 232.736 254.172C233.045 254.454 233.387 254.698 233.74 254.926L234.011 255.1L234.375 255.323C234.527 255.409 234.69 255.523 234.853 255.638C235.027 255.746 235.13 255.887 235.244 256.012C235.287 256.083 235.331 256.148 235.369 256.218C235.39 256.294 235.423 256.365 235.439 256.446C235.477 256.609 235.45 256.788 235.401 256.93C235.298 257.223 235.048 257.472 234.744 257.684C234.402 257.912 234.136 258.048 233.925 258.157C233.745 258.243 233.566 258.325 233.393 258.406L233.224 258.477C233.186 258.499 233.137 258.52 233.116 258.564C233.099 258.661 233.203 258.705 233.273 258.765C233.306 258.781 233.289 258.786 233.36 258.813C233.414 258.835 233.485 258.873 233.507 258.873C233.577 258.895 233.615 258.9 233.669 258.884C233.686 258.873 233.675 258.884 233.729 258.851L233.756 258.835C233.8 258.813 233.849 258.797 233.892 258.786C233.99 258.765 234.071 258.748 234.234 258.786C234.37 258.813 234.538 258.949 234.533 258.96C234.565 258.998 234.598 259.036 234.625 259.074C234.761 259.302 234.755 259.356 234.799 259.465C234.853 259.639 234.907 259.812 234.956 259.981C235.076 260.453 235.059 260.866 235.005 261.213C234.907 261.924 234.734 262.516 234.592 263.075C234.294 264.177 234.098 265.111 234.109 265.871C234.109 266.631 234.288 267.19 234.462 267.559C234.652 267.912 234.772 268.113 234.728 268.162Z" fill="#F1D157"/>
<path d="M191.915 195.615C193.43 195.387 184.955 230.143 183.788 228.102C182.616 226.066 190.938 195.756 191.915 195.615Z" fill="#195C4E"/>
<path d="M231.817 225.235C219.439 221.071 210.954 224.66 208.674 225.838V225.583C208.674 225.583 200.161 203.759 208.115 185.8C209.895 181.788 217.865 176.196 222.713 181.598C230.156 189.893 230.449 206.592 231.812 225.235H231.817Z" fill="#444444"/>
<path d="M208.12 185.8C208.169 185.821 208.11 186.087 207.958 186.587C207.876 186.837 207.778 187.141 207.659 187.499C207.55 187.863 207.425 188.281 207.284 188.753C206.741 190.648 206.009 193.427 205.65 197C205.265 200.561 205.227 204.893 205.808 209.725C206.095 212.141 206.524 214.676 207.127 217.298C207.425 218.607 207.768 219.937 208.158 221.283C208.348 221.956 208.56 222.63 208.777 223.303C208.891 223.639 209.005 223.976 209.119 224.313L209.206 224.562L209.222 224.611L209.228 224.633C209.228 224.649 209.244 224.633 209.25 224.627C209.266 224.622 209.228 224.633 209.293 224.606C209.429 224.541 209.564 224.486 209.706 224.427C210.259 224.193 210.824 223.992 211.394 223.797C212.534 223.411 213.723 223.134 214.923 222.896C217.333 222.461 219.841 222.32 222.366 222.472C223.343 222.51 224.299 222.646 225.254 222.76C225.732 222.825 226.199 222.923 226.666 223.004C227.133 223.091 227.605 223.167 228.061 223.286C228.978 223.509 229.896 223.715 230.775 224.008L230.857 224.036H230.868V224.025V223.927C230.629 220.355 230.406 216.913 230.194 213.634C229.766 207.081 229.239 201.207 228.343 196.353C227.453 191.505 226.177 187.711 224.901 185.278C224.565 184.681 224.261 184.155 224 183.693C223.881 183.454 223.745 183.253 223.609 183.074C223.484 182.89 223.37 182.727 223.267 182.575C222.86 181.972 222.665 181.63 222.708 181.592C222.751 181.554 223.034 181.815 223.539 182.358C223.663 182.493 223.805 182.651 223.957 182.819C224.114 182.987 224.277 183.177 224.423 183.405C224.733 183.851 225.097 184.361 225.488 184.953C226.986 187.352 228.49 191.207 229.548 196.115C230.612 201.022 231.275 206.956 231.791 213.52C232.035 216.799 232.29 220.241 232.556 223.813C232.616 224.665 232.681 225.523 232.741 226.386C232.757 226.43 232.713 226.403 232.692 226.397L232.61 226.376L232.447 226.327L232.127 226.229L231.481 226.033L230.265 225.664C229.418 225.387 228.544 225.192 227.665 224.98C227.23 224.866 226.78 224.79 226.334 224.714C225.889 224.638 225.439 224.546 224.988 224.481C224.081 224.378 223.169 224.242 222.246 224.209C219.852 224.063 217.485 224.193 215.216 224.595C214.087 224.817 212.974 225.067 211.91 225.42C211.378 225.594 210.851 225.784 210.341 225.99C210.211 226.039 210.086 226.093 209.961 226.147C209.765 226.234 209.467 226.365 209.222 226.49L208.457 226.864L208.077 227.049L207.773 227.19L207.8 226.262C207.8 225.995 207.757 225.827 207.735 225.605C207.724 225.496 207.713 225.393 207.675 225.317L207.605 225.105L207.512 224.845C207.398 224.492 207.284 224.144 207.17 223.797C206.953 223.096 206.747 222.407 206.557 221.717C206.177 220.339 205.846 218.97 205.558 217.629C204.982 214.942 204.592 212.342 204.347 209.866C203.859 204.915 204.027 200.474 204.57 196.848C205.08 193.21 205.992 190.409 206.72 188.547C206.91 188.085 207.073 187.673 207.23 187.32C207.398 186.983 207.545 186.69 207.664 186.451C207.909 185.99 208.055 185.762 208.099 185.778L208.12 185.8Z" fill="#195C4E"/>
<path d="M152.235 226.49C152.235 226.49 156.926 225.192 162.05 227.89C162.268 228.004 162.49 227.722 162.36 227.521C161.247 225.805 159.065 224.09 155.351 224.242C150.139 224.454 152.24 226.495 152.24 226.495L152.235 226.49Z" fill="#0F382F"/>
<path d="M150.666 226.468C149.683 226.837 148.695 227.266 147.745 227.765C151.334 244.818 155.959 263.58 157.224 269.959C158.804 277.912 161.372 284.253 163.38 285.328C165.395 286.403 167.968 282.532 168.728 280.089C169.488 277.646 167.919 275.176 164.987 270.133C162.528 265.909 157.696 242.82 153.044 225.681C152.24 225.909 151.442 226.169 150.666 226.462V226.468Z" fill="#55AC72"/>
<path d="M150.666 226.468C149.678 226.837 148.684 227.266 147.734 227.776C148.218 230.051 148.826 232.782 149.52 235.822C151.138 235.208 152.561 234.101 153.522 235.453C154.624 237.011 161.714 266.495 161.969 269.742C162.159 272.272 161.144 277.75 158.381 274.791C159.906 280.366 161.833 284.476 163.419 285.323C165.433 286.403 168.006 282.522 168.761 280.089C169.521 277.641 167.952 275.171 165.02 270.133C162.561 265.909 157.696 242.825 153.038 225.686C152.24 225.914 151.453 226.175 150.682 226.462L150.666 226.468Z" fill="#F1D157"/>
<path d="M156.741 267.744C157.153 266.512 160.899 263.705 163.179 265.078C163.179 265.078 158.271 245.306 157.951 245.111C157.636 244.915 153.841 244.041 151.947 247.711L156.741 267.749V267.744Z" fill="#195C4E"/>
<path d="M159.749 221.967C161.937 223.509 163.022 224.866 163.554 225.757C163.761 226.099 163.381 226.484 163.022 226.31C157.241 223.449 154.206 225.816 154.206 225.816L155.053 231.028L154.684 231.783L154.64 231.87C149.694 235.073 148.066 233.135 148.066 233.135C148.066 233.135 145.677 225.773 143.397 228.927C142.067 230.762 140.704 231.158 139.797 231.175C139.146 231.18 138.728 230.99 138.728 230.99C135.894 228.075 136.697 223.965 136.697 223.965C136.936 223.786 137.164 223.634 137.371 223.504C139.58 222.152 140.438 223.189 142.452 223.498C144.656 223.835 144.939 221.712 144.939 221.712C150.878 218.927 155.856 219.242 159.738 221.973L159.749 221.967Z" fill="#195C4E"/>
<path d="M137.447 223.504C141.497 225.99 140.606 230.572 139.808 231.175C139.157 231.18 138.739 230.99 138.739 230.99C135.905 228.075 136.708 223.96 136.708 223.96C136.947 223.78 137.175 223.628 137.381 223.498H137.447V223.504Z" fill="#0F382F"/>
<path d="M165.156 272.858C165.574 277.451 165.302 284.047 166.496 281.604C167.691 279.161 165.09 272.125 165.156 272.858Z" fill="#F1D157"/>
<path d="M223.25 254.427C218.218 257.424 158.673 263.184 158.673 263.184C158.673 263.184 152.18 264.329 151.947 262.494C151.735 260.779 152.68 260.942 153.255 260.811C152.549 260.893 150.079 261.001 150.014 259.432C149.949 257.885 151.67 257.386 152.408 257.239C151.529 257.337 148.564 257.51 148.575 255.719C148.575 253.884 151.854 253.602 152.365 253.547C151.909 253.564 148.293 253.678 148.396 251.848C148.461 250.719 154.384 248.895 158.087 248.542C158.315 247.918 157.68 242.934 159.596 243.699C161.502 244.459 164.167 249.443 164.167 249.443L209.293 238.699L209.233 225.843C211.394 224.459 218.049 220.952 230.753 223.97C232.127 234.855 227.252 252.049 223.25 254.432V254.427Z" fill="#D7A28E"/>
<path d="M223.251 254.427C222.312 254.986 219.674 255.589 216.015 256.208C225.988 247.923 225.684 232.244 224.386 222.999C226.362 223.124 228.485 223.433 230.76 223.965C232.128 234.845 227.258 252.038 223.251 254.421V254.427Z" fill="#CE9784"/>
<path d="M209.732 239.378C209.57 239.432 212.588 244.785 213.337 244.595C213.82 244.47 213.5 242.809 212.474 241.533C214.255 242.603 216.312 243.596 216.757 243.216C217.615 242.494 213.587 238.135 209.732 239.378Z" fill="#CE9784"/>
<path d="M207.578 223.748C207.578 223.748 207.561 226.533 208.338 227.282C209.114 228.031 218.012 223.932 223.539 224.861C229.071 225.789 231.964 227.678 232.486 226.359C233.012 225.04 233.43 221.658 232.627 221.001C231.823 220.344 217.057 216.359 207.572 223.748H207.578Z" fill="#195C4E"/>
<path d="M220.753 195.382C219.83 195.545 216.997 195.702 216.872 195.843C216.752 195.984 218.207 210.463 218.837 210.903C219.472 211.343 223.908 211.859 224.271 210.691C224.635 209.524 220.748 195.382 220.748 195.382H220.753Z" fill="#195C4E"/>
<path d="M203.864 314.031C197.225 315.187 239.511 321.594 239.804 320.747C240.434 318.933 206.009 313.657 203.864 314.031Z" fill="#195C4E"/>
<path d="M107.864 162.917V330.644C107.864 334.362 110.123 337.376 112.908 337.376C115.693 337.376 117.951 334.362 117.951 330.644V162.917H107.864Z" fill="#DAE7F2"/>
<path d="M106.328 191.125C106.328 191.125 107.278 189.111 110.063 190.566C112.848 192.021 112.295 193.666 112.295 193.666C112.295 193.666 112.088 194.524 109.868 194.394C109.868 194.394 111.497 195.821 111.182 196.771C110.867 197.722 108.543 197.857 108.543 197.857C108.543 197.857 110.27 199.323 109.586 200.094C108.902 200.865 107.751 200.8 107.751 200.8C107.751 200.8 104.852 200.246 104.89 199.622C104.9 199.426 105.226 197.966 106.893 197.325C105.628 195.713 105.731 193.634 106.991 193.682C105.177 192.45 106.323 191.125 106.323 191.125H106.328Z" fill="#D7A28E"/>
<path d="M109.184 190.034C107.587 189.6 106.399 190.034 106.008 191.196C105.975 191.288 106.024 191.391 106.122 191.424C106.214 191.457 106.317 191.408 106.35 191.31C106.817 189.92 108.424 190.197 109.091 190.382C110.753 190.838 112.49 192.265 112.246 193.433C112.001 194.578 109.591 194.155 109.564 194.155C109.52 194.149 109.482 194.16 109.444 194.182C108.717 193.862 107.989 193.715 107.544 193.65C107.446 193.634 107.354 193.704 107.343 193.802C107.327 193.9 107.397 193.992 107.495 194.003C108.386 194.133 110.514 194.611 111.149 196.229C111.181 196.56 111.089 196.831 110.877 197.054C110.389 197.575 109.357 197.722 108.548 197.684C108.163 197.472 107.734 197.331 107.305 197.287C106.247 197.19 105.014 197.694 104.743 199.415C104.726 199.513 104.792 199.605 104.889 199.622C104.987 199.638 105.079 199.573 105.096 199.475C105.296 198.221 106.111 197.537 107.273 197.646C108.364 197.749 109.553 198.596 109.52 199.643C109.509 199.92 109.417 200.132 109.232 200.295C108.755 200.713 107.843 200.626 107.837 200.626C107.74 200.615 107.653 200.686 107.642 200.789C107.631 200.887 107.702 200.973 107.799 200.984C107.843 200.984 108.874 201.087 109.466 200.566C109.547 200.496 109.618 200.42 109.672 200.333C109.797 200.143 109.868 199.915 109.873 199.66C109.895 199.024 109.564 198.46 109.07 198.042C109.841 197.998 110.671 197.792 111.133 197.304C111.187 197.244 111.241 197.179 111.285 197.114C111.464 196.842 111.534 196.527 111.496 196.169C111.496 196.153 111.496 196.136 111.485 196.125C111.23 195.447 110.747 194.953 110.193 194.589C110.915 194.627 111.99 194.567 112.425 193.91C112.501 193.796 112.555 193.666 112.588 193.514C112.886 192.097 111.035 190.55 109.178 190.04L109.184 190.034Z" fill="#C48C7A"/>
<path d="M117.952 162.917V330.644C117.952 333.608 116.513 336.127 114.515 337.023V186.467H107.859V162.917H117.946H117.952Z" fill="#C1D9EA"/>
<path fill-rule="evenodd" clip-rule="evenodd" d="M167.827 119.208L143.712 77.438C142.333 75.0493 139.787 73.578 137.029 73.578H88.7925C86.0346 73.578 83.4885 75.0493 82.1095 77.438L57.9942 119.208C56.6152 121.597 56.6152 124.539 57.9942 126.928L82.1095 168.698C83.4885 171.087 86.0346 172.558 88.7925 172.558H137.029C139.787 172.558 142.333 171.087 143.712 168.698L167.827 126.928C169.206 124.539 169.206 121.597 167.827 119.208Z" fill="#55AC72"/>
<path fill-rule="evenodd" clip-rule="evenodd" d="M88.7928 166.587C88.1684 166.587 87.5875 166.25 87.2781 165.713L63.1628 123.942C62.8533 123.405 62.8533 122.732 63.1628 122.194L87.2781 80.4239C87.5875 79.8864 88.1684 79.5499 88.7928 79.5499H137.029C137.653 79.5499 138.234 79.8864 138.544 80.4239L162.659 122.194C162.968 122.732 162.968 123.405 162.659 123.942L138.544 165.713C138.234 166.25 137.653 166.587 137.029 166.587H88.7928Z" fill="#195C4E"/>
<path d="M85.47 128.1V123.96L94.95 110.4H100.68V123.66H103.14V128.1H100.68V132H95.55V128.1H85.47ZM95.91 116.04L90.87 123.66H95.91V116.04ZM105.053 120.75C105.053 117.31 105.713 114.6 107.033 112.62C108.373 110.64 110.523 109.65 113.483 109.65C116.443 109.65 118.583 110.64 119.903 112.62C121.243 114.6 121.913 117.31 121.913 120.75C121.913 124.23 121.243 126.96 119.903 128.94C118.583 130.92 116.443 131.91 113.483 131.91C110.523 131.91 108.373 130.92 107.033 128.94C105.713 126.96 105.053 124.23 105.053 120.75ZM116.873 120.75C116.873 118.73 116.653 117.18 116.213 116.1C115.773 115 114.863 114.45 113.483 114.45C112.103 114.45 111.193 115 110.753 116.1C110.313 117.18 110.093 118.73 110.093 120.75C110.093 122.11 110.173 123.24 110.333 124.14C110.493 125.02 110.813 125.74 111.293 126.3C111.793 126.84 112.523 127.11 113.483 127.11C114.443 127.11 115.163 126.84 115.643 126.3C116.143 125.74 116.473 125.02 116.633 124.14C116.793 123.24 116.873 122.11 116.873 120.75ZM124.203 116.28C124.283 114.14 124.983 112.49 126.303 111.33C127.623 110.17 129.413 109.59 131.673 109.59C133.173 109.59 134.453 109.85 135.513 110.37C136.593 110.89 137.403 111.6 137.943 112.5C138.503 113.4 138.783 114.41 138.783 115.53C138.783 116.85 138.453 117.93 137.793 118.77C137.133 119.59 136.363 120.15 135.483 120.45V120.57C136.623 120.95 137.523 121.58 138.183 122.46C138.843 123.34 139.173 124.47 139.173 125.85C139.173 127.09 138.883 128.19 138.303 129.15C137.743 130.09 136.913 130.83 135.813 131.37C134.733 131.91 133.443 132.18 131.943 132.18C129.543 132.18 127.623 131.59 126.183 130.41C124.763 129.23 124.013 127.45 123.933 125.07H128.913C128.933 125.95 129.183 126.65 129.663 127.17C130.143 127.67 130.843 127.92 131.763 127.92C132.543 127.92 133.143 127.7 133.563 127.26C134.003 126.8 134.223 126.2 134.223 125.46C134.223 124.5 133.913 123.81 133.293 123.39C132.693 122.95 131.723 122.73 130.383 122.73H129.423V118.56H130.383C131.403 118.56 132.223 118.39 132.843 118.05C133.483 117.69 133.803 117.06 133.803 116.16C133.803 115.44 133.603 114.88 133.203 114.48C132.803 114.08 132.253 113.88 131.553 113.88C130.793 113.88 130.223 114.11 129.843 114.57C129.483 115.03 129.273 115.6 129.213 116.28H124.203Z" fill="#FAFAFA"/>
<path d="M91.2301 87.1069C95.0792 89.93 114.33 89.1591 114.77 86.9766C115.21 84.7942 88.3799 85.0168 91.2301 87.1069Z" fill="#55AC72"/>
<path d="M99.4278 159.518C88.4939 152.52 133.712 154.643 133.581 158.492C133.445 162.341 102.642 161.576 99.4278 159.518Z" fill="#55AC72"/>
</svg>
