<svg width="72" height="72" viewBox="0 0 72 72" fill="none" xmlns="http://www.w3.org/2000/svg">
<rect width="71.3684" height="71.3684" rx="35.6842" fill="#F3D8FF"/>
<g clip-path="url(#clip0_2602_44823)">
<path d="M48.2763 48.9522V50.4916H23.6053V48.9522C23.6053 46.9094 24.4194 44.9456 25.8651 43.4999C27.3108 42.0541 29.2697 41.24 31.3174 41.24H40.5691C42.6118 41.24 44.5757 42.0541 46.0214 43.4999C47.4671 44.9456 48.2812 46.9045 48.2812 48.9522H48.2763ZM28.2286 35.0772H20.5214C18.4786 35.0772 16.5148 35.8913 15.0691 37.337C13.6233 38.7828 12.8092 40.7416 12.8092 42.7844V44.3239H21.5674C22.8799 41.5607 25.3026 39.4834 28.2286 38.6051V35.0722V35.0772ZM51.3602 35.0772H43.653V38.6101C46.5789 39.4933 49.0016 41.5706 50.3141 44.3288H59.0724V42.7893C59.0724 40.7466 58.2582 38.7828 56.8125 37.337C55.3668 35.8913 53.4079 35.0772 51.3602 35.0772ZM21.2911 31.9933C23.472 31.9933 25.4408 30.6808 26.2747 28.6627C27.1085 26.6446 26.6497 24.3255 25.1053 22.7811C23.5608 21.2367 21.2418 20.7729 19.2237 21.6068C17.2056 22.4456 15.8931 24.4094 15.8931 26.5903C15.8931 28.0212 16.4605 29.393 17.472 30.4045C18.4835 31.416 19.8553 31.9834 21.2862 31.9834L21.2911 31.9933ZM50.5855 31.9933C52.7664 31.9933 54.7352 30.6808 55.5691 28.6627C56.403 26.6446 55.9441 24.3255 54.3997 22.7811C52.8553 21.2367 50.5362 20.7778 48.5181 21.6117C46.5 22.4505 45.1875 24.4143 45.1875 26.5953C45.1875 28.0262 45.7549 29.3979 46.7664 30.4094C47.778 31.4209 49.1497 31.9884 50.5806 31.9884L50.5855 31.9933ZM35.9358 38.1611C38.1168 38.1611 40.0855 36.8486 40.9194 34.8305C41.7533 32.8124 41.2944 30.4933 39.75 28.9489C38.2056 27.4045 35.8865 26.9456 33.8684 27.7795C31.8503 28.6183 30.5378 30.5821 30.5378 32.763C30.5378 34.1939 31.1053 35.5657 32.1168 36.5772C33.1283 37.5887 34.5 38.1561 35.9309 38.1561L35.9358 38.1611Z" fill="#9900E0"/>
</g>
<defs>
<clipPath id="clip0_2602_44823">
<rect width="47.3684" height="47.3684" fill="white" transform="translate(12 12)"/>
</clipPath>
</defs>
</svg>
