<svg width="72" height="72" viewBox="0 0 72 72" fill="none" xmlns="http://www.w3.org/2000/svg">
<rect x="0.368408" width="71.3684" height="71.3684" rx="35.6842" fill="#DEF4FF"/>
<g clip-path="url(#clip0_2602_44826)">
<rect width="47.3684" height="47.3684" transform="translate(12.3684 12)" fill="#DEF4FF"/>
<path d="M55.8742 28.6537H46.1667C45.506 29.5513 44.7436 30.3989 43.8288 31.097H55.8742C56.6365 31.097 57.2464 31.6953 57.2464 32.4432V55.6288C57.2464 56.3767 56.6365 56.9751 55.8742 56.9751H16.2311C15.4687 56.9751 14.8588 56.3767 14.8588 55.6288V32.3934C14.8588 31.6454 15.4687 31.0471 16.2311 31.0471H28.2765C27.4125 30.349 26.5993 29.5513 25.9385 28.6039H16.2311C14.0964 28.6039 12.3684 30.2992 12.3684 32.3934V55.579C12.3684 57.6731 14.0964 59.3684 16.2311 59.3684H55.8742C58.0088 59.3684 59.7368 57.6731 59.7368 55.579V32.3934C59.7368 30.349 58.0088 28.6537 55.8742 28.6537Z" fill="#0083C5"/>
<path d="M34.9852 49.3462C34.6803 47.1024 33.0539 45.3074 30.9701 44.6094C29.9028 45.2576 28.5814 45.6565 27.2091 45.6565C25.8368 45.6565 24.5662 45.3074 23.4481 44.6094C21.3643 45.2576 19.7379 47.1024 19.4329 49.3462L19.0264 52.1385C18.9247 52.8864 19.4838 53.5346 20.2461 53.5346H34.0704C34.8328 53.5346 35.3918 52.8864 35.2902 52.1385L34.9852 49.3462Z" fill="#0083C5"/>
<path d="M27.2092 43.9113C29.8521 43.9113 32.0375 41.8171 32.0375 39.1745C32.0375 36.5318 29.9029 34.4376 27.2092 34.4376C24.5155 34.4376 22.3809 36.5318 22.3809 39.1745C22.3809 41.7673 24.5663 43.9113 27.2092 43.9113Z" fill="#0083C5"/>
<path d="M51.859 38.5263H40.3218C39.6611 38.5263 39.1021 37.9778 39.1021 37.3296C39.1021 36.6814 39.6611 36.1329 40.3218 36.1329H51.8082C52.4689 36.1329 53.028 36.6814 53.028 37.3296C53.028 37.9778 52.5197 38.5263 51.859 38.5263Z" fill="#0083C5"/>
<path d="M51.859 45.2077H40.3218C39.6611 45.2077 39.1021 44.6592 39.1021 44.011C39.1021 43.3628 39.6611 42.8143 40.3218 42.8143H51.8082C52.4689 42.8143 53.028 43.3628 53.028 44.011C53.0788 44.6592 52.5197 45.2077 51.859 45.2077Z" fill="#0083C5"/>
<path d="M51.859 51.8891H40.3218C39.6611 51.8891 39.1021 51.3406 39.1021 50.6924C39.1021 50.0442 39.6611 49.4957 40.3218 49.4957H51.8082C52.4689 49.4957 53.028 50.0442 53.028 50.6924C53.0788 51.3905 52.5197 51.8891 51.859 51.8891Z" fill="#0083C5"/>
<path d="M36.0526 12C30.6144 12 26.1926 16.338 26.1926 21.6731C26.1926 27.0083 30.6144 31.3463 36.0526 31.3463C41.4908 31.3463 45.9125 27.0083 45.9125 21.6731C45.9125 16.338 41.4908 12 36.0526 12ZM40.7793 20.4765L35.6968 25.4626C35.3919 25.7618 35.0361 25.9114 34.6295 25.9114C34.2737 25.9114 33.8671 25.7618 33.5622 25.4626L31.021 22.9695C30.4619 22.4211 30.4619 21.4737 31.021 20.9252C31.58 20.3767 32.5457 20.3767 33.1048 20.9252L34.5787 22.3712L38.5938 18.4321C39.1529 17.8837 40.1185 17.8837 40.6776 18.4321C41.3892 18.9806 41.3892 19.8781 40.7793 20.4765Z" fill="#0083C5"/>
</g>
<defs>
<clipPath id="clip0_2602_44826">
<rect width="47.3684" height="47.3684" fill="white" transform="translate(12.3684 12)"/>
</clipPath>
</defs>
</svg>
