<svg width="72" height="72" viewBox="0 0 72 72" fill="none" xmlns="http://www.w3.org/2000/svg">
<rect x="0.105225" width="71.3684" height="71.3684" rx="35.6842" fill="#FFEFDC"/>
<path d="M55.6093 20.2109H54.721V15.8683C54.721 13.7341 52.9887 12 50.8567 12H26.4418C23.3622 12 20.86 14.5048 20.86 17.5876V38.3372C16.9735 39.0264 13.7903 41.8202 12.5984 45.5848C11.4065 49.3568 12.4133 53.4771 15.2042 56.2634C17.9951 59.0572 22.1111 60.0651 25.8792 58.8794C29.6473 57.6863 32.4382 54.4997 33.1193 50.6092H55.6093C57.7266 50.6092 59.4514 48.9047 59.4736 46.7853V24.0793C59.4736 21.945 57.7414 20.2109 55.6093 20.2109ZM18.5355 48.5787C19.113 48.0006 20.0457 48.0006 20.6231 48.5787L21.2302 49.1863V44.8882C21.2302 44.0656 21.889 43.4061 22.7108 43.4061C23.5325 43.4061 24.1914 44.0656 24.1914 44.8882V49.1715L24.7984 48.5638C25.3832 47.9784 26.316 47.9784 26.9008 48.5638C27.4856 49.1493 27.4856 50.083 26.9008 50.6684L23.762 53.7957C23.1846 54.3737 22.2518 54.3737 21.6744 53.7957L18.5355 50.6684C17.9581 50.0904 17.9581 49.1567 18.5355 48.5787ZM56.5125 29.7854H51.6858C49.4279 29.7854 47.3921 31.149 46.5334 33.2387C45.6672 35.3285 46.1484 37.737 47.7474 39.3302C48.7912 40.3825 50.2052 40.968 51.6858 40.9606H56.5125V46.726C56.5125 47.2299 56.1053 47.6301 55.6093 47.6301H33.2229C32.9638 45.2217 31.8904 42.9837 30.1803 41.2718C28.4702 39.56 26.2272 38.4854 23.8212 38.2187V22.523C24.6281 22.9603 25.5239 23.1826 26.4418 23.1752H55.6093C56.1053 23.1752 56.5125 23.5827 56.5125 24.0793V29.7854Z" fill="#F79B2D"/>
</svg>
