<svg width="73" height="72" viewBox="0 0 73 72" fill="none" xmlns="http://www.w3.org/2000/svg">
<rect x="0.736816" width="71.3684" height="71.3684" rx="35.6842" fill="#E0FFEA"/>
<path d="M56.2409 20.2109H55.3526V15.8683C55.3526 13.7341 53.6203 12 51.4882 12H27.0734C23.9938 12 21.4916 14.5048 21.4916 17.5876V38.3372C17.6051 39.0264 14.4218 41.8202 13.23 45.5848C12.0381 49.3568 13.0449 53.4771 15.8358 56.2634C18.6267 59.0572 22.7427 60.0651 26.5108 58.8794C30.2789 57.6863 33.0698 54.4997 33.7509 50.6092H56.2409C58.3582 50.6092 60.083 48.9047 60.1052 46.7853V24.0793C60.1052 21.945 58.373 20.2109 56.2409 20.2109ZM27.5324 49.0529C26.955 49.631 26.0222 49.631 25.4448 49.0529L24.8378 48.4453V52.7434C24.8378 53.566 24.1789 54.2255 23.3572 54.2255C22.5354 54.2255 21.8766 53.566 21.8766 52.7434V48.4601L21.2695 49.0678C20.6847 49.6532 19.7519 49.6532 19.1671 49.0678C18.5823 48.4823 18.5823 47.5486 19.1671 46.9631L22.306 43.8359C22.8834 43.2579 23.8161 43.2579 24.3936 43.8359L27.5324 46.9631C28.1098 47.5412 28.1098 48.4749 27.5324 49.0529ZM57.1441 29.7854H52.3174C50.0595 29.7854 48.0237 31.149 47.1649 33.2387C46.2988 35.3285 46.78 37.737 48.379 39.3302C49.4228 40.3825 50.8368 40.968 52.3174 40.9606H57.1441V46.726C57.1441 47.2299 56.7369 47.6301 56.2409 47.6301H33.8545C33.5954 45.2217 32.522 42.9837 30.8119 41.2718C29.1018 39.56 26.8587 38.4854 24.4528 38.2187V22.523C25.2597 22.9603 26.1555 23.1826 27.0734 23.1752H56.2409C56.7369 23.1752 57.1441 23.5827 57.1441 24.0793V29.7854Z" fill="#008D6F"/>
</svg>
