<svg width="547" height="353" viewBox="0 0 547 353" fill="none" xmlns="http://www.w3.org/2000/svg">
<path d="M128.306 352.244C156.917 352.244 180.111 348.831 180.111 344.622C180.111 340.412 156.917 337 128.306 337C99.6942 337 76.5 340.412 76.5 344.622C76.5 348.831 99.6942 352.244 128.306 352.244Z" fill="#DAE7F2"/>
<path d="M273.5 348C424.274 348 546.5 336.136 546.5 321.5C546.5 306.864 424.274 295 273.5 295C122.726 295 0.5 306.864 0.5 321.5C0.5 336.136 122.726 348 273.5 348Z" fill="#DAE7F2"/>
<path d="M91.9525 137.729C86.6375 132.3 77.0189 120.013 77.0189 120.013L71.58 101.333C71.4488 101.385 74.3534 101.394 75.2278 101.342C81.1024 101.731 82.8352 102.226 86.4918 106.195C89.3934 109.345 100.469 124.348 104.32 129.39L114.536 116.484C116.983 112.81 116.586 108.703 117.857 105.705C119.129 102.707 121.183 101.384 122.827 98.6717C124.471 95.961 124.864 94.1961 126.214 95.5762C127.565 96.9578 126.007 100.697 125.804 101.55C125.602 102.4 123.544 104.933 126.982 103.618C130.418 102.302 135.738 96.0601 137.11 94.7849C138.483 93.5111 139.202 95.4859 138.893 97.0438C138.584 98.6017 140.062 102.129 139.527 104.711C138.958 107.451 138.55 108.703 135.886 111.364C133.406 113.843 127.332 116.881 124.957 120.131C122.582 123.381 117.513 133.492 114.415 139.586C110.479 147.329 107.124 149.882 102.696 147.275C98.2687 144.668 93.9243 139.742 91.954 137.731L91.9525 137.729Z" fill="#F2A3A7"/>
<path d="M73.3144 101.158C77.019 100.94 80.132 101.436 82.1738 102.352C85.3639 103.783 87.5281 106.835 90.6411 110.979C93.7554 115.123 101.568 125.082 101.568 125.082C101.568 125.082 94.4025 129.381 92.0824 138.302L73.0725 117.459L73.313 101.158H73.3144Z" fill="#E1E2E1"/>
<path d="M104.32 129.39C101.836 131.752 100.785 134.689 100.61 136.192C100.61 136.192 99.4629 132.453 103.44 128.237L104.32 129.39Z" fill="#F08F91"/>
<path d="M55.0202 101.089C52.9536 101.583 47.3982 102.287 43.7416 103.325C41.0455 104.092 38.3231 107.416 37.7606 109.87C35.9607 117.728 37.5551 122.673 38.2357 129.556C38.9163 136.438 38.9483 170.782 38.9483 170.782C42.7987 178.239 71.9577 179.749 86.0664 169.532C86.0664 169.532 84.3409 123.807 84.3409 116.691C84.3409 109.574 80.3535 101.024 69.3431 100.388L55.0202 101.089Z" fill="#F5F4F4"/>
<path d="M67.4766 78.5747C67.4766 79.4404 66.796 80.1399 65.9565 80.137C65.1171 80.1355 64.4365 79.4316 64.4365 78.5659C64.4365 77.7003 65.1171 77.0007 65.9565 77.0022C66.796 77.0051 67.4766 77.709 67.4766 78.5732V78.5747Z" fill="black"/>
<path d="M65.957 73.4638L62.8106 75.1864C62.3457 74.2901 62.6736 73.1767 63.5422 72.7016C64.4122 72.225 65.4921 72.5675 65.957 73.4638Z" fill="black"/>
<path d="M67.0972 87.7939L70.6152 89.1027C70.2669 90.1024 69.1972 90.6198 68.2266 90.2584C67.2546 89.8969 66.7503 88.7937 67.0972 87.7939Z" fill="#F08F91"/>
<path d="M79.6348 74.7199L76.7638 72.528C77.3496 71.7119 78.4674 71.5428 79.2602 72.1476C80.053 72.7524 80.2206 73.9037 79.6348 74.7184V74.7199Z" fill="black"/>
<path d="M78.9883 78.5747C78.9883 79.4127 78.3281 80.0889 77.5164 80.0875C76.7032 80.0846 76.0444 79.404 76.0444 78.566C76.0444 77.728 76.7032 77.0518 77.5164 77.0547C78.3281 77.0562 78.9883 77.7382 78.9883 78.5747Z" fill="black"/>
<path d="M71.0035 76.0491L71.5107 85.2378L76.3477 83.6026L71.0035 76.0491Z" fill="#F08F91"/>
<path d="M67.4629 76.4601L45.7948 74.8745C41.6092 78.0195 33.8167 84.6403 33.8254 86.4751V87.7489L33.8692 87.9077C34.6372 89.3563 37.3989 90.2439 41.7025 90.3168C46.8077 90.4027 54.7284 89.9407 56.8125 88.1671C59.9487 85.4958 67.4629 77.6697 67.4629 77.6697L66.3713 77.5896C67.0461 76.8959 67.4629 76.4616 67.4629 76.4616V76.4601Z" fill="#00AAA4"/>
<path d="M33.8269 87.5856C34.0878 85.6182 41.6836 79.1723 45.7948 76.0827L46.7348 74.9415L45.7948 74.873C41.6122 78.0151 33.8327 84.6272 33.8254 86.4678V87.5856H33.8269ZM66.3713 77.5881C67.0461 76.893 67.4629 76.4601 67.4629 76.4601L47.4445 74.9955L47.6456 76.2197L66.3713 77.5896V77.5881Z" fill="#00A595"/>
<path d="M45.7948 76.084C41.4212 79.3703 33.1011 86.459 33.8692 87.9061C34.6372 89.3547 37.3989 90.2423 41.7025 90.3151C46.8077 90.4011 54.7284 89.9391 56.8125 88.1655C59.9487 85.4942 67.4629 77.6681 67.4629 77.6681L45.7948 76.0825V76.084Z" fill="#00AAA4"/>
<path d="M42.8868 90.3239C47.9555 90.3239 54.8839 89.8065 56.812 88.1655C58.8596 86.4211 62.7741 82.4804 65.2428 79.9533C66.2266 78.9477 66.98 78.168 67.2977 77.8386C67.4041 77.7279 67.4609 77.6681 67.4609 77.6681L47.6437 76.2181L47.9366 78.0033C47.9366 78.0033 45.7928 76.7456 45.7928 76.1117C45.7928 76.1015 45.7928 76.0913 45.7928 76.0825C41.6102 79.2246 33.8235 85.841 33.8177 87.6817C33.8177 87.7662 33.8337 87.8405 33.8672 87.9047C34.6352 89.3533 37.397 90.2408 41.7006 90.3137C42.0809 90.3195 42.4773 90.3239 42.8854 90.3239H42.8868Z" fill="#008E7A"/>
<path d="M45.7957 76.084C45.7272 76.7078 47.9395 78.0048 47.9395 78.0048L47.3201 74.2332L45.7957 76.084Z" fill="#00AAA4"/>
<path d="M47.9395 78.0048L47.3201 74.2332L45.7957 76.084C45.7957 76.0942 45.7957 76.1044 45.7957 76.1132C45.7957 76.7471 47.9395 78.0048 47.9395 78.0048Z" fill="#00A08A"/>
<path d="M51.4886 63.5332C51.4886 63.5332 48.1031 64.001 46.8629 66.5295C45.7845 68.7302 46.1736 74.0408 47.612 79.8295C49.0504 85.6167 50.4058 89.1056 51.251 90.7058C52.0978 92.3074 53.835 92.7577 53.835 92.7577L53.6659 85.8906L53.4152 81.1047C53.4152 81.1047 56.5136 76.9104 56.8546 73.4724C57.2918 69.0464 56.3533 67.2364 56.3533 67.2364L51.4871 63.5332H51.4886Z" fill="black"/>
<path d="M56.9552 70.1789C56.9785 77.2617 62.7861 82.9848 69.9287 82.9629C77.0698 82.9411 82.4256 77.1306 82.4023 70.0463C82.379 62.9635 76.9881 57.29 69.8456 57.3133C62.703 57.3352 56.9333 63.0976 56.9552 70.1804V70.1789Z" fill="black"/>
<path d="M53.6007 80.3409C52.4363 81.3407 51.489 78.7509 50.5111 77.741C49.5317 76.731 46.3401 75.3582 44.7618 78.6853C43.1529 82.0752 46.155 86.8437 48.6092 87.7778C51.2689 88.7922 52.7773 86.5129 52.7773 86.5129V101.734C56.4572 108.309 62.9541 108.107 66.4211 107.736C69.8897 107.366 70.6519 103.788 68.1175 100.903L68.0899 96.1956C68.0899 96.1956 72.0102 96.7727 73.9193 96.4739C77.0978 95.9755 78.7578 93.5986 79.7123 90.1825C81.2426 84.6955 81.859 75.4733 79.7298 64.8214C76.1709 62.0918 63.8271 62.5421 56.3595 67.2377C56.906 76.6858 54.7681 79.3412 53.6051 80.3438L53.6007 80.3409Z" fill="#F2A3A7"/>
<path d="M78.3932 60.1609C76.9271 58.6161 75.1244 57.3817 73.1497 56.5743C71.5684 55.9258 69.8021 55.4988 68.0941 55.5075C65.8395 55.5192 63.5966 55.1767 61.3392 55.2481C57.4261 55.372 52.6999 56.9517 50.9321 60.7278C50.1218 62.4548 49.9848 64.275 51.5821 65.47C52.9462 66.4887 54.695 66.9493 56.355 67.2364C59.2537 67.7377 62.129 68.3702 65.0482 68.7535C68.1553 69.1615 71.3921 69.3495 74.4671 68.6194C75.9187 68.2755 77.3206 67.7129 78.5608 66.8866C79.1992 66.4625 79.7909 65.9714 80.3243 65.4249C80.5327 65.2121 81.0806 64.7807 81.1491 64.4922C81.222 64.1759 80.8373 63.6381 80.6886 63.3539C80.0765 62.1881 79.2983 61.114 78.3918 60.1594L78.3932 60.1609Z" fill="black"/>
<path d="M68.0879 96.1928C68.0879 96.1928 60.9862 94.7981 58.4999 93.4982C56.8356 92.6267 55.4627 91.1154 55.0591 90.1433C55.0591 90.1433 55.5312 92.2303 57.0207 94.1073C58.8424 96.4027 68.0938 98.0655 68.0938 98.0655L68.0879 96.1928Z" fill="#F08F91"/>
<path d="M66.1685 77.9655C66.1714 78.818 65.5039 79.5088 64.6761 79.5088C63.8483 79.5088 63.1765 78.818 63.1736 77.9655C63.1707 77.1144 63.8382 76.4221 64.6674 76.4221C65.4966 76.4221 66.167 77.1129 66.1699 77.9655H66.1685Z" fill="black"/>
<path d="M69.5898 89.3898C69.5927 90.2409 68.9224 90.9331 68.096 90.9331C67.2697 90.9331 66.5964 90.2423 66.5935 89.3898C66.5906 88.5372 67.2581 87.8464 68.0859 87.8464C68.9136 87.8464 69.5869 88.5372 69.5898 89.3898Z" fill="#F08F91"/>
<path d="M64.1172 72.2161L61.2374 74.4576C60.6224 73.6312 60.7696 72.4595 61.5653 71.8416C62.3611 71.2222 63.5022 71.3898 64.1172 72.2161Z" fill="black"/>
<path d="M79.4454 74.4969L76.6604 72.0981C77.306 71.3038 78.4515 71.1989 79.2195 71.8605C79.9875 72.5236 80.0896 73.7041 79.4454 74.4969Z" fill="black"/>
<path d="M78.4966 77.5223C78.4995 78.3749 77.8306 79.0657 77.0042 79.0657C76.1779 79.0657 75.5046 78.3749 75.5017 77.5223C75.4988 76.6698 76.1663 75.979 76.994 75.9775C77.8218 75.9775 78.4951 76.6683 78.498 77.5209L78.4966 77.5223Z" fill="black"/>
<path d="M70.2695 74.9766L70.8364 85.5221L75.8789 84.1973L70.2695 74.9766Z" fill="#F08F91"/>
<path d="M44.869 70.8565C44.9186 72.7161 45.2363 74.5043 45.7916 76.1934C46.1574 75.5988 46.6193 75.1368 47.1163 74.6981C49.7876 72.3416 53.2081 70.5738 56.8602 69.1674H56.8748C65.0594 66.0326 74.6153 65.5444 82.2402 68.2129C82.0756 66.6039 81.7855 65.0897 81.223 63.6702C78.4365 56.4752 72.8126 52.705 63.825 53.6305C53.2839 54.7162 44.5907 60.5194 44.869 70.8565Z" fill="#00AAA4"/>
<path d="M64.1637 64.4922C66.6106 63.6761 72.8525 63.1951 74.6772 63.7635C74.6772 63.7635 76.0121 62.7098 76.869 61.3661C77.7245 60.0224 77.4316 58.329 76.6315 57.9851C75.8299 57.6411 75.7775 58.6831 72.6718 60.2075C72.6718 60.2075 73.4311 58.3494 72.9269 57.099C72.4226 55.85 71.3544 58.0929 69.0473 59.5371C66.7389 60.9814 64.4596 61.7203 64.1652 64.4907L64.1637 64.4922Z" fill="black"/>
<path d="M32.2377 95.0707C30.2017 93.4078 17.8476 107.93 23.0125 112.106C28.1789 116.28 34.4922 105.75 33.6411 100.612C32.7914 95.47 32.2377 95.0707 32.2377 95.0707Z" fill="#2F4D56"/>
<path d="M22.2993 86.9137C25.3977 83.1493 33.6129 74.1093 35.4317 72.4872C37.1936 70.9162 38.3391 71.0721 39.4729 70.7049C40.7496 70.2925 41.9986 69.421 42.8409 68.6121C43.4443 68.035 43.9456 67.3632 44.4717 66.7175C46.2439 64.5461 48.3308 62.6311 50.648 61.0455C53.0847 59.3797 55.7634 58.1424 58.2584 56.5641C59.7449 55.6197 61.3655 54.0195 59.672 52.3902C59.1678 51.9034 58.512 51.5988 57.8314 51.4225C53.6021 50.3193 49.813 51.6251 45.5924 52.5097C43.7576 52.8944 41.9476 53.3972 40.1987 54.0691C39.3491 54.3955 38.5023 54.754 37.7868 55.3107C36.6719 56.1793 34.7234 58.189 33.8271 59.2792C30.9226 62.8089 28.4728 63.9034 25.6265 66.343C22.2877 69.2053 7.3293 79.7012 4.16828 82.8229C1.55231 85.4068 2.37279 87.5477 2.69779 88.288C4.5603 92.5318 6.77986 94.1175 9.39875 96.8078C10.2644 97.6967 11.1374 98.5799 12.0133 99.4616C15.4133 102.888 18.8323 106.104 22.378 109.379C26.1687 112.88 27.7164 114.563 31.0858 117.928C33.078 119.919 34.6389 122.234 36.1837 125.394C42.2886 126.773 46.4479 113.965 44.275 106.537C43.7212 104.645 42.2755 103.136 40.7219 101.91C34.4961 96.9972 22.2964 86.9122 22.2964 86.9122L22.2993 86.9137Z" fill="#F2A3A7"/>
<path d="M22.2998 86.9138C22.2998 86.9138 19.3633 90.4858 14.5642 91.7333C14.5642 91.7333 18.4466 92.889 24.0195 88.3318L22.2998 86.9138Z" fill="#F08F91"/>
<path d="M43.7396 103.325C42.3521 102.244 38.9696 99.9323 32.2366 95.0706C32.2366 95.0706 33.1824 97.3849 31.1363 102.923C29.0901 108.459 25.2922 111.83 23.0129 112.106C23.0129 112.106 26.7496 115.407 30.1555 119.089C33.5613 122.771 36.3886 125.41 38.2365 129.556C38.2365 129.556 43.4802 128.543 45.1692 119.938C46.3555 113.89 46.2929 106.718 43.7425 103.325H43.7396Z" fill="#E1E2E1"/>
<path d="M55.5028 323.384C55.8307 323.722 55.6281 326.216 55.2186 326.786C54.777 327.398 52.5021 329.243 48.2626 329.317C44.214 329.389 40.6406 328.657 38.354 327.039C36.0674 325.422 35.0093 323.715 34.9102 321.424C34.8096 319.133 35.1842 316.949 34.1844 315.136C33.2605 313.462 31.9955 311.811 31.6924 310.915C31.0322 308.964 31.669 306.011 31.669 306.011L55.5028 323.384Z" fill="black"/>
<path d="M45.6824 304.058C45.7043 304.906 45.8019 305.755 46.0366 306.619C46.5248 308.417 47.3234 310.128 48.2357 311.763C48.705 312.606 49.2049 313.435 49.7893 314.206C50.9319 315.711 52.3834 316.973 53.6003 318.423C54.8172 319.874 55.8242 321.608 55.8242 323.467C55.8242 326.614 52.3338 327.497 49.6639 327.822C46.8148 328.17 43.8083 327.86 41.0947 326.936C38.0765 325.908 35.9924 323.435 35.647 320.375C35.5494 319.496 35.6499 318.607 35.5946 317.727C35.4649 315.714 34.5205 313.833 33.4318 312.106C32.7993 311.106 32.1071 310.124 31.7063 309.018C30.9863 307.031 31.7675 304.882 32.4 302.975C32.945 301.329 33.3808 299.344 33.9652 299.533C33.9492 299.87 33.9492 300.607 33.9492 300.607C34.1226 300.982 34.5453 301.25 34.6458 301.68C34.7493 302.129 34.8731 302.573 35.0553 302.997C35.3351 303.643 35.768 304.246 36.3757 304.609C36.4792 303.426 36.5827 302.244 36.6876 301.062C36.7196 300.696 36.7648 300.3 37.0198 300.033C37.2778 299.762 37.6815 299.699 38.0546 299.651C40.312 299.358 42.6103 299.065 44.8517 299.456C45.1884 299.514 45.5571 299.612 45.7393 299.899C45.8879 300.134 45.869 300.432 45.8471 300.709C45.7495 301.849 45.6489 302.954 45.6795 304.058H45.6824Z" fill="#00AAA4"/>
<path d="M42.5506 299.268H42.5141C41.0291 299.268 39.5338 299.459 38.0575 299.651C37.6844 299.699 37.2822 299.762 37.0228 300.033C36.7677 300.3 36.7225 300.695 36.6905 301.062C36.5855 302.245 36.4821 303.427 36.3786 304.609C35.7709 304.246 35.338 303.644 35.0582 302.997C34.8746 302.573 34.7522 302.127 34.6487 301.68C34.5481 301.25 34.1255 300.982 33.9521 300.607V300.604V300.601V300.598C33.9521 300.517 33.9521 299.848 33.9681 299.533C33.9419 299.524 33.9156 299.52 33.8894 299.52C33.3444 299.52 32.9232 301.401 32.4029 302.975C31.9511 304.338 31.4236 305.825 31.4221 307.288C31.4221 307.871 31.5052 308.451 31.7092 309.018C32.11 310.124 32.8022 311.105 33.4347 312.106C34.5248 313.833 35.4692 315.714 35.5974 317.727C35.6106 317.941 35.6149 318.154 35.6149 318.368C35.6149 318.713 35.6047 319.059 35.6033 319.404C35.6033 319.728 35.612 320.053 35.6485 320.375C35.9939 323.435 38.0779 325.908 41.0961 326.936C43.0869 327.614 45.2321 327.96 47.3599 327.96H47.3963C48.157 327.959 48.9163 327.912 49.6639 327.822C52.3338 327.497 55.8242 326.614 55.8242 323.467C55.8242 321.608 54.8157 319.874 53.6003 318.423C52.3834 316.973 50.9319 315.71 49.7893 314.206C49.2049 313.435 48.705 312.606 48.2357 311.763C47.3234 310.128 46.5248 308.417 46.0366 306.619C45.8019 305.756 45.7043 304.908 45.6824 304.058C45.6781 303.92 45.6766 303.781 45.6766 303.644C45.6766 302.678 45.764 301.706 45.85 300.709C45.8573 300.612 45.8661 300.512 45.8661 300.413C45.8661 300.23 45.8398 300.05 45.7436 299.899C45.5615 299.612 45.1927 299.514 44.8561 299.456C44.0939 299.323 43.3244 299.269 42.552 299.268H42.5506Z" fill="#00A595"/>
<path d="M48.6254 312.444C47.4945 311.505 44.8552 311.354 43.4051 311.43C41.5863 311.526 40.0882 312.077 39.224 312.639C38.8407 312.888 38.3277 312.816 38.0216 312.479C37.6515 312.077 37.7214 311.45 38.1834 311.151C39.1001 310.555 40.744 309.736 42.8936 309.7C46.4583 309.641 47.4683 310.3 47.4683 310.3C47.4683 310.3 49.0335 311.421 48.6283 312.442L48.6254 312.444Z" fill="#144A3F"/>
<path d="M51.1607 315.803C49.7266 314.854 46.8162 314.825 45.3632 314.901C43.5459 314.997 42.1541 315.63 41.2914 316.194C40.9081 316.443 40.3951 316.369 40.0891 316.033C39.7203 315.631 39.7889 315.004 40.2508 314.706C41.1675 314.11 42.9164 313.161 45.0674 313.126C48.6336 313.068 49.5197 313.836 49.5197 313.836C49.5197 313.836 50.9872 314.492 51.1621 315.803H51.1607Z" fill="#144A3F"/>
<path d="M41.6602 306.254C44.1275 306.133 45.1535 306.461 46.1037 306.864C46.71 307.245 47.0714 308.248 46.6546 308.475C45.8865 307.999 44.4729 307.742 42.7241 307.725C41.5509 307.715 40.0513 308.105 38.8256 308.567C38.5152 308.685 38.145 308.853 37.8215 309.009C37.3828 309.22 36.8523 309.025 36.6716 308.586C36.5186 308.213 36.6716 307.788 37.0345 307.595C37.9206 307.126 39.6636 306.352 41.6602 306.254Z" fill="#144A3F"/>
<path d="M104.561 310.784C104.855 311.489 104.689 312.772 104.251 313.569C103.813 314.365 99.3786 316.542 93.5958 315.844C87.8101 315.146 83.9495 312.613 81.8145 311.042C79.6809 309.469 77.3914 309.076 74.5262 308.76C71.6595 308.443 69.4997 307.452 68.943 306.085C68.3848 304.718 69.2345 302.461 69.2345 302.461L104.561 310.784Z" fill="black"/>
<path d="M82.0245 292.545C82.5564 292.452 82.9995 292.287 83.5664 292.114C83.8476 292.028 84.1595 291.943 84.4291 292.061C84.7935 292.22 84.9144 292.662 84.9917 293.048C85.152 293.838 85.1797 294.851 85.4901 295.584C85.7728 296.248 86.5103 296.884 87.0276 297.368C88.3713 298.624 89.9409 299.635 91.5119 300.585C93.354 301.697 95.1699 302.581 97.0805 303.558C99.029 304.555 101.651 305.242 103.158 306.37C105.353 308.014 105.44 311.855 102.763 313.228C100.453 314.411 94.4835 315.51 88.399 313.444C85.0864 312.319 81.5421 308.553 77.1423 307.974C74.3442 307.606 70.6133 307.173 68.9184 304.96C68.3019 303.985 68.8382 301.267 69.3381 298.045C69.787 295.163 70.1994 290.652 71.1205 290.949C71.1175 290.949 71.4673 292.016 71.5358 292.131C71.7573 292.5 72.0372 292.831 72.3111 293.163C72.5516 293.456 72.8314 293.641 73.0967 293.899C73.4362 294.231 73.7102 294.61 74.0877 294.909C74.5526 295.279 75.1122 295.555 75.7068 295.578C75.9895 295.59 76.2781 295.541 76.5229 295.403C76.9995 295.132 77.0636 294.511 77.4484 294.125C77.8885 293.685 78.4306 293.347 79.0106 293.119C79.8209 292.802 80.6851 292.676 81.5479 292.606C81.717 292.593 81.8729 292.573 82.023 292.547L82.0245 292.545Z" fill="#00AAA4"/>
<path d="M95.5319 314.601C98.7366 314.601 101.392 313.93 102.762 313.228C104.142 312.52 104.788 311.156 104.789 309.775C104.789 308.478 104.221 307.167 103.157 306.37C101.65 305.24 99.0281 304.555 97.0796 303.558C95.169 302.58 93.3531 301.697 91.511 300.585C89.94 299.635 88.3704 298.624 87.0267 297.367C86.5093 296.884 85.7719 296.248 85.4892 295.584C85.1802 294.852 85.1511 293.838 84.9908 293.048C84.9121 292.663 84.7911 292.22 84.4282 292.061C84.332 292.019 84.2329 292.003 84.1294 292.003C83.9414 292.003 83.7462 292.058 83.564 292.112C82.9971 292.286 82.554 292.45 82.0221 292.543C81.872 292.57 81.716 292.59 81.547 292.603C80.6842 292.673 79.82 292.799 79.0097 293.116C78.4297 293.344 77.8876 293.682 77.4474 294.122C77.0612 294.508 76.9986 295.129 76.522 295.4C76.3005 295.527 76.0425 295.576 75.7875 295.576C75.7598 295.576 75.7336 295.576 75.7059 295.575C75.1113 295.55 74.5517 295.276 74.0868 294.906C73.7108 294.607 73.4368 294.227 73.0957 293.896C72.8305 293.638 72.5522 293.453 72.3102 293.16C72.0362 292.829 71.7564 292.498 71.5349 292.128C71.4649 292.013 71.1195 290.955 71.1195 290.946C71.0904 290.936 71.0627 290.932 71.0336 290.932C70.1708 290.932 69.7715 295.25 69.3357 298.042C68.9962 300.231 68.6391 302.19 68.6391 303.525C68.6391 304.154 68.7178 304.645 68.916 304.957C70.6109 307.17 74.3418 307.604 77.1399 307.971C81.5397 308.55 85.0826 312.316 88.3966 313.441C90.8741 314.282 93.3312 314.598 95.5304 314.598L95.5319 314.601Z" fill="#00A595"/>
<path d="M88.9712 298.928C88.9712 298.928 88.6258 297.838 86.9717 297.44C85.7067 297.136 83.3968 297.95 81.9322 299.022C81.3332 299.46 81.3579 300.356 81.9919 300.747C82.3679 300.98 82.8459 300.95 83.1971 300.679C84.159 299.934 86.3013 298.602 88.9727 298.927L88.9712 298.928Z" fill="#144A3F"/>
<path d="M92.8145 301.342C92.8145 301.342 92.0581 300.017 90.4229 299.954C90.4229 299.954 87.0797 299.871 84.9097 301.671C84.3574 302.13 84.3472 302.961 84.9607 303.34C85.3251 303.564 85.7856 303.533 86.1208 303.268C87.0958 302.494 89.0559 300.861 92.813 301.342H92.8145Z" fill="#144A3F"/>
<path d="M97.0801 303.558C97.0801 303.558 96.2231 302.35 94.588 302.288C94.588 302.288 91.4707 302.236 89.3021 304.036C88.7483 304.495 88.7396 305.326 89.3517 305.705C89.716 305.929 90.178 305.9 90.5132 305.634C91.4882 304.86 93.323 303.077 97.0801 303.558Z" fill="#144A3F"/>
<path d="M87.754 167.993C87.9129 181.175 87.0545 225.636 86.7659 232.267C86.5123 238.083 85.4892 295.259 85.4892 295.259C78.7795 297.33 69.5894 295.187 69.5894 295.187C69.5894 295.187 64.9113 259.531 64.611 253.179C64.2205 244.965 65.5394 235.778 65.5394 235.778L62.1073 199.393C62.1073 199.393 58.3488 226.639 56.5387 238.567C54.462 252.237 46.6986 304.58 46.6986 304.58C40.5266 306.958 31.8757 303.579 31.8757 303.579C31.8757 303.579 32.3173 262.856 32.9425 249.011C33.3739 239.463 36.0627 234.81 36.3527 232.163C36.3527 232.163 37.6906 182.534 37.8305 169.967C37.9223 161.54 38.8463 152.277 38.8463 152.277C38.8463 152.277 48.1253 153.017 48.9429 150.343C49.7605 147.667 48.9896 121.899 48.5975 116.892C48.5975 116.892 68.0971 112.594 84.9602 115.767C84.9602 115.767 87.5981 154.811 87.7584 167.991L87.754 167.993Z" fill="#144A3F"/>
<path d="M48.5109 157.573C48.6129 166.333 47.0492 171.775 44.7101 173.666C42.3696 175.559 37.7395 175.418 37.7395 175.418V174.114C37.7395 174.114 42.1087 174.756 44.0587 172.719C46.0115 170.682 47.8026 167.77 48.5124 157.573H48.5109Z" fill="#2F4D56"/>
<path d="M78.5357 125.081C78.5357 125.081 68.4026 125.044 58.8278 125.729C58.8278 125.729 58.7636 133.06 59.59 135.737C60.4163 138.414 66.7923 142.406 69.4403 142.393C71.7356 142.381 78.1145 137.86 78.61 135.512C79.1055 133.165 78.5357 125.079 78.5357 125.079V125.081Z" fill="#35C3A5"/>
<path d="M62.1048 199.393L63.0025 193.765C65.7671 193.358 72.764 189.023 76.9102 185.235C76.9102 185.235 73.1633 191.532 65.2775 195.865L64.9874 231.769L62.1048 199.392V199.393Z" fill="#2F4D56"/>
<path d="M43.7398 103.325C45.5586 102.867 46.5875 103.249 47.5056 105.527C48.4238 107.805 49.4833 115.232 49.8374 122.167C49.8374 122.167 54.0492 122.924 56.9727 121.692C56.9727 121.692 56.62 112.587 55.6304 107.884C55.2821 106.231 54.7793 104.903 54.2707 103.876C53.4342 102.187 51.5789 101.251 49.7135 101.591L43.049 102.805L43.7398 103.325Z" fill="#2F4D56"/>
<path d="M51.7148 119.1C51.7148 120.008 52.4566 120.742 53.3718 120.742C54.287 120.742 55.0273 120.006 55.0273 119.1C55.0273 118.193 54.2856 117.457 53.3718 117.457C52.458 117.457 51.7148 118.193 51.7148 119.1Z" fill="#00AAA4"/>
<path d="M68.1144 100.9C70.1664 100.842 73.5999 102.318 74.8795 105.526C76.2611 108.99 76.2684 116.676 76.3471 120.496C76.3471 120.496 79.3434 121.834 82.8906 120.496C82.8906 120.496 82.8775 108.397 80.8022 104.393C78.727 100.389 74.7148 100.141 72.5958 99.9848C70.4797 99.8289 68.1144 99.9848 68.1144 99.9848V100.899V100.9Z" fill="#2F4D56"/>
<path d="M77.7889 117.817C77.7889 118.724 78.5308 119.46 79.446 119.46C80.3612 119.46 81.1016 118.724 81.1016 117.817C81.1016 116.911 80.3612 116.175 79.446 116.175C78.5308 116.175 77.7889 116.911 77.7889 117.817Z" fill="#00AAA4"/>
<path d="M257.223 162.516V33.6165H411.438" stroke="#2D2D2D" stroke-width="2.83535" stroke-linecap="round" stroke-linejoin="round"/>
<path fill-rule="evenodd" clip-rule="evenodd" d="M253.827 25.1128C254.578 23.9689 255.854 23.2793 257.222 23.2793C258.59 23.2793 259.866 23.9689 260.616 25.1128C265.9 33.1646 276.075 48.6716 281.773 57.357C282.591 58.6035 282.661 60.1994 281.95 61.5134C281.242 62.825 279.87 63.6451 278.379 63.6451H236.063C234.572 63.6451 233.2 62.8274 232.491 61.5134C231.783 60.2017 231.851 58.6058 232.668 57.357C238.367 48.6716 248.544 33.1646 253.825 25.1128H253.827Z" fill="#C03744"/>
<path fill-rule="evenodd" clip-rule="evenodd" d="M254.526 37.5979C254.491 37.076 254.673 36.5612 255.029 36.1791C255.385 35.797 255.886 35.5803 256.411 35.5803H256.63C257.154 35.5803 257.652 35.797 258.011 36.1791C258.368 36.5612 258.552 37.076 258.514 37.5979C258.286 40.9342 257.836 47.4809 257.659 50.0436C257.617 50.6424 257.121 51.1083 256.52 51.1083C255.919 51.1083 255.423 50.6447 255.381 50.0436C255.204 47.4809 254.756 40.9342 254.526 37.5979Z" fill="white"/>
<path fill-rule="evenodd" clip-rule="evenodd" d="M256.521 53.1399C257.528 53.1399 258.343 53.9576 258.343 54.9618C258.343 55.9659 257.525 56.786 256.521 56.786C255.517 56.786 254.699 55.9683 254.699 54.9618C254.699 53.9553 255.517 53.1399 256.521 53.1399Z" fill="white"/>
<path d="M356.14 40.3029C358.47 40.3029 360.662 40.8923 362.575 41.9314C363.281 29.2877 373.753 19.2533 386.574 19.2533C387.387 19.2533 388.193 19.2953 388.988 19.3745C394.36 7.92825 405.99 0 419.473 0C438.065 0 453.136 15.0714 453.136 33.663C453.136 34.136 453.124 34.6066 453.103 35.0772C454.753 34.5274 456.514 34.2222 458.35 34.2222C467.492 34.2222 474.903 41.6332 474.903 50.7753C474.903 59.9174 467.492 67.3284 458.35 67.3284H356.138C348.675 67.3284 342.625 61.2779 342.625 53.8157C342.625 46.3534 348.675 40.3029 356.138 40.3029" fill="#7B8A96"/>
<path d="M348.173 40.3029C350.502 40.3029 352.695 40.8923 354.607 41.9314C355.313 29.2877 365.786 19.2533 378.606 19.2533C379.422 19.2533 380.226 19.2953 381.02 19.3745C386.395 7.92825 398.023 0 411.505 0C430.097 0 445.171 15.0714 445.171 33.663C445.171 34.136 445.159 34.6066 445.138 35.0772C446.788 34.5274 448.549 34.2222 450.385 34.2222C459.527 34.2222 466.938 41.6332 466.938 50.7753C466.938 59.9174 459.527 67.3284 450.385 67.3284H348.175C340.713 67.3284 334.662 61.2779 334.662 53.8157C334.662 46.3534 340.713 40.3029 348.175 40.3029" fill="#DAE7F2"/>
<path d="M365.416 67.3284V70.2569C365.416 70.6856 365.763 71.0327 366.192 71.0327H377.146C377.736 71.0327 378.214 70.5551 378.214 69.9657V67.3307H365.416V67.3284Z" fill="#195C4E"/>
<path fill-rule="evenodd" clip-rule="evenodd" d="M370.158 78.467H373.471V99.4444H370.158V78.467Z" fill="#195C4E"/>
<path d="M374.145 78.467H369.479C368.717 78.467 368.1 77.8497 368.1 77.0878V71.0327H375.536V77.0785C375.536 77.845 374.914 78.467 374.148 78.467" fill="#55AC72"/>
<path d="M372.781 73.9636V75.8134C372.781 76.2864 372.444 76.6824 371.999 76.7733V71.96H371.607V75.2589C371.071 75.1401 370.671 74.6625 370.671 74.0917V73.1598H370.279V74.0917C370.279 74.8792 370.855 75.5315 371.607 75.655V77.5375H371.999V77.1694C372.66 77.0738 373.173 76.503 373.173 75.8158V73.9659H372.781V73.9636Z" fill="white"/>
<path d="M389.391 67.3284V70.2569C389.391 70.6856 389.738 71.0327 390.166 71.0327H401.121C401.711 71.0327 402.188 70.5551 402.188 69.9657V67.3307H389.393L389.391 67.3284Z" fill="#195C4E"/>
<path fill-rule="evenodd" clip-rule="evenodd" d="M394.131 78.467H397.444V99.4444H394.131V78.467Z" fill="#195C4E"/>
<path d="M398.116 78.467H393.45C392.688 78.467 392.07 77.8497 392.07 77.0878V71.0327H399.507V77.0785C399.507 77.845 398.885 78.467 398.118 78.467" fill="#55AC72"/>
<path d="M396.754 73.9636V75.8134C396.754 76.2864 396.416 76.6824 395.971 76.7733V71.96H395.58V75.2589C395.044 75.1401 394.643 74.6625 394.643 74.0917V73.1598H394.252V74.0917C394.252 74.8792 394.827 75.5315 395.58 75.655V77.5375H395.971V77.1694C396.633 77.0738 397.146 76.503 397.146 75.8158V73.9659H396.754V73.9636Z" fill="white"/>
<path d="M413.361 67.3284V70.2569C413.361 70.6856 413.708 71.0327 414.137 71.0327H425.092C425.681 71.0327 426.159 70.5551 426.159 69.9657V67.3307H413.361V67.3284Z" fill="#195C4E"/>
<path fill-rule="evenodd" clip-rule="evenodd" d="M418.104 78.467H421.419V99.4444H418.104V78.467Z" fill="#195C4E"/>
<path d="M422.089 78.467H417.422C416.66 78.467 416.043 77.8497 416.043 77.0878V71.0327H423.477V77.0785C423.477 77.845 422.855 78.467 422.089 78.467Z" fill="#55AC72"/>
<path d="M420.725 73.9636V75.8134C420.725 76.2864 420.387 76.6824 419.942 76.7733V71.96H419.551V75.2589C419.015 75.1401 418.614 74.6625 418.614 74.0917V73.1598H418.223V74.0917C418.223 74.8792 418.798 75.5315 419.551 75.655V77.5375H419.942V77.1694C420.604 77.0738 421.116 76.503 421.116 75.8158V73.9659H420.725V73.9636Z" fill="white"/>
<path d="M437.336 67.3284V70.2569C437.336 70.6856 437.683 71.0327 438.112 71.0327H449.066C449.656 71.0327 450.133 70.5551 450.133 69.9657V67.3307H437.338L437.336 67.3284Z" fill="#195C4E"/>
<path fill-rule="evenodd" clip-rule="evenodd" d="M442.076 78.467H445.389V99.4444H442.076V78.467Z" fill="#195C4E"/>
<path d="M446.063 78.467H441.397C440.635 78.467 440.018 77.8497 440.018 77.0878V71.0327H447.454V77.0785C447.454 77.845 446.832 78.467 446.066 78.467" fill="#55AC72"/>
<path d="M444.699 73.9636V75.8134C444.699 76.2864 444.364 76.6824 443.917 76.7733V71.96H443.525V75.2589C442.989 75.1401 442.589 74.6625 442.589 74.0917V73.1598H442.197V74.0917C442.197 74.8792 442.773 75.5315 443.525 75.655V77.5375H443.917V77.1694C444.578 77.0738 445.091 76.503 445.091 75.8158V73.9659H444.699V73.9636Z" fill="white"/>
<path fill-rule="evenodd" clip-rule="evenodd" d="M369.722 161.542C369.722 160.142 369.165 158.798 368.175 157.808C367.185 156.818 365.841 156.261 364.44 156.261H154.073C152.672 156.261 151.328 156.818 150.338 157.808C149.348 158.798 148.791 160.142 148.791 161.542V300.947H369.722V161.542Z" fill="black"/>
<path fill-rule="evenodd" clip-rule="evenodd" d="M359.162 166.803H160.398V292.907H359.162V166.803Z" fill="white"/>
<path fill-rule="evenodd" clip-rule="evenodd" d="M399.735 300.947H108.484V309.083H399.735V300.947Z" fill="#444444"/>
<path fill-rule="evenodd" clip-rule="evenodd" d="M400.561 308.083H109.311L116.547 312.505H393.838L400.561 308.083Z" fill="black"/>
<path fill-rule="evenodd" clip-rule="evenodd" d="M274.22 300.947H233.996V302.303C233.996 302.972 234.262 303.613 234.735 304.085C235.208 304.558 235.848 304.824 236.517 304.824H271.704C272.372 304.824 273.013 304.558 273.484 304.085C273.957 303.613 274.222 302.972 274.222 302.303V300.947H274.22Z" fill="black"/>
<path fill-rule="evenodd" clip-rule="evenodd" d="M322.723 99.4888H483.741V312.615H322.723V99.4888Z" fill="#E3E3E3"/>
<path fill-rule="evenodd" clip-rule="evenodd" d="M330.387 177.804H478.083V187.799H330.387V177.804Z" fill="#2D2D2D"/>
<path fill-rule="evenodd" clip-rule="evenodd" d="M330.387 189.833H478.083V199.828H330.387V189.833Z" fill="#2D2D2D"/>
<path fill-rule="evenodd" clip-rule="evenodd" d="M467.221 179.873H472.912V186.553H467.221V179.873Z" fill="#CF778D"/>
<path fill-rule="evenodd" clip-rule="evenodd" d="M458.859 179.873H464.551V186.553H458.859V179.873Z" fill="#CF778D"/>
<path fill-rule="evenodd" clip-rule="evenodd" d="M450.379 179.787H456.071V186.467H450.379V179.787Z" fill="#CF778D"/>
<path fill-rule="evenodd" clip-rule="evenodd" d="M352.422 179.885H358.114V186.564H352.422V179.885Z" fill="#55AC72"/>
<path fill-rule="evenodd" clip-rule="evenodd" d="M344.057 179.885H349.748V186.564H344.057V179.885Z" fill="#55AC72"/>
<path fill-rule="evenodd" clip-rule="evenodd" d="M335.58 179.799H341.272V186.478H335.58V179.799Z" fill="#55AC72"/>
<path fill-rule="evenodd" clip-rule="evenodd" d="M395.348 180.621H412.656V185.392H395.348V180.621Z" fill="#CF778D"/>
<path fill-rule="evenodd" clip-rule="evenodd" d="M466.996 191.678H472.688V198.358H466.996V191.678Z" fill="#55AC72"/>
<path fill-rule="evenodd" clip-rule="evenodd" d="M458.631 191.678H464.323V198.358H458.631V191.678Z" fill="#55AC72"/>
<path fill-rule="evenodd" clip-rule="evenodd" d="M450.154 191.592H455.846V198.272H450.154V191.592Z" fill="#55AC72"/>
<path fill-rule="evenodd" clip-rule="evenodd" d="M352.195 191.359H357.887V198.039H352.195V191.359Z" fill="#55AC72"/>
<path fill-rule="evenodd" clip-rule="evenodd" d="M343.832 191.359H349.524V198.039H343.832V191.359Z" fill="#55AC72"/>
<path fill-rule="evenodd" clip-rule="evenodd" d="M335.352 191.273H341.043V197.952H335.352V191.273Z" fill="#55AC72"/>
<path fill-rule="evenodd" clip-rule="evenodd" d="M395.471 192.773H412.779V197.545H395.471V192.773Z" fill="#CF778D"/>
<path fill-rule="evenodd" clip-rule="evenodd" d="M330.619 209.154H478.316V219.149H330.619V209.154Z" fill="#2D2D2D"/>
<path fill-rule="evenodd" clip-rule="evenodd" d="M330.619 221.183H478.316V231.177H330.619V221.183Z" fill="#2D2D2D"/>
<path fill-rule="evenodd" clip-rule="evenodd" d="M467.455 211.22H473.147V217.9H467.455V211.22Z" fill="#CF778D"/>
<path fill-rule="evenodd" clip-rule="evenodd" d="M459.09 211.22H464.782V217.9H459.09V211.22Z" fill="#CF778D"/>
<path fill-rule="evenodd" clip-rule="evenodd" d="M450.613 211.134H456.305V217.814H450.613V211.134Z" fill="#CF778D"/>
<path fill-rule="evenodd" clip-rule="evenodd" d="M352.654 211.232H358.346V217.912H352.654V211.232Z" fill="#55AC72"/>
<path fill-rule="evenodd" clip-rule="evenodd" d="M344.291 211.232H349.983V217.912H344.291V211.232Z" fill="#55AC72"/>
<path fill-rule="evenodd" clip-rule="evenodd" d="M335.811 211.146H341.502V217.825H335.811V211.146Z" fill="#55AC72"/>
<path fill-rule="evenodd" clip-rule="evenodd" d="M395.58 211.971H412.888V216.742H395.58V211.971Z" fill="#CF778D"/>
<path fill-rule="evenodd" clip-rule="evenodd" d="M467.229 223.028H472.92V229.705H467.229V223.028Z" fill="#55AC72"/>
<path fill-rule="evenodd" clip-rule="evenodd" d="M458.865 223.028H464.557V229.705H458.865V223.028Z" fill="#55AC72"/>
<path fill-rule="evenodd" clip-rule="evenodd" d="M450.385 222.939H456.076V229.619H450.385V222.939Z" fill="#55AC72"/>
<path fill-rule="evenodd" clip-rule="evenodd" d="M352.426 222.708H358.12V229.388H352.426V222.708Z" fill="#55AC72"/>
<path fill-rule="evenodd" clip-rule="evenodd" d="M344.064 222.708H349.756V229.388H344.064V222.708Z" fill="#55AC72"/>
<path fill-rule="evenodd" clip-rule="evenodd" d="M335.584 222.62H341.276V229.3H335.584V222.62Z" fill="#55AC72"/>
<path fill-rule="evenodd" clip-rule="evenodd" d="M395.701 224.123H413.009V228.894H395.701V224.123Z" fill="#CF778D"/>
<path fill-rule="evenodd" clip-rule="evenodd" d="M330.941 241.331H478.638V251.325H330.941V241.331Z" fill="#2D2D2D"/>
<path fill-rule="evenodd" clip-rule="evenodd" d="M330.941 253.359H478.638V263.354H330.941V253.359Z" fill="#2D2D2D"/>
<path fill-rule="evenodd" clip-rule="evenodd" d="M467.775 243.399H473.467V250.079H467.775V243.399Z" fill="#CF778D"/>
<path fill-rule="evenodd" clip-rule="evenodd" d="M459.412 243.399H465.104V250.079H459.412V243.399Z" fill="#CF778D"/>
<path fill-rule="evenodd" clip-rule="evenodd" d="M450.934 243.313H456.625V249.99H450.934V243.313Z" fill="#CF778D"/>
<path fill-rule="evenodd" clip-rule="evenodd" d="M352.977 243.411H358.668V250.091H352.977V243.411Z" fill="#55AC72"/>
<path fill-rule="evenodd" clip-rule="evenodd" d="M344.611 243.411H350.303V250.091H344.611V243.411Z" fill="#55AC72"/>
<path fill-rule="evenodd" clip-rule="evenodd" d="M336.131 243.323H341.823V250.002H336.131V243.323Z" fill="#55AC72"/>
<path fill-rule="evenodd" clip-rule="evenodd" d="M395.902 244.147H413.21V248.919H395.902V244.147Z" fill="#CF778D"/>
<path fill-rule="evenodd" clip-rule="evenodd" d="M467.551 255.204H473.242V261.884H467.551V255.204Z" fill="#55AC72"/>
<path fill-rule="evenodd" clip-rule="evenodd" d="M459.186 255.204H464.877V261.884H459.186V255.204Z" fill="#55AC72"/>
<path fill-rule="evenodd" clip-rule="evenodd" d="M450.705 255.118H456.397V261.798H450.705V255.118Z" fill="#55AC72"/>
<path fill-rule="evenodd" clip-rule="evenodd" d="M352.748 254.885H358.442V261.565H352.748V254.885Z" fill="#55AC72"/>
<path fill-rule="evenodd" clip-rule="evenodd" d="M344.387 254.885H350.078V261.565H344.387V254.885Z" fill="#55AC72"/>
<path fill-rule="evenodd" clip-rule="evenodd" d="M335.906 254.799H341.598V261.479H335.906V254.799Z" fill="#55AC72"/>
<path fill-rule="evenodd" clip-rule="evenodd" d="M396.023 256.299H413.331V261.071H396.023V256.299Z" fill="#CF778D"/>
<path fill-rule="evenodd" clip-rule="evenodd" d="M331.959 146.282H479.656V156.277H331.959V146.282Z" fill="#2D2D2D"/>
<path fill-rule="evenodd" clip-rule="evenodd" d="M331.959 158.311H479.656V168.306H331.959V158.311Z" fill="#2D2D2D"/>
<path fill-rule="evenodd" clip-rule="evenodd" d="M468.795 148.351H474.487V155.028H468.795V148.351Z" fill="#CF778D"/>
<path fill-rule="evenodd" clip-rule="evenodd" d="M460.432 148.351H466.123V155.028H460.432V148.351Z" fill="#CF778D"/>
<path fill-rule="evenodd" clip-rule="evenodd" d="M451.953 148.263H457.645V154.942H451.953V148.263Z" fill="#CF778D"/>
<path fill-rule="evenodd" clip-rule="evenodd" d="M353.994 148.361H359.686V155.04H353.994V148.361Z" fill="#55AC72"/>
<path fill-rule="evenodd" clip-rule="evenodd" d="M345.631 148.361H351.323V155.04H345.631V148.361Z" fill="#55AC72"/>
<path fill-rule="evenodd" clip-rule="evenodd" d="M337.152 148.274H342.844V154.954H337.152V148.274Z" fill="#55AC72"/>
<path fill-rule="evenodd" clip-rule="evenodd" d="M396.92 149.099H414.228V153.871H396.92V149.099Z" fill="#CF778D"/>
<path fill-rule="evenodd" clip-rule="evenodd" d="M468.568 160.156H474.26V166.833H468.568V160.156Z" fill="#55AC72"/>
<path fill-rule="evenodd" clip-rule="evenodd" d="M460.205 160.156H465.897V166.833H460.205V160.156Z" fill="#55AC72"/>
<path fill-rule="evenodd" clip-rule="evenodd" d="M451.727 160.068H457.418V166.747H451.727V160.068Z" fill="#55AC72"/>
<path fill-rule="evenodd" clip-rule="evenodd" d="M353.768 159.837H359.459V166.517H353.768V159.837Z" fill="#55AC72"/>
<path fill-rule="evenodd" clip-rule="evenodd" d="M345.404 159.837H351.096V166.517H345.404V159.837Z" fill="#55AC72"/>
<path fill-rule="evenodd" clip-rule="evenodd" d="M336.924 159.749H342.616V166.428H336.924V159.749Z" fill="#55AC72"/>
<path fill-rule="evenodd" clip-rule="evenodd" d="M397.043 161.251H414.351V166.023H397.043V161.251Z" fill="#CF778D"/>
<path fill-rule="evenodd" clip-rule="evenodd" d="M478.964 113.989H331.268V123.984H478.964V113.989Z" fill="#2D2D2D"/>
<path fill-rule="evenodd" clip-rule="evenodd" d="M478.964 126.018H331.268V136.013H478.964V126.018Z" fill="#2D2D2D"/>
<path fill-rule="evenodd" clip-rule="evenodd" d="M342.129 116.058H336.438V122.738H342.129V116.058Z" fill="#55AC72"/>
<path fill-rule="evenodd" clip-rule="evenodd" d="M350.492 116.058H344.801V122.738H350.492V116.058Z" fill="#55AC72"/>
<path fill-rule="evenodd" clip-rule="evenodd" d="M358.971 115.972H353.279V122.649H358.971V115.972Z" fill="#55AC72"/>
<path fill-rule="evenodd" clip-rule="evenodd" d="M456.928 116.07H451.236V122.749H456.928V116.07Z" fill="#CF778D"/>
<path fill-rule="evenodd" clip-rule="evenodd" d="M465.293 116.07H459.602V122.749H465.293V116.07Z" fill="#CF778D"/>
<path fill-rule="evenodd" clip-rule="evenodd" d="M473.772 115.981H468.08V122.661H473.772V115.981Z" fill="#CF778D"/>
<path fill-rule="evenodd" clip-rule="evenodd" d="M414.001 116.806H396.693V121.577H414.001V116.806Z" fill="#CF778D"/>
<path fill-rule="evenodd" clip-rule="evenodd" d="M342.354 127.863H336.662V134.543H342.354V127.863Z" fill="#CF778D"/>
<path fill-rule="evenodd" clip-rule="evenodd" d="M350.719 127.863H345.027V134.543H350.719V127.863Z" fill="#CF778D"/>
<path fill-rule="evenodd" clip-rule="evenodd" d="M359.199 127.777H353.508V134.454H359.199V127.777Z" fill="#CF778D"/>
<path fill-rule="evenodd" clip-rule="evenodd" d="M457.157 127.544H451.465V134.223H457.157V127.544Z" fill="#55AC72"/>
<path fill-rule="evenodd" clip-rule="evenodd" d="M465.518 127.544H459.826V134.223H465.518V127.544Z" fill="#55AC72"/>
<path fill-rule="evenodd" clip-rule="evenodd" d="M473.998 127.458H468.307V134.137H473.998V127.458Z" fill="#55AC72"/>
<path fill-rule="evenodd" clip-rule="evenodd" d="M413.88 128.958H396.572V133.73H413.88V128.958Z" fill="#CF778D"/>
<path fill-rule="evenodd" clip-rule="evenodd" d="M331.393 284.562H478.579V302.138H331.393V284.562Z" fill="#2D2D2D"/>
<path fill-rule="evenodd" clip-rule="evenodd" d="M483.742 99.4886L498.105 99.4443L498.224 312.717L483.742 312.615V99.4886Z" fill="#7B8A96"/>
<path fill-rule="evenodd" clip-rule="evenodd" d="M334.002 288.229H476.121V291.526H334.002V288.229Z" fill="#55AC72"/>
<path fill-rule="evenodd" clip-rule="evenodd" d="M334.002 294.825H476.121V298.121H334.002V294.825Z" fill="#C87D92"/>
<path d="M205.972 255.148V261.637H204.672V255.148H205.972Z" fill="#1E3E29" stroke="#1E3E29" stroke-width="0.0559148" stroke-linejoin="round"/>
<path d="M212.803 261.637H211.503L208.556 257.185V261.637H207.256V255.139H208.556L211.503 259.601V255.139H212.803V261.637Z" fill="#1E3E29" stroke="#1E3E29" stroke-width="0.0559148" stroke-linejoin="round"/>
<path d="M218.5 255.148V256.199H216.771V261.637H215.471V256.199H213.74V255.148H218.5Z" fill="#1E3E29" stroke="#1E3E29" stroke-width="0.0559148" stroke-linejoin="round"/>
<path d="M220.752 256.199V257.825H222.935V258.857H220.752V260.577H223.214V261.637H219.449V255.139H223.214V256.199H220.752Z" fill="#1E3E29" stroke="#1E3E29" stroke-width="0.0559148" stroke-linejoin="round"/>
<path d="M227.74 261.637L226.308 259.109H225.695V261.637H224.393V255.148H226.827C227.328 255.148 227.757 255.237 228.109 255.414C228.463 255.591 228.726 255.829 228.903 256.129C229.08 256.43 229.169 256.765 229.169 257.138C229.169 257.567 229.045 257.951 228.796 258.296C228.549 258.641 228.178 258.876 227.689 259.007L229.241 261.637H227.736H227.74ZM225.695 258.131H226.783C227.137 258.131 227.4 258.044 227.573 257.874C227.747 257.704 227.834 257.467 227.834 257.164C227.834 256.861 227.747 256.635 227.573 256.472C227.4 256.306 227.135 256.225 226.783 256.225H225.695V258.131Z" fill="#1E3E29" stroke="#1E3E29" stroke-width="0.0559148" stroke-linejoin="round"/>
<path d="M235.903 261.637H234.601L231.654 257.185V261.637H230.354V255.139H231.654L234.601 259.601V255.139H235.903V261.637Z" fill="#1E3E29" stroke="#1E3E29" stroke-width="0.0559148" stroke-linejoin="round"/>
<path d="M241.163 260.4H238.579L238.15 261.637H236.785L239.117 255.139H240.632L242.964 261.637H241.589L241.16 260.4H241.163ZM240.809 259.358L239.87 256.644L238.931 259.358H240.809Z" fill="#1E3E29" stroke="#1E3E29" stroke-width="0.0559148" stroke-linejoin="round"/>
<path d="M245.14 260.605H247.279V261.637H243.84V255.148H245.14V260.605Z" fill="#1E3E29" stroke="#1E3E29" stroke-width="0.0559148" stroke-linejoin="round"/>
<path d="M252.557 261.702C252.105 261.702 251.698 261.625 251.334 261.469C250.971 261.313 250.684 261.092 250.475 260.801C250.265 260.509 250.155 260.165 250.148 259.768H251.542C251.56 260.034 251.653 260.246 251.826 260.4C251.996 260.556 252.231 260.633 252.527 260.633C252.823 260.633 253.07 260.561 253.242 260.414C253.415 260.269 253.503 260.078 253.503 259.843C253.503 259.65 253.445 259.494 253.326 259.368C253.207 259.244 253.061 259.146 252.884 259.074C252.707 259.002 252.464 258.925 252.154 258.837C251.733 258.713 251.39 258.59 251.127 258.468C250.864 258.347 250.638 258.166 250.449 257.921C250.26 257.676 250.165 257.35 250.165 256.94C250.165 256.556 250.26 256.22 250.454 255.936C250.645 255.652 250.915 255.433 251.262 255.281C251.609 255.13 252.005 255.053 252.453 255.053C253.121 255.053 253.666 255.216 254.083 255.54C254.5 255.866 254.733 256.318 254.775 256.901H253.345C253.333 256.677 253.238 256.493 253.061 256.348C252.884 256.202 252.651 256.129 252.359 256.129C252.105 256.129 251.903 256.195 251.751 256.325C251.6 256.455 251.523 256.644 251.523 256.891C251.523 257.064 251.581 257.208 251.695 257.325C251.81 257.439 251.952 257.532 252.124 257.604C252.294 257.676 252.534 257.758 252.844 257.851C253.266 257.975 253.608 258.098 253.876 258.224C254.144 258.35 254.372 258.534 254.563 258.781C254.757 259.028 254.852 259.354 254.852 259.757C254.852 260.104 254.761 260.425 254.582 260.724C254.403 261.022 254.139 261.257 253.792 261.434C253.445 261.611 253.033 261.7 252.555 261.7L252.557 261.702Z" fill="#1E3E29" stroke="#1E3E29" stroke-width="0.0559148" stroke-linejoin="round"/>
<path d="M257.28 256.199V257.825H259.466V258.857H257.28V260.577H259.743V261.637H255.98V255.139H259.743V256.199H257.28Z" fill="#1E3E29" stroke="#1E3E29" stroke-width="0.0559148" stroke-linejoin="round"/>
<path d="M264.27 261.637L262.837 259.109H262.224V261.637H260.922V255.148H263.357C263.857 255.148 264.286 255.237 264.64 255.414C264.994 255.591 265.258 255.829 265.435 256.129C265.612 256.43 265.7 256.765 265.7 257.138C265.7 257.567 265.577 257.951 265.328 258.296C265.081 258.641 264.71 258.876 264.221 259.007L265.772 261.637H264.267H264.27ZM262.227 258.131H263.315C263.669 258.131 263.932 258.044 264.104 257.874C264.277 257.704 264.365 257.467 264.365 257.164C264.365 256.861 264.279 256.635 264.104 256.472C263.932 256.306 263.666 256.225 263.315 256.225H262.227V258.131Z" fill="#1E3E29" stroke="#1E3E29" stroke-width="0.0559148" stroke-linejoin="round"/>
<path d="M272.71 255.148L270.329 261.637H268.75L266.371 255.148H267.764L269.549 260.307L271.324 255.148H272.71Z" fill="#1E3E29" stroke="#1E3E29" stroke-width="0.0559148" stroke-linejoin="round"/>
<path d="M274.793 256.199V257.825H276.976V258.857H274.793V260.577H277.255V261.637H273.49V255.139H277.255V256.199H274.793Z" fill="#1E3E29" stroke="#1E3E29" stroke-width="0.0559148" stroke-linejoin="round"/>
<path d="M281.783 261.637L280.353 259.109H279.74V261.637H278.438V255.148H280.872C281.375 255.148 281.802 255.237 282.156 255.414C282.51 255.591 282.773 255.829 282.95 256.129C283.127 256.43 283.216 256.765 283.216 257.138C283.216 257.567 283.092 257.951 282.843 258.296C282.596 258.641 282.226 258.876 281.736 259.007L283.288 261.637H281.783ZM279.738 258.131H280.826C281.18 258.131 281.443 258.044 281.615 257.874C281.788 257.704 281.876 257.467 281.876 257.164C281.876 256.861 281.79 256.635 281.615 256.472C281.441 256.306 281.177 256.225 280.826 256.225H279.738V258.131Z" fill="#1E3E29" stroke="#1E3E29" stroke-width="0.0559148" stroke-linejoin="round"/>
<path d="M287.908 256.199V257.825H290.093V258.857H287.908V260.577H290.37V261.637H286.605V255.139H290.37V256.199H287.908Z" fill="#1E3E29" stroke="#1E3E29" stroke-width="0.0559148" stroke-linejoin="round"/>
<path d="M294.896 261.637L293.466 259.109H292.853V261.637H291.551V255.148H293.985C294.489 255.148 294.915 255.237 295.269 255.414C295.623 255.591 295.887 255.829 296.064 256.129C296.241 256.43 296.329 256.765 296.329 257.138C296.329 257.567 296.206 257.951 295.956 258.296C295.709 258.641 295.339 258.876 294.85 259.007L296.401 261.637H294.896ZM292.853 258.131H293.941C294.295 258.131 294.559 258.044 294.731 257.874C294.903 257.704 294.992 257.467 294.992 257.164C294.992 256.861 294.906 256.635 294.731 256.472C294.559 256.306 294.293 256.225 293.941 256.225H292.853V258.131Z" fill="#1E3E29" stroke="#1E3E29" stroke-width="0.0559148" stroke-linejoin="round"/>
<path d="M300.857 261.637L299.427 259.109H298.814V261.637H297.512V255.148H299.946C300.45 255.148 300.876 255.237 301.23 255.414C301.584 255.591 301.847 255.829 302.025 256.129C302.202 256.43 302.29 256.765 302.29 257.138C302.29 257.567 302.167 257.951 301.917 258.296C301.67 258.641 301.3 258.876 300.811 259.007L302.362 261.637H300.857ZM298.812 258.131H299.9C300.254 258.131 300.517 258.044 300.69 257.874C300.862 257.704 300.95 257.467 300.95 257.164C300.95 256.861 300.864 256.635 300.69 256.472C300.517 256.306 300.252 256.225 299.9 256.225H298.812V258.131Z" fill="#1E3E29" stroke="#1E3E29" stroke-width="0.0559148" stroke-linejoin="round"/>
<path d="M306.477 261.702C305.869 261.702 305.312 261.56 304.805 261.274C304.297 260.989 303.894 260.593 303.595 260.088C303.297 259.582 303.15 259.011 303.15 258.373C303.15 257.735 303.3 257.173 303.595 256.668C303.894 256.162 304.294 255.768 304.805 255.482C305.312 255.198 305.869 255.055 306.477 255.055C307.085 255.055 307.649 255.198 308.155 255.482C308.66 255.766 309.059 256.162 309.355 256.668C309.648 257.173 309.797 257.742 309.797 258.373C309.797 259.004 309.65 259.582 309.355 260.088C309.061 260.593 308.658 260.987 308.15 261.274C307.642 261.558 307.085 261.702 306.477 261.702ZM306.477 260.54C306.869 260.54 307.211 260.451 307.509 260.274C307.808 260.097 308.038 259.845 308.206 259.517C308.374 259.188 308.458 258.809 308.458 258.373C308.458 257.937 308.374 257.56 308.206 257.234C308.038 256.908 307.808 256.658 307.509 256.486C307.211 256.314 306.869 256.225 306.477 256.225C306.086 256.225 305.741 256.311 305.441 256.486C305.14 256.658 304.907 256.91 304.739 257.234C304.572 257.56 304.488 257.94 304.488 258.373C304.488 258.806 304.572 259.188 304.739 259.517C304.907 259.845 305.14 260.097 305.441 260.274C305.741 260.451 306.086 260.54 306.477 260.54Z" fill="#1E3E29" stroke="#1E3E29" stroke-width="0.0559148" stroke-linejoin="round"/>
<path d="M314.111 261.637L312.68 259.109H312.068V261.637H310.768V255.148H313.202C313.703 255.148 314.132 255.237 314.486 255.414C314.84 255.591 315.103 255.829 315.28 256.129C315.457 256.43 315.546 256.765 315.546 257.138C315.546 257.567 315.422 257.951 315.173 258.296C314.926 258.641 314.556 258.876 314.067 259.007L315.618 261.637H314.113H314.111ZM312.065 258.131H313.153C313.507 258.131 313.771 258.044 313.943 257.874C314.115 257.704 314.204 257.467 314.204 257.164C314.204 256.861 314.118 256.635 313.943 256.472C313.771 256.306 313.505 256.225 313.153 256.225H312.065V258.131Z" fill="#1E3E29" stroke="#1E3E29" stroke-width="0.0559148" stroke-linejoin="round"/>
<path d="M231.024 211.43H211.645V221.658C212.481 220.621 213.679 219.773 215.233 219.116C216.787 218.459 218.443 218.128 220.198 218.128C223.387 218.128 225.999 218.827 228.033 220.223C230.067 221.618 231.541 223.403 232.459 225.577C233.377 227.75 233.836 230.073 233.836 232.545C233.836 237.13 232.529 240.82 229.918 243.611C227.306 246.403 223.588 247.798 218.763 247.798C214.217 247.798 210.587 246.661 207.876 244.39C205.164 242.116 203.628 239.145 203.27 235.476H211.405C211.764 237.072 212.572 238.346 213.828 239.304C215.084 240.261 216.689 240.739 218.644 240.739C220.997 240.739 222.77 240 223.967 238.526C225.165 237.051 225.761 235.096 225.761 232.664C225.761 230.232 225.153 228.307 223.937 227.012C222.721 225.716 220.936 225.069 218.583 225.069C216.908 225.069 215.513 225.488 214.397 226.325C213.281 227.161 212.481 228.279 212.004 229.675H203.989V204.073H231.027V211.43H231.024Z" fill="#195C4E" stroke="#1E3E29" stroke-width="0.0559148" stroke-linejoin="round"/>
<path d="M240.236 225.427C240.236 218.529 241.483 213.126 243.976 209.217C246.468 205.31 250.606 203.355 256.386 203.355C262.167 203.355 266.307 205.31 268.797 209.217C271.29 213.124 272.536 218.529 272.536 225.427C272.536 232.326 271.29 237.81 268.797 241.757C266.304 245.706 262.169 247.679 256.386 247.679C250.604 247.679 246.466 245.706 243.976 241.757C241.483 237.81 240.236 232.365 240.236 225.427ZM264.282 225.427C264.282 222.476 264.093 219.994 263.714 217.981C263.334 215.968 262.577 214.324 261.44 213.047C260.303 211.77 258.618 211.134 256.386 211.134C254.154 211.134 252.468 211.772 251.333 213.047C250.196 214.324 249.439 215.968 249.059 217.981C248.679 219.994 248.491 222.478 248.491 225.427C248.491 228.377 248.67 231 249.029 233.053C249.388 235.105 250.145 236.762 251.303 238.017C252.458 239.273 254.154 239.902 256.386 239.902C258.618 239.902 260.314 239.273 261.47 238.017C262.626 236.762 263.385 235.108 263.744 233.053C264.103 231 264.282 228.456 264.282 225.427Z" fill="#195C4E" stroke="#1E3E29" stroke-width="0.0559148" stroke-linejoin="round"/>
<path d="M278.875 225.427C278.875 218.529 280.121 213.126 282.614 209.217C285.107 205.31 289.245 203.355 295.025 203.355C300.805 203.355 304.945 205.31 307.436 209.217C309.929 213.124 311.175 218.529 311.175 225.427C311.175 232.326 309.929 237.81 307.436 241.757C304.943 245.706 300.805 247.679 295.025 247.679C289.245 247.679 285.105 245.706 282.614 241.757C280.121 237.81 278.875 232.365 278.875 225.427ZM302.921 225.427C302.921 222.476 302.732 219.994 302.352 217.981C301.972 215.968 301.215 214.324 300.078 213.047C298.941 211.77 297.257 211.134 295.025 211.134C292.793 211.134 291.106 211.772 289.969 213.047C288.833 214.324 288.075 215.968 287.696 217.981C287.316 219.994 287.127 222.478 287.127 225.427C287.127 228.377 287.306 231 287.665 233.053C288.024 235.105 288.781 236.762 289.939 238.017C291.095 239.273 292.791 239.902 295.023 239.902C297.255 239.902 298.951 239.273 300.106 238.017C301.262 236.762 302.021 235.108 302.38 233.053C302.739 231 302.918 228.456 302.918 225.427H302.921Z" fill="#195C4E" stroke="#1E3E29" stroke-width="0.0559148" stroke-linejoin="round"/>
<path d="M122.786 282.743L103.592 339.426C103.592 343.759 149.628 343.824 149.625 339.426L130.431 282.743C129.192 279.086 124.021 279.086 122.783 282.743H122.786Z" fill="#F26F05"/>
<path d="M117.699 297.761L113.838 309.164C122.361 309.686 130.857 309.686 139.379 309.164L135.518 297.761C129.573 298.031 123.644 298.031 117.699 297.761Z" fill="white"/>
<path d="M110.664 318.534L106.838 329.837C120.055 331.087 133.162 331.087 146.378 329.837L142.553 318.534C131.896 319.394 121.323 319.394 110.667 318.534H110.664Z" fill="white"/>
<path d="M156.716 343.225H96.5C96.5 340.786 98.4795 338.807 100.918 338.807H152.297C154.736 338.807 156.716 340.786 156.716 343.225Z" fill="#DB5E00"/>
</svg>
