<svg width="575" height="354" viewBox="0 0 575 354" fill="none" xmlns="http://www.w3.org/2000/svg">
<g clip-path="url(#clip0_2_41730)">
<path opacity="0.55" d="M557.84 354C567.092 354 574.641 346.582 574.787 337.326C575.493 291.193 579.207 223.126 492.353 204.308C422.061 189.073 463.744 64.1118 274.433 72.1824C138.548 77.9756 174.639 192.562 68.9877 202.097C-1.31799 208.45 -1.93039 297.399 0.772142 338.152C1.35791 347.061 8.75992 353.987 17.6929 353.987H557.84V354Z" fill="#55AC72"/>
<path opacity="0.55" d="M492.34 204.308C422.047 189.073 463.73 64.1118 274.42 72.1824C242.096 73.5541 219.517 81.1053 202.437 91.906C208.188 91.1469 214.299 90.6142 220.809 90.3478C410.106 82.2773 368.436 207.238 438.728 222.474C524.664 241.092 521.948 307.907 521.189 354H557.826C567.079 354 574.627 346.582 574.774 337.326C575.479 291.193 579.194 223.126 492.34 204.308Z" fill="#55AC72"/>
<path d="M382.474 200.456C428.314 154.599 428.314 80.2514 382.474 34.3949C336.635 -11.4616 262.313 -11.4616 216.474 34.3949C170.634 80.2514 170.634 154.599 216.474 200.456C262.313 246.312 336.635 246.312 382.474 200.456Z" fill="#195C4E"/>
<path d="M405.33 124.575C409.274 66.0945 365.081 15.4878 306.621 11.542C248.162 7.59616 197.573 51.8055 193.629 110.286C189.685 168.767 233.878 219.374 292.337 223.319C350.797 227.265 401.385 183.056 405.33 124.575Z" fill="#DDF6F0"/>
<path d="M258.271 43.6556C280.717 115.718 302.058 117.423 302.058 117.423C308.821 90.8539 258.271 43.6556 258.271 43.6556Z" fill="#55AC72"/>
<path d="M254.411 155.179C254.411 155.179 283.26 115.119 302.683 117.529C302.683 117.529 303.389 132.792 254.411 155.179Z" fill="#55AC72"/>
<path d="M306.784 113.827C304.8 111.217 301.073 110.711 298.463 112.695C295.854 114.679 295.348 118.408 297.332 121.019C299.315 123.629 303.043 124.135 305.652 122.151C308.262 120.166 308.767 116.437 306.784 113.827Z" fill="#EFA04B"/>
<path d="M193.484 112.604L193.415 114.534L216.777 115.374L216.847 113.444L193.484 112.604Z" fill="#EFA04B"/>
<path d="M382.144 119.403L382.074 121.333L405.437 122.173L405.506 120.243L382.144 119.403Z" fill="#EFA04B"/>
<path d="M302.315 11.2912L301.474 34.6621L303.403 34.7315L304.244 11.3606L302.315 11.2912Z" fill="#EFA04B"/>
<path d="M295.518 200.032L294.678 223.403L296.607 223.472L297.447 200.102L295.518 200.032Z" fill="#EFA04B"/>
<path d="M227.912 39.0295L226.499 40.345L234.462 48.905L235.875 47.5895L227.912 39.0295Z" fill="#EFA04B"/>
<path d="M364.478 185.844L363.065 187.16L371.028 195.72L372.441 194.404L364.478 185.844Z" fill="#EFA04B"/>
<path d="M399.608 82.3478L388.542 86.1122L389.163 87.9404L400.23 84.1761L399.608 82.3478Z" fill="#EFA04B"/>
<path d="M209.78 146.912L198.714 150.677L199.335 152.505L210.402 148.741L209.78 146.912Z" fill="#EFA04B"/>
<path d="M384.615 158.266L383.762 159.999L394.248 165.165L395.101 163.432L384.615 158.266Z" fill="#EFA04B"/>
<path d="M204.732 69.6676L203.879 71.4L214.365 76.5662L215.218 74.8338L204.732 69.6676Z" fill="#EFA04B"/>
<path d="M330.775 206.515L328.947 207.137L332.71 218.207L334.538 217.586L330.775 206.515Z" fill="#EFA04B"/>
<path d="M266.238 16.6315L264.41 17.2532L268.173 28.3237L270.001 27.702L266.238 16.6315Z" fill="#EFA04B"/>
<path d="M256.92 201.696L251.756 212.186L253.488 213.039L258.652 202.549L256.92 201.696Z" fill="#EFA04B"/>
<path d="M345.499 21.7676L340.334 32.2574L342.066 33.1106L347.23 22.6208L345.499 21.7676Z" fill="#EFA04B"/>
<path d="M228.654 179.854L219.965 187.675L221.256 189.11L229.946 181.289L228.654 179.854Z" fill="#EFA04B"/>
<path d="M377.691 45.6985L369.002 53.5197L370.293 54.9552L378.982 47.1341L377.691 45.6985Z" fill="#EFA04B"/>
<path d="M147.441 227.787C147.441 227.787 144.432 241.105 144.938 254.716C145.391 266.902 143.94 347.021 143.94 347.021H153.725C153.725 347.021 167.65 284.268 168.169 279.314C168.689 274.36 175.691 224.804 175.691 224.804L147.441 227.787Z" fill="#55AC72"/>
<path d="M153.951 224.138C153.951 224.138 156.201 241.252 160.035 253.424C163.869 265.583 182.68 347.035 182.68 347.035H192.465C192.465 347.035 190.668 284.281 189.989 279.327C189.31 274.373 184.358 224.817 184.358 224.817L153.964 224.138H153.951Z" fill="#195C4E"/>
<path d="M183.466 347.008V353.84H202.091C203.143 353.84 203.569 352.468 202.677 351.882C199.947 350.071 195.594 347.567 191.534 347.008H183.466Z" fill="#195C4E"/>
<path d="M144.432 347.008V353.84H163.057C164.109 353.84 164.535 352.468 163.643 351.882C160.914 350.071 156.56 347.567 152.5 347.008H144.432Z" fill="#195C4E"/>
<path d="M178.034 144.511C178.034 144.511 184.438 134.776 177.089 133.83C171.444 133.098 169.115 134.789 169.115 134.789C169.115 134.789 162.618 134.07 159.05 137.16C156.614 139.277 147.667 155.671 162.139 161.598C176.61 167.524 173.521 152.342 173.521 152.342L178.034 144.511Z" fill="#0C4437"/>
<path d="M177.089 133.83C171.444 133.098 169.115 134.789 169.115 134.789C169.115 134.789 162.618 134.07 159.05 137.16C156.614 139.277 147.667 155.671 162.139 161.598C168.942 164.381 171.857 162.504 173.055 159.733C159.33 163.596 157.838 147.042 160.102 142.34C162.405 137.559 167.916 139.757 167.916 139.757C170.073 134.323 177.116 134.909 180.018 135.335C179.485 134.576 178.567 134.03 177.089 133.83Z" fill="#05556D"/>
<path d="M169.021 149.252C169.021 149.252 167.118 147.348 165.706 149.252C164.282 151.157 165.227 155.419 167.61 155.658C167.61 155.658 166.905 161.824 162.152 161.585V166.565H173.295V162.77C173.295 162.77 180.178 159.92 179.938 154.233C179.698 148.533 178.034 144.498 178.034 144.498C178.034 144.498 174.24 148.773 169.021 149.239V149.252Z" fill="#F9CC9F"/>
<path d="M170.725 164.381C171.83 164.847 171.631 165.54 171.684 166.579H173.281V162.783C173.281 162.783 170.579 163.635 166.625 161.385C166.625 161.385 168.928 163.635 170.725 164.381Z" fill="#ED701B"/>
<path d="M173.015 140.17C173.015 140.17 167.238 137.866 166.559 139.597C166.119 140.729 167.237 141.701 168.782 142.687L167.424 142.913C167.118 142.966 167.011 143.353 167.251 143.539C167.624 143.845 168.675 144.045 170.859 144.125L173.015 140.17Z" fill="#F9CC9F"/>
<path d="M214.272 154.646C203.249 146.482 173.162 139.943 173.162 139.943L170.685 144.458C170.685 144.458 198.004 155.046 196.206 156.63C195.141 157.563 181.802 163.676 177.275 165.74C176.304 166.179 175.252 166.392 174.173 166.379L160.341 166.299C160.341 166.299 150.357 165.114 142.515 174.13C135.499 182.214 123.571 200.925 123.571 200.925L143.673 230.491L145.897 233.754V233.714V233.993C145.897 233.993 146.616 234.073 147.88 234.193C154.337 234.793 175.052 236.431 186.009 234.1L186.315 234.033L185.796 185.53C203.289 171.68 211.649 160.972 214.632 157.616C215.417 156.724 215.271 155.365 214.312 154.646H214.272ZM146.842 220.795L144.885 216.507L138.641 202.856L148.999 191.243L147.135 216.72L146.842 220.795Z" fill="#144A3F"/>
<path d="M144.872 216.507L146.842 220.795L145.883 233.74L145.87 233.78L143.647 230.504L144.872 216.507Z" fill="#EFAA3A"/>
<g style="mix-blend-mode:multiply" opacity="0.29">
<path d="M181.083 183.799C179.219 185.157 179.698 197.143 179.232 204.641C178.46 217.2 177.715 228.067 178.261 235.072C181.096 234.886 183.732 234.579 185.969 234.1L186.275 234.033L185.756 185.53C203.249 171.679 211.61 160.972 214.592 157.616C215.377 156.724 215.231 155.365 214.272 154.646C214.272 154.646 200.44 169.735 181.083 183.799Z" fill="#F98D2B"/>
</g>
<path d="M189.976 279.327C189.483 275.758 186.768 248.963 185.303 234.313L178.274 235.085C178.274 235.085 188.525 319.427 189.204 347.035H192.452C192.452 347.035 190.655 284.281 189.976 279.327Z" fill="#55AC72"/>
<path d="M144.898 150.637L142.782 146.842C143.847 144.844 144.446 142.553 144.446 140.13C144.446 132.206 138.015 125.773 130.094 125.773C122.173 125.773 115.743 132.206 115.743 140.13C115.743 148.054 122.173 154.486 130.094 154.486C134.088 154.486 137.696 152.848 140.292 150.225L144.898 150.637Z" fill="#195C4E"/>
<path d="M89.8625 323.289C89.8625 323.289 86.8538 320.466 88.8773 309.785C90.9009 299.104 96.0397 288.836 93.5102 277.25C90.9941 265.65 71.2376 236.431 71.1844 234.486C71.1178 232.542 65.0871 268.486 75.2981 282.657C85.5091 296.813 86.7339 301.728 86.2813 309.186C85.8286 316.63 86.3878 322.637 87.5061 324.368L89.8625 323.316V323.289Z" fill="#DDF6F0"/>
<path d="M87.9987 301.794C86.8139 306.562 86.095 318.508 87.9987 321.371C88.1718 321.638 88.4247 321.491 88.7442 320.999C88.1718 319.027 87.7857 315.565 88.8774 309.785C90.9009 299.104 96.0397 288.836 93.5103 277.25C90.9941 265.65 71.2377 236.431 71.1844 234.486C71.1844 234.486 74.1665 258.844 84.1779 275.598C91.3536 287.598 89.1836 297.04 87.9987 301.808V301.794Z" fill="#55AC72"/>
<path d="M93.4704 322.543C93.4704 322.543 87.6659 308.054 97.5042 295.508C107.342 282.963 123.065 266.848 123.371 260.469C123.371 260.469 127.418 290.767 114.611 299.344C101.818 307.92 92.8447 309.292 95.0546 322.49L93.4704 322.543Z" fill="#DDF6F0"/>
<path d="M107.276 293.257C93.0045 303.645 91.8463 315.618 94.0562 321.172C94.2293 321.598 94.5488 321.864 94.9881 322.011C93.071 309.279 101.977 307.827 114.611 299.357C127.405 290.78 123.371 260.482 123.371 260.482C123.371 260.482 121.561 282.883 107.289 293.271L107.276 293.257Z" fill="#55AC72"/>
<path d="M83.9249 322.863C83.9249 322.863 85.7888 315.192 84.7903 306.908C83.8051 298.625 75.1517 293.963 67.0707 285.214C62.9171 280.712 61.679 256.913 64.2617 254.703C64.2617 254.703 49.9902 272.002 52.2002 284.668C54.3968 297.333 77.6812 305.563 79.8379 311.689C81.9946 317.815 81.8082 322.943 81.8082 322.943L83.9249 322.876V322.863Z" fill="#DDF6F0"/>
<path d="M59.4425 261.508C54.7297 274.28 59.5623 289.755 75.2316 299.37C86.7607 306.442 83.0863 321.158 83.0863 321.158L84.9767 315.352C85.1498 312.848 85.1631 309.918 84.8036 306.908C83.8185 298.625 75.1651 293.963 67.0841 285.214C63.0769 280.872 61.7855 258.578 64.0088 255.022C63.3565 255.848 61.506 258.245 59.4425 261.508Z" fill="#55AC72"/>
<path d="M64.0088 255.022C64.1685 254.822 64.2617 254.703 64.2617 254.703C64.1685 254.782 64.0887 254.889 64.0088 255.022Z" fill="#55AC72"/>
<path d="M96.4524 321.904C96.4524 321.904 99.7939 309.492 108.075 307.814C116.342 306.149 125.847 293.91 126.353 291.513C126.353 291.513 124.955 314.566 96.4524 321.891V321.904Z" fill="#DDF6F0"/>
<path d="M107.595 311.929C102.523 314.459 100.42 317.869 99.6742 320.972C125.049 312.808 126.353 291.526 126.353 291.526C126.247 292.006 125.794 292.871 125.062 293.95C122.572 298.318 116.542 307.441 107.595 311.929Z" fill="#55AC72"/>
<path d="M114.345 317.336H71.0913L76.2301 349.658C76.6162 352.109 78.7329 353.92 81.2092 353.92H104.227C106.703 353.92 108.82 352.122 109.206 349.658L114.345 317.336Z" fill="#FFBF4D"/>
<path d="M113.506 322.69L114.345 317.336H71.0913L71.9433 322.69H113.506Z" fill="#FF9F50"/>
<path d="M103.868 317.336L98.7289 349.658C98.3429 352.109 96.2261 353.92 93.7499 353.92H104.227C106.703 353.92 108.82 352.122 109.206 349.658L114.345 317.336H103.868Z" fill="#FF9F50"/>
<path d="M412.728 259.697H217.214V299.464H412.728V259.697Z" fill="#FFBF4D"/>
<g style="mix-blend-mode:multiply" opacity="0.29">
<path d="M412.728 259.697H217.214V269.352H412.728V259.697Z" fill="#F98D2B"/>
</g>
<path d="M234.215 259.697H252.054L247.275 269.352H229.422L234.215 259.697Z" fill="#F77E2D"/>
<path d="M274.42 259.697H292.259L287.48 269.352H269.641L274.42 259.697Z" fill="#F77E2D"/>
<path d="M314.625 259.697H332.465L327.685 269.352H309.846L314.625 259.697Z" fill="#F77E2D"/>
<path d="M354.83 259.697H372.656L367.877 269.352H350.038L354.83 259.697Z" fill="#F77E2D"/>
<path d="M412.728 259.697V259.963L408.069 269.352H390.243L395.035 259.697H412.728Z" fill="#F77E2D"/>
<path d="M255.329 299.464H241.55V353.84H255.329V299.464Z" fill="#DDF6F0"/>
<path d="M255.329 299.464H252.201V353.84H255.329V299.464Z" fill="#55AC72"/>
<path d="M389.457 299.464H375.678V353.84H389.457V299.464Z" fill="#DDF6F0"/>
<path d="M389.457 299.464H385.384V353.84H389.457V299.464Z" fill="#55AC72"/>
<path d="M255.329 299.424H241.55V306.269H255.329V299.424Z" fill="#55AC72"/>
<path d="M389.457 299.424H375.678V306.269H389.457V299.424Z" fill="#55AC72"/>
<path d="M255.329 253.477H241.55V259.657H255.329V253.477Z" fill="#DDF6F0"/>
<path d="M255.329 253.477H252.201V259.657H255.329V253.477Z" fill="#55AC72"/>
<path d="M389.457 253.477H375.678V259.657H389.457V253.477Z" fill="#DDF6F0"/>
<path d="M389.457 253.477H385.384V259.657H389.457V253.477Z" fill="#55AC72"/>
<path d="M255.329 258.884H241.55V259.657H255.329V258.884Z" fill="#55AC72"/>
<path d="M389.457 258.884H375.678V259.657H389.457V258.884Z" fill="#55AC72"/>
<path d="M252.054 259.697L232.338 299.464H217.214V293.977L234.215 259.697H252.054Z" fill="#195C4E"/>
<path d="M274.42 259.697L254.703 299.464H272.543L292.259 259.697H274.42Z" fill="#195C4E"/>
<path d="M332.465 259.697L312.748 299.464H294.909L314.625 259.697H332.465Z" fill="#195C4E"/>
<path d="M372.656 259.697L352.953 299.464H335.114L354.83 259.697H372.656Z" fill="#195C4E"/>
<path d="M395.035 259.697L375.319 299.464H393.145L412.728 259.963L395.035 259.697Z" fill="#195C4E"/>
<path d="M252.054 259.697L247.275 269.352H229.422L234.215 259.697H252.054Z" fill="#0C4437"/>
<path d="M292.259 259.697L287.48 269.352H269.641L274.42 259.697H292.259Z" fill="#0C4437"/>
<path d="M332.465 259.697L327.685 269.352H309.846L314.625 259.697H332.465Z" fill="#0C4437"/>
<path d="M372.656 259.697L367.877 269.352H350.038L354.83 259.697H372.656Z" fill="#0C4437"/>
<path d="M412.728 259.963L408.069 269.352H390.243L395.035 259.697L412.728 259.963Z" fill="#0C4437"/>
<path style="mix-blend-mode:overlay" opacity="0.55" d="M409.36 276.903H222.659V296.8H409.36V276.903Z" fill="url(#paint0_linear_2_41730)"/>
<path d="M250.037 256.996C256.736 255.906 261.282 249.591 260.193 242.89C259.103 236.189 252.789 231.641 246.091 232.731C239.393 233.821 234.846 240.137 235.936 246.837C237.025 253.538 243.339 258.087 250.037 256.996Z" fill="#FFBF4D"/>
<path d="M253.652 244.847C253.652 241.771 251.162 239.281 248.087 239.281C245.012 239.281 242.522 241.771 242.522 244.847C242.522 247.924 245.012 250.414 248.087 250.414C251.162 250.414 253.652 247.924 253.652 244.847Z" fill="#195C4E"/>
<path d="M384.458 257.008C391.156 255.918 395.703 249.602 394.613 242.902C393.524 236.201 387.21 231.653 380.512 232.743C373.814 233.833 369.267 240.148 370.357 246.849C371.446 253.55 377.76 258.098 384.458 257.008Z" fill="#FFBF4D"/>
<path d="M388.059 244.847C388.059 241.771 385.57 239.281 382.495 239.281C379.419 239.281 376.93 241.771 376.93 244.847C376.93 247.924 379.419 250.414 382.495 250.414C385.57 250.414 388.059 247.924 388.059 244.847Z" fill="#195C4E"/>
<path d="M486.802 349.632H424.537L434.056 326.539L437.89 317.203L438.942 314.646L440.659 310.491L441.005 309.638L444.839 300.316L445.545 298.625L452.334 282.137C453.559 279.167 457.766 279.167 458.991 282.137L465.781 298.625L466.486 300.316L470.32 309.638L470.666 310.491L472.384 314.646L473.435 317.203L477.27 326.525L486.788 349.632H486.802Z" fill="#FFBF4D"/>
<g style="mix-blend-mode:multiply" opacity="0.29">
<path d="M428.624 339.723L424.537 349.632H486.815L482.728 339.723H428.624Z" fill="#F98D2B"/>
</g>
<path d="M490.875 343.705H419.558V353.787H490.875V343.705Z" fill="#DDF6F0"/>
<path d="M490.875 343.705H475.472V353.787H490.875V343.705Z" fill="#55AC72"/>
<g style="mix-blend-mode:multiply" opacity="0.29">
<path d="M484.352 343.705H475.539L468.47 326.539L464.636 317.203L463.584 314.646L461.866 310.491L461.52 309.638L457.686 300.316L456.981 298.625L451.269 284.747L452.334 282.137C453.559 279.167 457.766 279.167 458.991 282.137L465.78 298.625L466.486 300.316L470.32 309.638L470.666 310.491L472.384 314.646L473.435 317.203L477.269 326.525L484.339 343.705H484.352Z" fill="#F98D2B"/>
</g>
<path d="M470.32 309.638H441.018L444.852 300.316H466.486L470.32 309.638Z" fill="#195C4E"/>
<path d="M477.283 326.512V326.525H434.056V326.512L437.89 317.203H473.449L477.283 326.512Z" fill="#195C4E"/>
<path d="M470.32 309.638H461.52L457.686 300.316H466.486L470.32 309.638Z" fill="#0C4437"/>
<path d="M477.283 326.512V326.525H468.47V326.512L464.635 317.203H473.449L477.283 326.512Z" fill="#0C4437"/>
<path d="M111.403 77.5094C130.85 77.5094 146.616 61.7384 146.616 42.2839C146.616 22.8294 130.85 7.05835 111.403 7.05835C91.9554 7.05835 76.1901 22.8294 76.1901 42.2839C76.1901 61.7384 91.9554 77.5094 111.403 77.5094Z" fill="#FFBF4D"/>
<path d="M111.696 7.05835C121.268 13.3577 127.605 24.1983 127.605 36.5173C127.605 55.9746 111.842 71.7428 92.3919 71.7428C92.2987 71.7428 92.2055 71.7428 92.099 71.7428C97.6505 75.3919 104.28 77.5227 111.416 77.5227C130.866 77.5227 146.629 61.7545 146.629 42.2972C146.629 22.8399 131.013 7.23148 111.696 7.07167V7.05835Z" fill="#FF9F50"/>
</g>
<defs>
<linearGradient id="paint0_linear_2_41730" x1="316.01" y1="311.103" x2="316.01" y2="279.061" gradientUnits="userSpaceOnUse">
<stop stop-color="white"/>
<stop offset="0.12" stop-color="white" stop-opacity="0.82"/>
<stop offset="0.3" stop-color="white" stop-opacity="0.58"/>
<stop offset="0.47" stop-color="white" stop-opacity="0.37"/>
<stop offset="0.64" stop-color="white" stop-opacity="0.21"/>
<stop offset="0.78" stop-color="white" stop-opacity="0.1"/>
<stop offset="0.91" stop-color="white" stop-opacity="0.02"/>
<stop offset="1" stop-color="white" stop-opacity="0"/>
</linearGradient>
<clipPath id="clip0_2_41730">
<rect width="575" height="354" fill="white"/>
</clipPath>
</defs>
</svg>
