<svg width="509" height="355" viewBox="0 0 509 355" fill="none" xmlns="http://www.w3.org/2000/svg">
<path d="M49.2217 351.159C76.4061 351.159 98.4435 347.746 98.4435 343.537C98.4435 339.327 76.4061 335.915 49.2217 335.915C22.0373 335.915 0 339.327 0 343.537C0 347.746 22.0373 351.159 49.2217 351.159Z" fill="#DAE7F2"/>
<path d="M265.332 354.832C399.503 354.832 508.27 347.336 508.27 338.089C508.27 328.842 399.503 321.346 265.332 321.346C131.161 321.346 22.3945 328.842 22.3945 338.089C22.3945 347.336 131.161 354.832 265.332 354.832Z" fill="#DAE7F2"/>
<path d="M219.114 331.611H160.356L167.999 296.797H211.475L219.114 331.611Z" fill="#2D2D2D"/>
<path d="M303.726 290.909H75.7471V159.059C75.7471 153.002 80.6574 148.095 86.7116 148.095H292.761C298.818 148.095 303.726 153.005 303.726 159.059V290.909Z" fill="#2D2D2D"/>
<path d="M292.536 159.619H86.9365V282.454H292.536V159.619Z" fill="#FAFAFA"/>
<path d="M75.7471 290.909V303.48C75.7471 309.537 80.6574 314.444 86.7116 314.444H292.761C298.818 314.444 303.726 309.534 303.726 303.48V290.909H75.7471Z" fill="#9F9F9F"/>
<path d="M245.578 338.323H133.895C133.895 332.829 138.348 328.378 143.84 328.378H235.63C241.124 328.378 245.575 332.832 245.575 338.323H245.578Z" fill="#9F9F9F"/>
<path d="M193.809 303.626C194.341 301.373 192.946 299.117 190.694 298.585C188.441 298.053 186.185 299.448 185.653 301.701C185.121 303.953 186.516 306.21 188.769 306.741C191.021 307.273 193.278 305.878 193.809 303.626Z" fill="#2D2D2D"/>
<path d="M303.77 203.993H75.7617V220.218H303.77V203.993Z" fill="#55AC72"/>
<path d="M100.802 220.215L89.2511 203.993H75.7529L87.3042 220.215H100.802Z" fill="#195C4E"/>
<path d="M141.294 220.215L129.742 203.993H116.244L127.798 220.215H141.294Z" fill="#195C4E"/>
<path d="M181.789 220.215L170.237 203.993H156.739L168.291 220.215H181.789Z" fill="#195C4E"/>
<path d="M222.284 220.215L210.733 203.993H197.234L208.786 220.215H222.284Z" fill="#195C4E"/>
<path d="M262.774 220.215L251.223 203.993H237.728L249.279 220.215H262.774Z" fill="#195C4E"/>
<path d="M303.27 220.215L291.719 203.993H278.221L289.772 220.215H303.27Z" fill="#195C4E"/>
<path d="M303.767 229.748L75.7734 250.732V267.024L303.767 246.041V229.748Z" fill="#55AC72"/>
<path d="M102.207 264.591L89.2153 249.496L75.7734 250.732L88.7649 265.827L102.207 264.591Z" fill="#195C4E"/>
<path d="M142.53 260.881L129.539 245.783L116.1 247.021L129.088 262.117L142.53 260.881Z" fill="#195C4E"/>
<path d="M182.852 257.168L169.864 242.073L156.422 243.308L169.41 258.407L182.852 257.168Z" fill="#195C4E"/>
<path d="M223.175 253.458L210.186 238.362L196.744 239.598L209.736 254.697L223.175 253.458Z" fill="#195C4E"/>
<path d="M263.498 249.748L250.509 234.649L237.067 235.888L250.059 250.983L263.498 249.748Z" fill="#195C4E"/>
<path d="M303.823 246.038L290.831 230.939L277.393 232.178L290.381 247.273L303.823 246.038Z" fill="#195C4E"/>
<path d="M254.876 123.659H236.545V73.7378H254.876V123.659ZM239.159 121.048H252.266V76.3515H239.159V121.048Z" fill="#BAECE2"/>
<path d="M452.533 108.469H423.397C421.267 108.469 419.539 106.741 419.539 104.61V72.5554H456.389V104.61C456.389 106.741 454.661 108.469 452.53 108.469H452.533Z" fill="#144A3F"/>
<path d="M374.753 4.40592L163.569 52.6183L164.053 54.736L375.236 6.52359L374.753 4.40592Z" fill="#BAECE2"/>
<path d="M382.304 4.02318L380.836 5.6244L454.715 73.3459L456.183 71.7447L382.304 4.02318Z" fill="#BAECE2"/>
<path d="M379.23 32.8715L377.825 32.8754L377.887 55.0325L379.292 55.0286L379.23 32.8715Z" fill="#53D0B6"/>
<path d="M389.467 55.6878H367.713L372.534 32.2149H384.646L389.467 55.6878ZM369.328 54.3691H387.855L383.576 33.5306H373.61L369.331 54.3691H369.328Z" fill="#53D0B6"/>
<path d="M372.829 36.1413L371.76 37.0572L387.539 55.474L388.608 54.5581L372.829 36.1413Z" fill="#53D0B6"/>
<path d="M384.341 36.1524L368.562 54.5692L369.628 55.4831L385.408 37.0663L384.341 36.1524Z" fill="#53D0B6"/>
<path d="M386.385 43.2475H370.795V44.6522H386.385V43.2475Z" fill="#53D0B6"/>
<path d="M379.26 14.0776L377.855 14.0823L377.918 32.87L379.322 32.8654L379.26 14.0776Z" fill="#53D0B6"/>
<path d="M384.971 33.5751H372.208L376.357 13.3826H380.826L384.974 33.5751H384.971ZM373.933 32.1704H383.247L379.676 14.7902H377.501L373.93 32.1704H373.933Z" fill="#53D0B6"/>
<path d="M376.016 20.0488L375.163 20.9103L382.641 28.31L383.493 27.4485L376.016 20.0488Z" fill="#53D0B6"/>
<path d="M381.172 20.145L373.289 27.9435L374.141 28.8052L382.025 21.0066L381.172 20.145Z" fill="#53D0B6"/>
<path d="M382.18 22.8743H375V24.0863H382.18V22.8743Z" fill="#53D0B6"/>
<path d="M390.643 59.2854H366.536L377.145 7.63663C377.287 6.9432 377.88 6.45721 378.588 6.45721C379.296 6.45721 379.889 6.94024 380.034 7.63663L390.643 59.2854ZM369.2 57.1162H387.979L378.591 11.4001L369.2 57.1162Z" fill="#53D0B6"/>
<path d="M456.539 73.64H446.84V64.086H456.539V73.64ZM449.012 71.4678H454.367V66.2582H449.012V71.4678Z" fill="#53D0B6"/>
<path d="M449.012 73.64H439.312V64.086H449.012V73.64ZM441.482 71.4678H446.839V66.2582H441.482V71.4678Z" fill="#53D0B6"/>
<path d="M441.481 73.64H431.782V64.086H441.481V73.64ZM433.954 71.4678H439.309V66.2582H433.954V71.4678Z" fill="#53D0B6"/>
<path d="M433.954 73.64H424.255V64.086H433.954V73.64ZM426.424 71.4678H431.779V66.2582H426.424V71.4678Z" fill="#53D0B6"/>
<path d="M426.425 73.64H416.726V64.086H426.425V73.64ZM418.898 71.4678H424.256V66.2582H418.898V71.4678Z" fill="#53D0B6"/>
<path d="M418.897 73.64H409.198V64.086H418.897V73.64ZM411.367 71.4678H416.722V66.2582H411.367V71.4678Z" fill="#53D0B6"/>
<path d="M380.111 71.616H377.299V285.809H380.111V71.616Z" fill="#53D0B6"/>
<path d="M397.924 126.572H359.258V70.2113H397.924V126.572ZM362.067 123.76H395.109V73.0236H362.067V123.76Z" fill="#53D0B6"/>
<path d="M361.82 70.8098L359.483 72.3746L395.343 125.921L397.68 124.356L361.82 70.8098Z" fill="#53D0B6"/>
<path d="M395.331 70.8131L359.48 124.366L361.817 125.93L397.668 72.3775L395.331 70.8131Z" fill="#53D0B6"/>
<path d="M396.517 96.9855H360.663V99.7977H396.517V96.9855Z" fill="#53D0B6"/>
<path d="M397.924 180.12H359.258V123.76H397.924V180.12ZM362.067 177.308H395.109V126.572H362.067V177.308Z" fill="#53D0B6"/>
<path d="M361.822 124.352L359.485 125.917L395.345 179.464L397.682 177.899L361.822 124.352Z" fill="#53D0B6"/>
<path d="M395.358 124.391L359.498 177.937L361.835 179.502L397.694 125.956L395.358 124.391Z" fill="#53D0B6"/>
<path d="M396.517 150.534H360.663V153.346H396.517V150.534Z" fill="#53D0B6"/>
<path d="M398.039 233.668H359.373V177.308H398.039V233.668ZM362.185 230.856H395.227V180.12H362.185V230.856Z" fill="#53D0B6"/>
<path d="M361.941 177.899L359.604 179.464L395.464 233.01L397.801 231.445L361.941 177.899Z" fill="#53D0B6"/>
<path d="M395.474 177.938L359.614 231.485L361.951 233.05L397.811 179.503L395.474 177.938Z" fill="#53D0B6"/>
<path d="M396.632 204.082H360.778V206.894H396.632V204.082Z" fill="#53D0B6"/>
<path d="M397.924 287.214H359.258V230.853H397.924V287.214ZM362.067 284.401H395.109V233.665H362.067V284.401Z" fill="#53D0B6"/>
<path d="M361.83 231.447L359.493 233.012L395.353 286.558L397.689 284.993L361.83 231.447Z" fill="#53D0B6"/>
<path d="M395.355 231.491L359.495 285.038L361.832 286.602L397.691 233.056L395.355 231.491Z" fill="#53D0B6"/>
<path d="M396.517 257.627H360.663V260.44H396.517V257.627Z" fill="#53D0B6"/>
<path d="M378.618 61.5672H155.777V63.7393H378.618V61.5672Z" fill="#53D0B6"/>
<path d="M188.698 72.7628H128.826C127.733 72.7628 126.811 72.0516 126.535 70.9966C126.257 69.9387 126.71 68.8689 127.661 68.3296L153.342 53.8209C154.75 53.0237 156.35 52.6029 157.968 52.6029H188.701V72.7598L188.698 72.7628ZM157.965 54.7751C156.72 54.7751 155.49 55.0981 154.406 55.7115L128.725 70.2202C128.681 70.2439 128.592 70.2943 128.63 70.4425C128.669 70.5907 128.773 70.5907 128.823 70.5907H186.523V54.7751H157.962H157.965Z" fill="#53D0B6"/>
<path d="M187.315 52.6528L128.296 69.3201L128.886 71.4105L187.905 54.7432L187.315 52.6528Z" fill="#53D0B6"/>
<path d="M145.448 58.6343L144.857 60.7247L187.304 72.7119L187.895 70.6215L145.448 58.6343Z" fill="#53D0B6"/>
<path d="M156.866 53.6905H154.693V71.6752H156.866V53.6905Z" fill="#53D0B6"/>
<path d="M252.366 72.7598H186.525V52.6029H252.366V72.7598ZM188.698 70.5907H250.194V54.7781H188.698V70.5907Z" fill="#53D0B6"/>
<path d="M250.988 52.659L187.317 70.6399L187.908 72.7302L251.578 54.7494L250.988 52.659Z" fill="#53D0B6"/>
<path d="M187.891 52.6353L187.301 54.7257L250.971 72.7065L251.561 70.6161L187.891 52.6353Z" fill="#53D0B6"/>
<path d="M220.533 53.6905H218.361V71.6752H220.533V53.6905Z" fill="#53D0B6"/>
<path d="M316.035 72.7035H250.194V52.5466H316.035V72.7035ZM252.366 70.5314H313.863V54.7188H252.366V70.5314Z" fill="#53D0B6"/>
<path d="M314.652 52.5841L250.985 70.5761L251.576 72.6664L315.243 54.6744L314.652 52.5841Z" fill="#53D0B6"/>
<path d="M251.558 52.5775L250.968 54.6679L314.638 72.6488L315.228 70.5584L251.558 52.5775Z" fill="#53D0B6"/>
<path d="M284.202 53.6312H282.03V71.616H284.202V53.6312Z" fill="#53D0B6"/>
<path d="M379.706 72.7598H313.865V52.6029H379.706V72.7598ZM316.034 70.5907H377.53V54.7781H316.034V70.5907Z" fill="#53D0B6"/>
<path d="M378.323 52.6382L314.656 70.6302L315.247 72.7205L378.914 54.7285L378.323 52.6382Z" fill="#53D0B6"/>
<path d="M315.218 52.6334L314.628 54.7238L378.298 72.7047L378.888 70.6142L315.218 52.6334Z" fill="#53D0B6"/>
<path d="M347.869 53.6905H345.697V71.6752H347.869V53.6905Z" fill="#53D0B6"/>
<path d="M399.076 285.809H358.336C355.219 285.809 352.693 288.335 352.693 291.451V316.489C352.693 319.605 355.219 322.131 358.336 322.131H399.076C402.192 322.131 404.718 319.605 404.718 316.489V291.451C404.718 288.335 402.192 285.809 399.076 285.809Z" fill="black"/>
<path d="M360.473 322.125L296.755 330.064L295.883 323.076C295.389 319.103 298.21 315.478 302.184 314.984L358.704 307.94L360.47 322.125H360.473Z" fill="black"/>
<path d="M309.579 326.84H297.85C294.877 326.84 292.466 329.251 292.466 332.224V332.704C292.466 335.678 294.877 338.089 297.85 338.089H309.579C312.553 338.089 314.964 335.678 314.964 332.704V332.224C314.964 329.251 312.553 326.84 309.579 326.84Z" fill="black"/>
<path d="M397.921 322.125L461.639 330.064L462.511 323.076C463.006 319.103 460.184 315.478 456.211 314.984L399.69 307.94L397.924 322.125H397.921Z" fill="black"/>
<path d="M460.543 326.84H448.814C445.84 326.84 443.43 329.251 443.43 332.224V332.704C443.43 335.678 445.84 338.089 448.814 338.089H460.543C463.517 338.089 465.928 335.678 465.928 332.704V332.224C465.928 329.251 463.517 326.84 460.543 326.84Z" fill="black"/>
<path d="M256.056 78.414H235.609C233.757 78.414 232.239 76.8967 232.239 75.0446C232.239 73.1925 233.757 71.6752 235.609 71.6752H256.056C257.908 71.6752 259.425 73.1925 259.425 75.0446C259.425 76.8967 257.908 78.414 256.056 78.414Z" fill="#144A3F"/>
<path d="M378.529 15.0895C382.696 15.0895 386.074 11.7116 386.074 7.54476C386.074 3.37791 382.696 0 378.529 0C374.362 0 370.984 3.37791 370.984 7.54476C370.984 11.7116 374.362 15.0895 378.529 15.0895Z" fill="#144A3F"/>
<path d="M380.406 12.0751C382.908 11.0385 384.097 8.16963 383.06 5.66719C382.024 3.16475 379.155 1.97641 376.652 3.01296C374.15 4.0495 372.961 6.91841 373.998 9.42085C375.034 11.9233 377.903 13.1116 380.406 12.0751Z" fill="#98E3D3"/>
<path d="M245.694 154.78C241.477 154.78 238.046 151.349 238.046 147.132C238.046 145.932 239.018 144.96 240.218 144.96C241.418 144.96 242.39 145.932 242.39 147.132C242.39 148.954 243.872 150.436 245.694 150.436C247.517 150.436 248.999 148.954 248.999 147.132C248.999 145.309 247.517 143.828 245.694 143.828C244.494 143.828 243.522 142.856 243.522 141.655C243.522 140.455 244.494 139.483 245.694 139.483C249.911 139.483 253.343 142.915 253.343 147.132C253.343 151.349 249.911 154.78 245.694 154.78Z" fill="#6F8FAA"/>
<path d="M245.65 143.285C244.45 143.285 243.478 142.313 243.478 141.113V130.341C243.478 129.141 244.45 128.169 245.65 128.169C246.85 128.169 247.822 129.141 247.822 130.341V141.113C247.822 142.313 246.85 143.285 245.65 143.285Z" fill="#6F8FAA"/>
<path d="M255.969 123.371C255.969 121.522 254.469 120.023 252.62 120.023H239.042C237.193 120.023 235.693 121.522 235.693 123.371V126.812C235.693 127.556 235.945 128.237 236.357 128.794L240.639 135.675C241.167 136.523 242.094 137.039 243.093 137.039H248.572C249.571 137.039 250.498 136.523 251.026 135.675L255.308 128.794C255.72 128.237 255.972 127.556 255.972 126.812V123.371H255.969Z" fill="#FFB339"/>
<path d="M241.143 120.023L235.693 124.305V126.812C235.693 127.532 235.93 128.187 236.319 128.732L247.402 120.023H241.143Z" fill="#0F382F"/>
<path d="M239.88 134.454L255.686 122.029C255.168 120.847 253.991 120.02 252.619 120.02H251.982L237.823 131.15L239.877 134.454H239.88Z" fill="#0F382F"/>
<path d="M255.307 128.794C255.719 128.237 255.971 127.556 255.971 126.812V125.312L241.599 136.609C242.043 136.881 242.556 137.041 243.095 137.041H247.309L252.928 132.626L255.31 128.797L255.307 128.794Z" fill="#0F382F"/>
<path d="M416.149 58.6482C417.127 55.5278 414.842 52.3422 411.63 52.3422H366.518C355.666 52.3422 346.785 61.3923 346.785 72.4517V78.2836C346.785 89.3429 355.666 98.3931 366.518 98.3931H389.301C397.963 98.3931 405.353 92.6234 407.988 84.6726L407.997 84.6815L408.074 84.4356C408.109 84.3229 408.148 84.2074 408.18 84.0948L416.149 58.6482Z" fill="#144A3F"/>
<path d="M374.999 75.3409V58.1593C374.999 57.1102 374.148 56.2568 373.096 56.2568H369.075C360.066 56.2568 352.696 63.766 352.696 72.9465V75.3409C352.696 76.39 353.547 77.2434 354.599 77.2434H373.096C374.145 77.2434 374.999 76.3929 374.999 75.3409Z" fill="#BAECE2"/>
<path d="M377.812 65.3188V57.6229C377.812 56.8672 378.423 56.2568 379.179 56.2568H380.613C384.874 56.2568 388.362 59.8099 388.362 64.1542V64.821C388.362 65.5766 387.752 66.1871 386.996 66.1871H378.678C378.198 66.1871 377.812 65.7989 377.812 65.3218V65.3188Z" fill="#BAECE2"/>
<path d="M377.812 68.457V76.1529C377.812 76.9086 378.423 77.519 379.179 77.519H380.613C384.874 77.519 388.362 73.9659 388.362 69.6216V68.9549C388.362 68.1992 387.752 67.5888 386.996 67.5888H378.678C378.198 67.5888 377.812 67.977 377.812 68.4541V68.457Z" fill="#BAECE2"/>
<path d="M373.945 81.81H370.152C369.571 81.81 369.097 81.3359 369.097 80.755C369.097 80.1742 369.571 79.7001 370.152 79.7001H373.945C374.526 79.7001 375 80.1742 375 80.755C375 81.3359 374.526 81.81 373.945 81.81Z" fill="#BAECE2"/>
<path d="M245.651 190.845H276.508C278.621 190.845 279.943 188.557 278.885 186.728L263.455 160.005L248.024 133.281C246.967 131.45 244.326 131.45 243.271 133.281L227.841 160.005L212.411 186.728C211.353 188.56 212.674 190.845 214.787 190.845H245.645H245.651Z" fill="#FDCF01"/>
<path d="M270.646 188.343H220.657C219.649 188.343 218.727 187.81 218.194 186.912C217.631 185.964 217.607 184.77 218.135 183.801L243.131 137.836C243.652 136.876 244.595 136.301 245.653 136.301C246.708 136.301 247.65 136.873 248.175 137.836L273.171 183.801C273.698 184.773 273.674 185.964 273.111 186.912C272.578 187.807 271.659 188.343 270.649 188.343H270.646ZM245.65 137.658C245.099 137.658 244.601 137.966 244.319 138.485L219.323 184.45C219.018 185.01 219.03 185.673 219.356 186.222C219.646 186.711 220.117 186.989 220.654 186.989H270.643C271.176 186.989 271.65 186.711 271.941 186.222C272.267 185.673 272.279 185.01 271.973 184.45L246.977 138.485C246.696 137.966 246.198 137.658 245.647 137.658H245.65Z" fill="#0F382F"/>
<path d="M243.466 167.209L242.832 157.699C242.714 155.847 242.654 154.517 242.654 153.71C242.654 152.611 242.942 151.755 243.517 151.138C244.092 150.522 244.85 150.217 245.79 150.217C246.927 150.217 247.689 150.611 248.071 151.399C248.454 152.187 248.646 153.322 248.646 154.804C248.646 155.678 248.599 156.564 248.507 157.465L247.654 167.253C247.562 168.418 247.363 169.31 247.058 169.932C246.753 170.554 246.252 170.865 245.55 170.865C244.847 170.865 244.337 170.563 244.062 169.962C243.783 169.36 243.585 168.444 243.466 167.212V167.209ZM245.671 180.271C244.865 180.271 244.16 180.01 243.558 179.486C242.957 178.964 242.654 178.232 242.654 177.293C242.654 176.472 242.942 175.776 243.517 175.198C244.092 174.623 244.797 174.336 245.63 174.336C246.462 174.336 247.173 174.623 247.763 175.198C248.353 175.773 248.646 176.472 248.646 177.293C248.646 178.221 248.35 178.947 247.754 179.477C247.159 180.007 246.465 180.271 245.671 180.271Z" fill="#0F382F"/>
<path d="M46.0717 285.262L26.8779 341.945C26.8779 346.278 72.914 346.343 72.9111 341.945L53.7173 285.262C52.4786 281.605 47.3075 281.605 46.0688 285.262H46.0717Z" fill="#F26F05"/>
<path d="M40.9863 300.28L37.125 311.683C45.6477 312.205 54.1437 312.205 62.6664 311.683L58.8051 300.28C52.8605 300.55 46.9308 300.55 40.9863 300.28Z" fill="white"/>
<path d="M33.9507 321.054L30.125 332.356C43.3417 333.607 56.4487 333.607 69.6654 332.356L65.8396 321.054C55.1833 321.913 44.61 321.913 33.9537 321.054H33.9507Z" fill="white"/>
<path d="M80.002 345.744H19.7861C19.7861 343.306 21.7657 341.326 24.2045 341.326H75.5836C78.0225 341.326 80.002 343.306 80.002 345.744Z" fill="#DB5E00"/>
<path d="M326.605 226.112L326.555 226.1C325.642 225.884 325.079 224.971 325.295 224.061L325.488 223.24C325.704 222.328 326.617 221.764 327.527 221.981L327.577 221.993L326.602 226.112H326.605Z" fill="#DDF6F0"/>
<path d="M336.637 237.722L340.649 230.047L344.777 231.022L339.239 239.248C338.376 238.727 337.475 238.276 336.637 237.719V237.722Z" fill="#1C3A54"/>
<path d="M343.248 231.129C337.43 229.739 331.264 229.816 324.818 231.081L328.205 216.75C333.525 220.707 339.022 223.406 344.706 224.962L343.248 231.129Z" fill="#1C3A54"/>
<path d="M346.11 231.804L343.247 231.129L344.705 224.962L347.568 225.638C347.908 225.718 348.119 226.058 348.039 226.399L346.871 231.333C346.791 231.674 346.45 231.884 346.11 231.804Z" fill="#DDF6F0"/>
<path d="M350.875 244.043C350.875 244.043 346.605 251.466 344.708 252.201L342.687 239.151C342.687 239.151 343.541 234.104 339.884 231.434C338.767 230.616 334.959 235.289 335.436 237.565C335.913 239.841 337.587 239.88 338.5 242.354C339.149 244.111 337.537 261.797 342.705 263.797C347.873 265.797 353.776 257.515 353.776 257.515L350.875 244.046V244.043Z" fill="#F9CC9F"/>
<path d="M339.093 232.993L336.183 238.558L337.489 238.866C338.426 239.088 339.404 238.706 339.943 237.906L340.485 237.103C340.841 236.575 340.921 235.909 340.696 235.313C340.385 234.48 339.872 233.491 339.093 232.993Z" fill="#1C3A54"/>
<path d="M338.885 232.453C338.885 232.453 339.955 233.064 338.992 235.106C338.029 237.147 336.939 238.979 336.227 238.765C335.516 238.549 335.727 236.172 336.444 235.209C337.164 234.246 338.885 232.453 338.885 232.453Z" fill="#FDC78B"/>
<path d="M354.083 238.801C349.152 243.465 346.835 248.21 344.689 250.892C344.689 250.892 350.112 260.588 353.87 260.214L355.281 246.023L354.08 238.798L354.083 238.801Z" fill="#DDF6F0"/>
<path d="M345.524 249.036C345.524 249.036 347.66 253.627 351.768 256.602L350.739 260.899C350.739 260.899 345.752 255.71 343.435 251.484L345.524 249.034V249.036Z" fill="#144A3F"/>
<path d="M356.177 338.622L356.056 341.396L350.979 342.14L350.905 338.003L356.177 338.622Z" fill="#FFB164"/>
<path d="M349.542 278.712C349.542 278.712 346.738 299.346 347.452 313.623C348.175 328.108 350.158 339.482 350.158 339.482L356.686 339.763C356.686 339.763 359.798 295.775 361.608 287.655L363.419 279.533L349.539 278.712H349.542Z" fill="#0F382F"/>
<path d="M357.528 342.421C357.685 343.758 357.978 347.557 357.412 347.566C357.282 347.566 356.262 347.587 355.136 347.607C354.721 347.613 354.461 347.166 354.04 347.175C353.071 347.192 352.185 347.661 351.13 347.678C348.569 347.723 346.24 347.764 345.437 347.779C343.742 347.809 345.058 345.189 347.349 344.875C349.639 344.561 350.908 340.045 351.068 340.723C351.254 341.518 355.922 340.966 355.966 340.229C355.999 339.671 357.329 340.762 357.525 342.424L357.528 342.421Z" fill="#0F382F"/>
<path d="M368.702 339.177L369.126 342.095L373.853 340.8L373.66 338.047L368.702 339.177Z" fill="#FDC78B"/>
<path d="M349.542 278.712H375.246L377.561 251.06C377.561 242.588 370.692 235.719 362.219 235.719C353.747 235.719 350.437 242.001 350.437 250.474L349.539 278.712H349.542Z" fill="#DDF6F0"/>
<path d="M358.542 238.454C358.542 241.492 365.897 241.492 365.897 238.454L365.088 232.172H359.351L358.542 238.454Z" fill="#F4BD8C"/>
<path d="M360.792 236.862L360.123 236.746C356.607 236.139 354.247 232.792 354.855 229.277L355.495 225.58C356.103 222.064 359.449 219.705 362.964 220.312L363.633 220.428C367.149 221.036 369.508 224.382 368.901 227.898L368.261 231.595C367.653 235.11 364.307 237.47 360.792 236.862Z" fill="#F9CC9F"/>
<path d="M369.293 221.222L369.373 220.754C369.601 219.426 368.712 218.167 367.384 217.936L365.595 217.628C363.624 219.495 361.366 220.923 359.084 222.336L364.498 223.273C365.292 223.409 365.826 224.165 365.689 224.962C365.583 225.572 365.873 226.183 366.412 226.485C367.574 227.137 368.196 228.45 367.971 229.763L366.489 232.779C366.006 233.766 366.605 234.94 367.687 235.126C368.582 235.28 369.435 234.682 369.589 233.784L371.272 224.04C371.501 222.713 370.612 221.453 369.284 221.222H369.293Z" fill="#1C3A54"/>
<path d="M366.729 229.446C366.531 230.601 367.304 231.698 368.46 231.896C369.616 232.095 370.712 231.321 370.911 230.166C371.109 229.01 370.336 227.913 369.18 227.715C368.024 227.516 366.928 228.29 366.729 229.446Z" fill="#F9CC9F"/>
<path d="M375.245 278.712C375.657 279.053 375.722 287.083 373.082 309.158C373.082 309.158 373.479 322.848 374.143 339.233L368.433 339.763C368.433 339.763 361.16 311.264 358.677 300.205C356.49 290.465 355.794 287.981 355.041 278.712H375.251H375.245Z" fill="#144A3F"/>
<path d="M349.541 278.712C349.541 278.712 350.543 282.446 357.67 282.935L356.923 278.712H349.541Z" fill="#144A3F"/>
<path d="M375.273 342.522C375.412 343.835 375.658 347.569 375.104 347.572C374.977 347.572 373.975 347.578 372.873 347.587C372.464 347.587 372.212 347.145 371.803 347.148C370.852 347.154 369.978 347.604 368.94 347.61C366.427 347.625 364.14 347.64 363.354 347.646C361.689 347.658 363.011 345.1 365.263 344.816C367.515 344.534 368.81 340.116 368.958 340.783C369.133 341.565 373.72 341.076 373.771 340.35C373.809 339.805 375.101 340.889 375.276 342.522H375.273Z" fill="#144A3F"/>
<path d="M375.604 283.154C383.748 268.352 381.407 259.711 381.407 259.711L371.722 258.783C371.722 258.783 376.443 268.121 372.955 281.622C372.472 283.489 371.559 283.035 369.838 283.195C368.116 283.358 367.085 284.801 368.661 285.003C370.238 285.202 370.564 285.489 368.857 289.312C367.15 293.135 369.171 293.226 372.727 289.833C376.283 286.44 375.604 283.157 375.604 283.157" fill="#F9CC9F"/>
<path d="M369.929 237.799C377.276 239.503 381.439 251.718 382.423 261.115C375.275 262.312 370.801 259.011 370.801 259.011C367.384 246.844 362.672 236.116 369.932 237.799H369.929Z" fill="#DDF6F0"/>
<path d="M373.029 262.431V262.428C373.029 262.428 369.559 262.552 369.339 255.322C369.144 248.983 370.922 240.686 371.363 238.745C371.423 238.475 371.458 238.324 371.458 238.324C369.541 237.138 368.744 237.133 368.664 237.138H368.658C366.93 241.45 366.705 249.502 366.705 249.502C362.69 250.011 354.659 249.081 354.659 249.081C354.659 243.222 355.435 237.844 355.465 237.63V237.624C353.373 238.351 352.827 240.057 352.827 240.057C352.827 240.057 352.818 240.194 352.804 240.449C352.682 242.15 352.208 249.081 351.897 255.058C351.678 259.248 350.765 260.952 350.083 261.637L349.544 278.712H373.601C374.899 271.609 373.986 265.892 373.035 262.434L373.029 262.431Z" fill="#144A3F"/>
<path d="M370.555 258.143C370.555 258.143 376.547 259.385 382.423 258.582L382.767 262.061C382.767 262.061 375.447 263.015 371.343 261.334L370.555 258.143Z" fill="#144A3F"/>
<path d="M364.894 214.676C360.666 213.944 356.636 216.442 355.299 220.381C353.657 220.561 352.593 220.991 352.481 221.646C352.238 223.045 356.378 224.929 361.724 225.851C367.07 226.776 371.601 226.39 371.841 224.989C372.65 220.309 369.577 215.482 364.894 214.673V214.676Z" fill="#F9BA2D"/>
<path d="M371.933 224.233C367.378 225.878 362.192 225.06 357.59 223.676C353.017 222.298 353.565 220.813 353.598 220.73C352.949 220.955 352.546 221.261 352.481 221.646C352.238 223.045 356.378 224.929 361.724 225.851C367.07 226.776 371.601 226.39 371.841 224.989C371.885 224.737 371.912 224.485 371.933 224.233Z" fill="#FFDF5A"/>
<path d="M356.71 220.958C356.71 220.958 356.891 215.648 361.294 214.445C365.698 213.245 368.08 215.98 368.08 215.98C368.08 215.98 363.813 214.187 361.324 215.657C358.835 217.13 358.138 221.513 358.138 221.513C358.138 221.513 357.155 221.216 356.707 220.955L356.71 220.958Z" fill="#FFDF5A"/>
<path d="M315.792 211.076C318.586 212.391 321.123 214.107 323.402 216.19C324.11 216.836 323.055 217.885 322.35 217.242C320.16 215.245 317.718 213.624 315.039 212.362C314.174 211.953 314.929 210.673 315.789 211.079L315.792 211.076Z" fill="white"/>
<path d="M315.987 219.663L320.702 221.059C321.617 221.329 321.226 222.766 320.307 222.493C318.737 222.028 317.166 221.563 315.593 221.098C314.677 220.828 315.068 219.391 315.987 219.663Z" fill="white"/>
<path d="M312.519 227.309C314.677 226.639 316.834 225.97 318.991 225.303C319.907 225.018 320.298 226.453 319.385 226.737C317.228 227.407 315.071 228.076 312.913 228.743C311.998 229.028 311.607 227.593 312.519 227.309Z" fill="white"/>
</svg>
